<svg width="270" height="253" viewBox="0 0 270 253" fill="none" xmlns="http://www.w3.org/2000/svg">
<rect width="270" height="253" rx="41" fill="#06C69A"/>
<path d="M194.125 214.25H75.875C71.5984 214.25 67.4969 212.551 64.4729 209.527C61.4489 206.503 59.75 202.402 59.75 198.125V130.938C59.75 126.661 61.4489 122.559 64.4729 119.535C67.4969 116.511 71.5984 114.813 75.875 114.813H113.285C115.477 114.811 117.617 115.479 119.418 116.728C121.219 117.977 122.596 119.747 123.363 121.8L128.738 136.313H194.125C198.402 136.313 202.503 138.011 205.527 141.035C208.551 144.059 210.25 148.161 210.25 152.438V198.125C210.25 202.402 208.551 206.503 205.527 209.527C202.503 212.551 198.402 214.25 194.125 214.25ZM75.875 120.188C73.0239 120.188 70.2896 121.32 68.2736 123.336C66.2576 125.352 65.125 128.086 65.125 130.938V198.125C65.125 200.976 66.2576 203.71 68.2736 205.726C70.2896 207.742 73.0239 208.875 75.875 208.875H194.125C196.976 208.875 199.71 207.742 201.726 205.726C203.742 203.71 204.875 200.976 204.875 198.125V152.438C204.875 149.586 203.742 146.852 201.726 144.836C199.71 142.82 196.976 141.688 194.125 141.688H126.938C126.388 141.689 125.852 141.523 125.4 141.211C124.949 140.898 124.603 140.455 124.411 139.941L118.311 123.681C117.928 122.657 117.242 121.773 116.344 121.149C115.446 120.525 114.379 120.189 113.285 120.188H75.875Z" fill="white"/>
<path d="M207.562 130.938C206.85 130.938 206.166 130.654 205.662 130.15C205.158 129.646 204.875 128.963 204.875 128.25V87.9375C204.875 85.0864 203.742 82.3521 201.726 80.3361C199.71 78.3201 196.976 77.1875 194.125 77.1875H160.424C158.236 77.1913 156.102 77.8623 154.306 79.1108C152.51 80.3594 151.138 82.126 150.373 84.175L145.589 96.9406C145.397 97.455 145.051 97.8982 144.6 98.2105C144.148 98.5228 143.612 98.6893 143.062 98.6875H73.1875C71.0492 98.6875 68.9985 99.5369 67.4865 101.049C65.9744 102.561 65.125 104.612 65.125 106.75C65.125 107.463 64.8419 108.146 64.3378 108.65C63.8338 109.154 63.1503 109.438 62.4375 109.438C61.7247 109.438 61.0412 109.154 60.5372 108.65C60.0331 108.146 59.75 107.463 59.75 106.75C59.75 103.186 61.1657 99.7683 63.6858 97.2483C66.2058 94.7282 69.6237 93.3125 73.1875 93.3125H141.208L145.347 82.2669C146.5 79.1985 148.56 76.5542 151.254 74.6864C153.947 72.8187 157.146 71.8162 160.424 71.8125H194.125C198.402 71.8125 202.503 73.5114 205.527 76.5354C208.551 79.5594 210.25 83.6609 210.25 87.9375V128.25C210.25 128.963 209.967 129.646 209.463 130.15C208.959 130.654 208.275 130.938 207.562 130.938Z" fill="white"/>
<path d="M191.438 139C190.725 139 190.041 138.717 189.537 138.213C189.033 137.709 188.75 137.025 188.75 136.312V122.418C188.752 122.064 188.684 121.714 188.551 121.386C188.417 121.059 188.22 120.761 187.971 120.51L177.678 110.217C177.426 109.968 177.129 109.771 176.801 109.637C176.474 109.503 176.123 109.435 175.769 109.438H116.188C115.475 109.438 114.791 109.721 114.287 110.225C113.783 110.729 113.5 111.412 113.5 112.125V117.5C113.5 118.213 113.217 118.896 112.713 119.4C112.209 119.904 111.525 120.188 110.812 120.188C110.1 120.188 109.416 119.904 108.912 119.4C108.408 118.896 108.125 118.213 108.125 117.5V112.125C108.125 109.987 108.974 107.936 110.486 106.424C111.998 104.912 114.049 104.063 116.188 104.062H175.769C177.907 104.064 179.956 104.915 181.467 106.427L191.76 116.721C193.272 118.231 194.123 120.281 194.125 122.418V136.312C194.125 137.025 193.842 137.709 193.338 138.213C192.834 138.717 192.15 139 191.438 139Z" fill="white"/>
<path d="M191.438 125.562H180.688C178.549 125.562 176.498 124.713 174.986 123.201C173.474 121.689 172.625 119.638 172.625 117.5V106.75C172.625 106.037 172.908 105.354 173.412 104.85C173.916 104.346 174.6 104.062 175.312 104.062C176.025 104.062 176.709 104.346 177.213 104.85C177.717 105.354 178 106.037 178 106.75V117.5C178 118.213 178.283 118.896 178.787 119.4C179.291 119.904 179.975 120.188 180.688 120.188H191.438C192.15 120.188 192.834 120.471 193.338 120.975C193.842 121.479 194.125 122.162 194.125 122.875C194.125 123.588 193.842 124.271 193.338 124.775C192.834 125.279 192.15 125.562 191.438 125.562ZM167.25 120.188H129.625C128.912 120.188 128.229 119.904 127.725 119.4C127.221 118.896 126.938 118.213 126.938 117.5C126.938 116.787 127.221 116.104 127.725 115.6C128.229 115.096 128.912 114.812 129.625 114.812H167.25C167.963 114.812 168.646 115.096 169.15 115.6C169.654 116.104 169.938 116.787 169.938 117.5C169.938 118.213 169.654 118.896 169.15 119.4C168.646 119.904 167.963 120.188 167.25 120.188ZM167.25 130.938H145.75C145.037 130.938 144.354 130.654 143.85 130.15C143.346 129.646 143.062 128.963 143.062 128.25C143.062 127.537 143.346 126.854 143.85 126.35C144.354 125.846 145.037 125.562 145.75 125.562H167.25C167.963 125.562 168.646 125.846 169.15 126.35C169.654 126.854 169.938 127.537 169.938 128.25C169.938 128.963 169.654 129.646 169.15 130.15C168.646 130.654 167.963 130.938 167.25 130.938Z" fill="white"/>
<g clip-path="url(#clip0_108_774)">
<path d="M135 196.445C122.621 196.445 112.492 186.317 112.492 173.938C112.492 161.558 122.621 151.43 135 151.43C147.379 151.43 157.508 161.558 157.508 173.938C157.508 186.317 147.379 196.445 135 196.445ZM135 155.181C124.684 155.181 116.243 163.621 116.243 173.938C116.243 184.254 124.684 192.694 135 192.694C145.316 192.694 153.757 184.254 153.757 173.938C153.757 163.621 145.316 155.181 135 155.181Z" fill="white"/>
<path d="M135 175.813C131.436 175.813 128.435 173.562 127.685 170.561C127.497 170.186 127.497 169.811 127.497 169.248C127.497 165.685 130.874 162.684 135 162.684C139.126 162.684 142.503 165.685 142.503 169.248C142.503 169.811 142.503 170.186 142.315 170.561C142.127 171.499 141.002 172.249 140.064 171.874C139.126 171.687 138.376 170.561 138.751 169.624V169.061C138.751 167.748 137.063 166.435 135 166.435C132.937 166.435 131.249 167.748 131.249 169.248V169.811C131.624 171.124 133.124 172.062 135 172.062C136.125 172.062 136.876 172.812 136.876 173.938C136.876 175.063 136.125 175.813 135 175.813Z" fill="white"/>
<path d="M135 185.192C130.874 185.192 127.497 182.19 127.497 178.627C127.497 178.064 127.497 177.689 127.685 177.314C127.873 176.376 128.998 175.626 129.936 176.001C130.874 176.188 131.624 177.314 131.249 178.252V178.814C131.249 180.315 132.937 181.628 135 181.628C137.063 181.628 138.751 180.315 138.751 178.814V178.252C138.376 176.939 136.876 176.001 135 176.001C133.875 176.001 133.124 175.251 133.124 174.125C133.124 173 133.875 172.25 135 172.25C138.564 172.25 141.565 174.5 142.315 177.501C142.503 177.689 142.503 178.064 142.503 178.627C142.503 182.19 139.126 185.192 135 185.192Z" fill="white"/>
<path d="M135 188.943C133.875 188.943 133.124 188.193 133.124 187.067V183.316C133.124 182.19 133.875 181.44 135 181.44C136.125 181.44 136.876 182.19 136.876 183.316V187.067C136.876 188.193 136.125 188.943 135 188.943ZM135 166.435C133.875 166.435 133.124 165.685 133.124 164.559V160.808C133.124 159.683 133.875 158.932 135 158.932C136.125 158.932 136.876 159.683 136.876 160.808V164.559C136.876 165.685 136.125 166.435 135 166.435ZM140.627 172.062C140.064 172.062 139.689 171.874 139.314 171.499C138.939 171.124 138.751 170.749 138.751 170.186C138.751 169.624 138.939 169.248 139.314 168.873C140.064 168.123 141.19 168.123 141.94 168.873C142.315 169.248 142.503 169.624 142.503 170.186C142.503 170.749 142.315 171.124 141.94 171.499C141.565 171.874 141.19 172.062 140.627 172.062Z" fill="white"/>
</g>
<defs>
<clipPath id="clip0_108_774">
<rect width="45.0156" height="45.0156" fill="white" transform="translate(112.492 151.43)"/>
</clipPath>
</defs>
</svg>
