<svg width="270" height="253" viewBox="0 0 270 253" fill="none" xmlns="http://www.w3.org/2000/svg">
<rect width="270" height="253" rx="41" fill="#06C69A"/>
<g clip-path="url(#clip0_108_775)">
<path d="M135 53C123.639 52.9694 112.403 55.3773 102.052 60.061C91.7015 64.7448 82.4763 71.5954 75 80.15V78C75 76.674 74.4732 75.4022 73.5355 74.4645C72.5978 73.5268 71.3261 73 70 73C68.6739 73 67.4021 73.5268 66.4644 74.4645C65.5268 75.4022 65 76.674 65 78V93C65 94.3261 65.5268 95.5979 66.4644 96.5356C67.4021 97.4733 68.6739 98 70 98H85C86.3261 98 87.5978 97.4733 88.5355 96.5356C89.4732 95.5979 90 94.3261 90 93C90 91.674 89.4732 90.4022 88.5355 89.4645C87.5978 88.5268 86.3261 88 85 88H81.4C92.5225 74.791 108.135 66.1592 125.236 63.764C142.337 61.3688 159.72 65.3792 174.044 75.0243C188.367 84.6694 198.62 99.2684 202.832 116.015C207.043 132.762 204.916 150.474 196.859 165.748C188.802 181.021 175.384 192.777 159.184 198.757C142.985 204.736 125.146 204.517 109.098 198.141C93.0505 191.764 79.9258 179.681 72.2471 164.214C64.5684 148.747 62.8777 130.988 67.5 114.35C67.706 113.707 67.7795 113.029 67.7163 112.356C67.653 111.684 67.4541 111.031 67.1317 110.438C66.8093 109.845 66.37 109.323 65.8404 108.904C65.3107 108.485 64.7017 108.177 64.05 108C62.777 107.646 61.4156 107.81 60.2632 108.456C59.1109 109.103 58.2612 110.179 57.9 111.45C53.3878 127.581 54.0529 144.722 59.8015 160.455C65.55 176.188 76.092 189.72 89.9409 199.143C103.79 208.565 120.247 213.403 136.992 212.974C153.737 212.545 169.925 206.87 183.273 196.751C196.621 186.632 206.456 172.578 211.392 156.571C216.327 140.564 216.113 123.412 210.781 107.533C205.449 91.6539 195.267 77.8492 181.671 68.0653C168.075 58.2814 151.75 53.012 135 53Z" fill="white"/>
<path d="M140 128V108H155C156.326 108 157.598 107.473 158.536 106.536C159.473 105.598 160 104.326 160 103C160 101.674 159.473 100.402 158.536 99.4645C157.598 98.5268 156.326 98 155 98H140V93C140 91.6739 139.473 90.4021 138.536 89.4645C137.598 88.5268 136.326 88 135 88C133.674 88 132.402 88.5268 131.464 89.4645C130.527 90.4021 130 91.6739 130 93V98C124.696 98 119.609 100.107 115.858 103.858C112.107 107.609 110 112.696 110 118C110 123.304 112.107 128.391 115.858 132.142C119.609 135.893 124.696 138 130 138V158H115C113.674 158 112.402 158.527 111.464 159.464C110.527 160.402 110 161.674 110 163C110 164.326 110.527 165.598 111.464 166.536C112.402 167.473 113.674 168 115 168H130V173C130 174.326 130.527 175.598 131.464 176.536C132.402 177.473 133.674 178 135 178C136.326 178 137.598 177.473 138.536 176.536C139.473 175.598 140 174.326 140 173V168C145.304 168 150.391 165.893 154.142 162.142C157.893 158.391 160 153.304 160 148C160 142.696 157.893 137.609 154.142 133.858C150.391 130.107 145.304 128 140 128ZM120 118C120 115.348 121.054 112.804 122.929 110.929C124.804 109.054 127.348 108 130 108V128C127.348 128 124.804 126.946 122.929 125.071C121.054 123.196 120 120.652 120 118ZM140 158V138C142.652 138 145.196 139.054 147.071 140.929C148.946 142.804 150 145.348 150 148C150 150.652 148.946 153.196 147.071 155.071C145.196 156.946 142.652 158 140 158Z" fill="white"/>
</g>
<defs>
<clipPath id="clip0_108_775">
<rect width="160" height="160" fill="white" transform="translate(55 53)"/>
</clipPath>
</defs>
</svg>
