<svg width="874" height="553" viewBox="0 0 874 553" fill="none" xmlns="http://www.w3.org/2000/svg">
<rect width="87.7076" height="206.097" rx="43.8538" transform="matrix(0.710253 -0.703947 0.727643 0.685956 730 62.5598)" fill="#06C69A" fill-opacity="0.46"/>
<path d="M406.412 72.8894C377.391 65.7662 348.09 60.6623 318.648 58.4814C245.071 53.0303 162.765 79.8563 122.702 145.59C66.3731 238.014 109.953 374.123 204.836 421.839C242.834 440.948 285.962 446.391 328.038 444.441C371.531 442.427 411.784 429.367 454.414 422.75C526.449 411.57 601.407 437.847 672.269 420.739C706.753 412.415 730.827 388.947 738.627 353.88C751.987 293.812 732.976 225.598 683.96 187.006C662.008 169.723 636.476 157.668 610.92 146.4C544.933 117.319 476.535 90.0985 406.412 72.8894Z" fill="#06C69A" fill-opacity="0.44"/>
<path d="M479.174 364.946C479.174 364.946 471.167 405.615 471.167 418.858C471.167 432.1 475.172 495.466 475.172 495.466H527.878L533.528 437.299L539.385 495.466H589.908C589.908 495.466 589.937 427.03 589.683 421.322C588.785 401.084 576.492 361.822 576.492 361.822L479.174 364.946Z" fill="#1B3D9E"/>
<mask id="mask0_124_3197" style="mask-type:luminance" maskUnits="userSpaceOnUse" x="471" y="361" width="119" height="135">
<path d="M479.174 364.946C479.174 364.946 471.167 405.615 471.167 418.858C471.167 432.1 475.172 495.466 475.172 495.466H527.878L533.528 437.299L539.385 495.466H589.908C589.908 495.466 589.937 427.03 589.683 421.322C588.785 401.084 576.492 361.822 576.492 361.822L479.174 364.946Z" fill="white"/>
</mask>
<g mask="url(#mask0_124_3197)">
<path d="M534.362 368.637L533.528 437.299C533.528 437.299 541.905 432.781 542.911 428.641C543.914 424.505 545.171 366.623 545.171 366.623L534.362 368.637Z" fill="#1C056D"/>
</g>
<mask id="mask1_124_3197" style="mask-type:luminance" maskUnits="userSpaceOnUse" x="471" y="361" width="119" height="135">
<path d="M479.174 364.946C479.174 364.946 471.167 405.615 471.167 418.858C471.167 432.1 475.172 495.466 475.172 495.466H527.878L533.528 437.299L539.385 495.466H589.908C589.908 495.466 589.937 427.03 589.683 421.322C588.785 401.084 576.492 361.822 576.492 361.822L479.174 364.946Z" fill="white"/>
</mask>
<g mask="url(#mask1_124_3197)">
<path d="M588.523 380.698H468.285C468.066 380.698 467.888 380.52 467.888 380.3C467.888 380.08 468.066 379.903 468.285 379.903H588.523C588.743 379.903 588.92 380.08 588.92 380.3C588.92 380.52 588.743 380.698 588.523 380.698Z" fill="#1C056D"/>
</g>
<mask id="mask2_124_3197" style="mask-type:luminance" maskUnits="userSpaceOnUse" x="471" y="361" width="119" height="135">
<path d="M479.174 364.946C479.174 364.946 471.167 405.615 471.167 418.858C471.167 432.1 475.172 495.466 475.172 495.466H527.878L533.528 437.299L539.385 495.466H589.908C589.908 495.466 589.937 427.03 589.683 421.322C588.785 401.084 576.492 361.822 576.492 361.822L479.174 364.946Z" fill="white"/>
</mask>
<g mask="url(#mask2_124_3197)">
<path d="M499.188 495.864C499.177 495.864 499.167 495.864 499.153 495.861C498.934 495.843 498.772 495.652 498.791 495.432L498.902 494.112C498.92 493.892 499.108 493.733 499.331 493.749C499.55 493.768 499.712 493.961 499.693 494.178L499.582 495.498C499.566 495.708 499.392 495.864 499.188 495.864ZM499.41 493.222C499.399 493.222 499.389 493.222 499.376 493.222C499.156 493.203 498.995 493.01 499.013 492.793L499.124 491.473C499.143 491.253 499.333 491.094 499.553 491.11C499.773 491.128 499.934 491.322 499.916 491.539L499.804 492.859C499.789 493.065 499.614 493.222 499.41 493.222ZM499.635 490.582C499.624 490.582 499.614 490.582 499.601 490.582C499.381 490.564 499.22 490.37 499.238 490.153L499.349 488.833C499.368 488.613 499.558 488.454 499.778 488.47C499.998 488.489 500.159 488.682 500.141 488.9L500.029 490.219C500.011 490.426 499.839 490.582 499.635 490.582ZM499.857 487.943C499.847 487.943 499.834 487.943 499.823 487.94C499.603 487.922 499.442 487.728 499.46 487.511L499.572 486.191C499.59 485.971 499.783 485.807 500 485.828C500.22 485.847 500.381 486.04 500.363 486.258L500.252 487.577C500.236 487.784 500.061 487.943 499.857 487.943ZM500.082 485.301C500.072 485.301 500.061 485.301 500.048 485.301C499.828 485.282 499.667 485.089 499.685 484.872L499.797 483.552C499.815 483.332 500.011 483.173 500.225 483.189C500.445 483.207 500.606 483.401 500.588 483.618L500.477 484.938C500.458 485.145 500.286 485.301 500.082 485.301ZM500.305 482.662C500.294 482.662 500.283 482.662 500.27 482.659C500.051 482.64 499.889 482.45 499.908 482.23L500.019 480.91C500.037 480.69 500.228 480.531 500.448 480.547C500.667 480.565 500.829 480.759 500.81 480.976L500.699 482.296C500.683 482.505 500.508 482.662 500.305 482.662ZM500.527 480.02C500.516 480.02 500.506 480.02 500.493 480.02C500.273 480.001 500.111 479.808 500.13 479.59L500.241 478.271C500.26 478.051 500.45 477.892 500.67 477.907C500.89 477.926 501.051 478.119 501.032 478.337L500.921 479.656C500.905 479.863 500.731 480.02 500.527 480.02ZM500.752 477.38C500.741 477.38 500.731 477.38 500.718 477.377C500.498 477.359 500.336 477.168 500.355 476.948L500.466 475.628C500.485 475.409 500.673 475.25 500.895 475.265C501.115 475.284 501.276 475.477 501.257 475.695L501.146 477.014C501.128 477.224 500.956 477.38 500.752 477.38ZM500.974 474.738C500.964 474.738 500.953 474.738 500.94 474.738C500.72 474.72 500.559 474.526 500.577 474.309L500.688 472.989C500.707 472.769 500.903 472.61 501.117 472.626C501.337 472.645 501.498 472.838 501.48 473.055L501.369 474.375C501.353 474.582 501.178 474.738 500.974 474.738ZM501.197 472.099C501.186 472.099 501.175 472.099 501.162 472.099C500.943 472.08 500.781 471.887 500.8 471.669L500.911 470.35C500.929 470.13 501.12 469.971 501.339 469.987C501.559 470.005 501.721 470.199 501.702 470.416L501.591 471.736C501.575 471.942 501.4 472.099 501.197 472.099ZM501.422 469.457C501.411 469.457 501.398 469.457 501.387 469.457C501.167 469.438 501.006 469.245 501.025 469.027L501.136 467.708C501.154 467.488 501.347 467.329 501.564 467.345C501.784 467.363 501.946 467.557 501.927 467.774L501.816 469.094C501.8 469.3 501.625 469.457 501.422 469.457ZM501.644 466.817C501.633 466.817 501.623 466.817 501.609 466.817C501.39 466.799 501.228 466.605 501.247 466.388L501.358 465.068C501.377 464.848 501.567 464.689 501.787 464.705C502.006 464.724 502.168 464.917 502.149 465.134L502.038 466.454C502.022 466.661 501.848 466.817 501.644 466.817ZM501.869 464.178C501.858 464.178 501.845 464.178 501.834 464.178C501.615 464.159 501.453 463.966 501.472 463.749L501.583 462.429C501.602 462.209 501.797 462.047 502.012 462.066C502.231 462.084 502.393 462.278 502.374 462.495L502.263 463.815C502.245 464.021 502.073 464.178 501.869 464.178ZM502.091 461.536C502.081 461.536 502.07 461.536 502.057 461.536C501.837 461.517 501.676 461.324 501.694 461.106L501.805 459.787C501.824 459.567 502.014 459.41 502.234 459.424C502.454 459.442 502.615 459.636 502.597 459.853L502.486 461.173C502.47 461.379 502.295 461.536 502.091 461.536ZM502.313 458.896C502.303 458.896 502.29 458.896 502.279 458.896C502.059 458.878 501.898 458.684 501.916 458.467L502.028 457.147C502.046 456.927 502.239 456.771 502.456 456.784C502.676 456.803 502.838 456.996 502.819 457.214L502.708 458.533C502.692 458.74 502.517 458.896 502.313 458.896ZM502.538 456.254C502.528 456.254 502.517 456.254 502.504 456.254C502.284 456.236 502.123 456.042 502.141 455.825L502.253 454.505C502.271 454.285 502.462 454.129 502.681 454.142C502.901 454.161 503.062 454.354 503.044 454.572L502.933 455.891C502.914 456.098 502.742 456.254 502.538 456.254ZM502.761 453.615C502.75 453.615 502.737 453.615 502.726 453.612C502.507 453.594 502.345 453.4 502.364 453.183L502.475 451.863C502.493 451.643 502.687 451.487 502.904 451.5C503.123 451.519 503.285 451.712 503.266 451.93L503.155 453.249C503.139 453.459 502.965 453.615 502.761 453.615ZM502.986 450.973C502.975 450.973 502.965 450.973 502.951 450.973C502.732 450.954 502.57 450.761 502.589 450.544L502.7 449.224C502.718 449.004 502.912 448.848 503.129 448.861C503.348 448.879 503.51 449.073 503.491 449.29L503.38 450.61C503.362 450.817 503.19 450.973 502.986 450.973ZM503.208 448.333C503.197 448.333 503.184 448.333 503.174 448.333C502.954 448.315 502.793 448.121 502.811 447.904L502.922 446.584C502.941 446.365 503.137 446.208 503.351 446.221C503.571 446.24 503.732 446.433 503.714 446.651L503.602 447.97C503.587 448.177 503.412 448.333 503.208 448.333ZM503.43 445.694C503.42 445.694 503.409 445.694 503.396 445.694C503.176 445.676 503.015 445.482 503.033 445.265L503.145 443.945C503.163 443.725 503.354 443.563 503.573 443.582C503.793 443.601 503.954 443.791 503.936 444.011L503.825 445.331C503.809 445.538 503.634 445.694 503.43 445.694ZM503.655 443.052C503.645 443.052 503.634 443.052 503.621 443.052C503.401 443.033 503.24 442.84 503.258 442.623L503.37 441.303C503.388 441.083 503.579 440.927 503.798 440.94C504.018 440.959 504.179 441.152 504.161 441.369L504.05 442.689C504.031 442.896 503.859 443.052 503.655 443.052ZM503.878 440.413C503.867 440.413 503.856 440.413 503.843 440.413C503.624 440.394 503.462 440.201 503.481 439.983L503.592 438.664C503.61 438.444 503.804 438.287 504.021 438.301C504.24 438.319 504.402 438.513 504.383 438.73L504.272 440.05C504.256 440.256 504.081 440.413 503.878 440.413ZM504.103 437.771C504.092 437.771 504.079 437.771 504.068 437.771C503.849 437.752 503.687 437.559 503.706 437.341L503.817 436.022C503.835 435.802 504.031 435.645 504.246 435.659C504.465 435.677 504.627 435.871 504.608 436.088L504.497 437.408C504.478 437.614 504.306 437.771 504.103 437.771ZM504.325 435.131C504.314 435.131 504.304 435.131 504.291 435.131C504.071 435.113 503.909 434.919 503.928 434.702L504.039 433.382C504.058 433.162 504.251 433.006 504.468 433.019C504.688 433.038 504.849 433.231 504.83 433.448L504.719 434.768C504.703 434.975 504.529 435.131 504.325 435.131ZM504.547 432.489C504.537 432.489 504.526 432.489 504.513 432.489C504.293 432.471 504.132 432.277 504.15 432.06L504.261 430.74C504.28 430.52 504.468 430.361 504.69 430.377C504.91 430.396 505.071 430.589 505.053 430.806L504.942 432.126C504.926 432.333 504.751 432.489 504.547 432.489ZM504.772 429.85C504.762 429.85 504.748 429.85 504.738 429.85C504.518 429.831 504.357 429.638 504.375 429.42L504.486 428.101C504.505 427.881 504.695 427.722 504.915 427.738C505.135 427.756 505.296 427.95 505.278 428.167L505.167 429.487C505.148 429.693 504.976 429.85 504.772 429.85ZM504.995 427.21C504.984 427.21 504.973 427.21 504.96 427.21C504.74 427.192 504.579 426.998 504.598 426.781L504.709 425.461C504.727 425.241 504.918 425.077 505.137 425.098C505.357 425.117 505.519 425.308 505.5 425.528L505.389 426.847C505.373 427.054 505.198 427.21 504.995 427.21ZM505.217 424.568C505.206 424.568 505.196 424.568 505.182 424.568C504.963 424.55 504.801 424.356 504.82 424.139L504.931 422.819C504.95 422.599 505.143 422.44 505.36 422.456C505.579 422.475 505.741 422.668 505.722 422.886L505.611 424.205C505.595 424.412 505.423 424.568 505.217 424.568ZM505.442 421.929C505.431 421.929 505.421 421.929 505.407 421.929C505.188 421.91 505.026 421.717 505.045 421.5L505.156 420.18C505.175 419.96 505.362 419.801 505.585 419.817C505.804 419.835 505.966 420.029 505.947 420.246L505.836 421.566C505.82 421.773 505.646 421.929 505.442 421.929ZM505.664 419.287C505.654 419.287 505.643 419.287 505.63 419.284C505.41 419.266 505.249 419.075 505.267 418.855L505.378 417.535C505.397 417.315 505.587 417.156 505.807 417.172C506.027 417.191 506.188 417.384 506.17 417.601L506.059 418.921C506.043 419.13 505.868 419.287 505.664 419.287ZM505.889 416.647C505.879 416.647 505.868 416.647 505.855 416.647C505.635 416.629 505.474 416.435 505.492 416.218L505.603 414.898C505.622 414.678 505.812 414.519 506.032 414.535C506.252 414.554 506.413 414.747 506.395 414.965L506.283 416.284C506.265 416.491 506.093 416.647 505.889 416.647ZM506.111 414.005C506.101 414.005 506.088 414.005 506.077 414.005C505.857 413.987 505.696 413.793 505.714 413.576L505.826 412.256C505.844 412.036 506.037 411.877 506.254 411.893C506.474 411.912 506.635 412.105 506.617 412.323L506.506 413.642C506.49 413.849 506.315 414.005 506.111 414.005ZM506.334 411.366C506.323 411.366 506.313 411.366 506.299 411.366C506.08 411.347 505.918 411.154 505.937 410.937L506.048 409.617C506.066 409.397 506.257 409.238 506.477 409.254C506.696 409.272 506.858 409.466 506.839 409.683L506.728 411.003C506.712 411.21 506.54 411.366 506.334 411.366ZM506.559 408.724C506.548 408.724 506.538 408.724 506.524 408.724C506.305 408.705 506.143 408.512 506.162 408.295L506.273 406.975C506.291 406.755 506.482 406.593 506.702 406.612C506.921 406.63 507.083 406.821 507.064 407.041L506.953 408.361C506.937 408.568 506.763 408.724 506.559 408.724ZM506.781 406.085C506.77 406.085 506.76 406.085 506.747 406.085C506.527 406.066 506.366 405.873 506.384 405.655L506.495 404.336C506.514 404.116 506.704 403.959 506.924 403.972C507.144 403.991 507.305 404.184 507.287 404.402L507.175 405.721C507.16 405.928 506.985 406.085 506.781 406.085ZM507.006 403.445C506.995 403.445 506.982 403.445 506.972 403.445C506.752 403.427 506.59 403.233 506.609 403.016L506.72 401.696C506.739 401.476 506.935 401.315 507.149 401.333C507.369 401.352 507.53 401.545 507.512 401.762L507.4 403.082C507.382 403.289 507.21 403.445 507.006 403.445ZM507.228 400.803C507.218 400.803 507.207 400.803 507.194 400.8C506.974 400.782 506.813 400.591 506.831 400.371L506.943 399.051C506.961 398.831 507.157 398.672 507.371 398.688C507.591 398.707 507.752 398.9 507.734 399.118L507.623 400.437C507.607 400.647 507.432 400.803 507.228 400.803ZM507.451 398.164C507.44 398.164 507.427 398.164 507.416 398.164C507.197 398.145 507.035 397.952 507.054 397.734L507.165 396.415C507.183 396.195 507.377 396.036 507.594 396.052C507.813 396.07 507.975 396.264 507.956 396.481L507.845 397.801C507.829 398.007 507.654 398.164 507.451 398.164ZM507.676 395.522C507.665 395.522 507.654 395.522 507.641 395.522C507.422 395.503 507.26 395.31 507.279 395.092L507.39 393.773C507.408 393.553 507.596 393.394 507.819 393.41C508.038 393.428 508.2 393.622 508.181 393.839L508.07 395.159C508.051 395.365 507.879 395.522 507.676 395.522ZM507.898 392.882C507.887 392.882 507.877 392.882 507.864 392.882C507.644 392.864 507.482 392.67 507.501 392.453L507.612 391.133C507.631 390.913 507.821 390.754 508.041 390.77C508.261 390.789 508.422 390.982 508.403 391.199L508.292 392.519C508.276 392.726 508.102 392.882 507.898 392.882ZM508.123 390.243C508.112 390.243 508.102 390.243 508.088 390.243C507.869 390.224 507.707 390.031 507.726 389.814L507.837 388.494C507.856 388.274 508.051 388.115 508.266 388.131C508.486 388.149 508.647 388.343 508.628 388.56L508.517 389.88C508.499 390.084 508.327 390.243 508.123 390.243ZM508.345 387.601C508.335 387.601 508.321 387.601 508.311 387.601C508.091 387.582 507.93 387.389 507.948 387.171L508.059 385.852C508.078 385.632 508.271 385.473 508.488 385.489C508.708 385.507 508.869 385.701 508.851 385.918L508.74 387.238C508.724 387.444 508.549 387.601 508.345 387.601ZM508.568 384.961C508.557 384.961 508.546 384.961 508.533 384.961C508.313 384.943 508.152 384.749 508.171 384.532L508.282 383.212C508.3 382.992 508.496 382.833 508.71 382.849C508.93 382.868 509.092 383.061 509.073 383.279L508.962 384.598C508.946 384.805 508.771 384.961 508.568 384.961ZM508.793 382.319C508.782 382.319 508.771 382.319 508.758 382.317C508.538 382.298 508.377 382.107 508.396 381.887L508.507 380.568C508.525 380.348 508.716 380.191 508.935 380.205C509.155 380.223 509.317 380.417 509.298 380.634L509.187 381.954C509.168 382.163 508.996 382.319 508.793 382.319ZM509.015 379.68C509.004 379.68 508.991 379.68 508.98 379.68C508.761 379.661 508.599 379.468 508.618 379.251L508.729 377.931C508.748 377.711 508.938 377.555 509.158 377.568C509.377 377.586 509.539 377.78 509.52 377.997L509.409 379.317C509.393 379.524 509.219 379.68 509.015 379.68ZM509.24 377.038C509.229 377.038 509.219 377.038 509.205 377.038C508.986 377.019 508.824 376.826 508.843 376.609L508.904 375.877C508.922 375.657 509.113 375.496 509.332 375.514C509.552 375.533 509.714 375.723 509.695 375.943L509.634 376.675C509.616 376.882 509.444 377.038 509.24 377.038Z" fill="#1C056D"/>
</g>
<mask id="mask3_124_3197" style="mask-type:luminance" maskUnits="userSpaceOnUse" x="471" y="361" width="119" height="135">
<path d="M479.174 364.946C479.174 364.946 471.167 405.615 471.167 418.858C471.167 432.1 475.172 495.466 475.172 495.466H527.878L533.528 437.299L539.385 495.466H589.908C589.908 495.466 589.937 427.03 589.683 421.322C588.785 401.084 576.492 361.822 576.492 361.822L479.174 364.946Z" fill="white"/>
</mask>
<g mask="url(#mask3_124_3197)">
<path d="M568.329 499.301C568.12 499.301 567.946 499.137 567.932 498.927L567.856 497.605C567.842 497.385 568.009 497.197 568.229 497.186C568.451 497.17 568.636 497.34 568.647 497.56L568.724 498.882C568.737 499.102 568.57 499.29 568.35 499.301C568.345 499.301 568.337 499.301 568.329 499.301ZM568.176 496.656C567.967 496.656 567.792 496.492 567.779 496.283L567.702 494.96C567.689 494.74 567.855 494.552 568.075 494.541C568.3 494.523 568.483 494.695 568.493 494.915L568.57 496.238C568.583 496.457 568.417 496.646 568.197 496.656C568.192 496.656 568.184 496.656 568.176 496.656ZM568.02 494.009C567.81 494.009 567.636 493.845 567.623 493.635L567.546 492.313C567.533 492.093 567.699 491.905 567.919 491.894C568.141 491.876 568.327 492.048 568.337 492.268L568.414 493.59C568.427 493.81 568.26 493.998 568.041 494.009C568.035 494.009 568.028 494.009 568.02 494.009ZM567.863 491.364C567.654 491.364 567.48 491.2 567.466 490.991L567.39 489.668C567.376 489.448 567.543 489.26 567.763 489.249C567.988 489.231 568.17 489.403 568.181 489.623L568.258 490.945C568.271 491.165 568.104 491.354 567.885 491.364C567.879 491.364 567.871 491.364 567.863 491.364ZM567.71 488.719C567.501 488.719 567.326 488.555 567.313 488.346L567.236 487.023C567.223 486.804 567.39 486.615 567.609 486.605C567.829 486.586 568.017 486.758 568.028 486.978L568.104 488.301C568.118 488.521 567.951 488.709 567.731 488.719C567.726 488.719 567.718 488.719 567.71 488.719ZM567.554 486.075C567.345 486.075 567.17 485.91 567.157 485.701L567.08 484.379C567.067 484.159 567.234 483.971 567.453 483.96C567.67 483.947 567.861 484.114 567.871 484.334L567.948 485.656C567.961 485.876 567.795 486.064 567.575 486.075C567.57 486.072 567.562 486.075 567.554 486.075ZM567.4 483.427C567.191 483.427 567.017 483.263 567.003 483.054L566.927 481.731C566.913 481.511 567.08 481.323 567.3 481.313C567.519 481.294 567.707 481.466 567.718 481.686L567.795 483.009C567.808 483.229 567.641 483.417 567.421 483.427C567.413 483.427 567.408 483.427 567.4 483.427ZM567.244 480.783C567.035 480.783 566.86 480.618 566.847 480.409L566.77 479.087C566.757 478.867 566.924 478.679 567.144 478.668C567.363 478.652 567.551 478.822 567.562 479.042L567.638 480.364C567.652 480.584 567.485 480.772 567.265 480.783C567.26 480.783 567.252 480.783 567.244 480.783ZM567.088 478.138C566.879 478.138 566.704 477.974 566.691 477.764L566.614 476.442C566.601 476.222 566.768 476.034 566.987 476.023C567.207 476.01 567.395 476.177 567.406 476.397L567.482 477.719C567.496 477.939 567.329 478.127 567.109 478.138C567.104 478.138 567.096 478.138 567.088 478.138ZM566.934 475.491C566.725 475.491 566.551 475.326 566.537 475.117L566.461 473.795C566.447 473.575 566.614 473.387 566.834 473.376C567.059 473.363 567.241 473.53 567.252 473.75L567.329 475.072C567.342 475.292 567.175 475.48 566.956 475.491C566.95 475.491 566.942 475.491 566.934 475.491ZM566.778 472.846C566.569 472.846 566.395 472.682 566.381 472.472L566.305 471.15C566.291 470.93 566.458 470.742 566.678 470.731C566.897 470.718 567.085 470.885 567.096 471.105L567.173 472.427C567.186 472.647 567.019 472.835 566.799 472.846C566.794 472.846 566.786 472.846 566.778 472.846ZM566.625 470.201C566.416 470.201 566.241 470.037 566.228 469.828L566.151 468.505C566.138 468.285 566.305 468.097 566.524 468.087C566.749 468.073 566.932 468.24 566.942 468.46L567.019 469.783C567.032 470.003 566.866 470.191 566.646 470.201C566.641 470.201 566.633 470.201 566.625 470.201ZM566.469 467.557C566.26 467.557 566.085 467.392 566.072 467.183L565.995 465.861C565.982 465.641 566.148 465.452 566.368 465.442C566.588 465.429 566.776 465.596 566.786 465.816L566.863 467.138C566.876 467.358 566.709 467.546 566.49 467.557C566.485 467.554 566.477 467.557 566.469 467.557ZM566.312 464.909C566.103 464.909 565.929 464.745 565.915 464.536L565.839 463.213C565.825 462.993 565.992 462.805 566.212 462.795C566.434 462.781 566.619 462.948 566.63 463.168L566.707 464.491C566.72 464.71 566.553 464.899 566.334 464.909C566.328 464.909 566.32 464.909 566.312 464.909ZM566.159 462.265C565.95 462.265 565.775 462.1 565.762 461.891L565.685 460.569C565.672 460.349 565.839 460.16 566.058 460.15C566.273 460.134 566.466 460.304 566.477 460.523L566.553 461.846C566.567 462.066 566.4 462.254 566.18 462.265C566.175 462.265 566.167 462.265 566.159 462.265ZM566.003 459.62C565.794 459.62 565.619 459.456 565.606 459.246L565.529 457.924C565.516 457.704 565.683 457.516 565.902 457.505C566.125 457.492 566.31 457.659 566.32 457.879L566.397 459.201C566.41 459.421 566.244 459.609 566.024 459.62C566.019 459.62 566.011 459.62 566.003 459.62ZM565.849 456.975C565.64 456.975 565.466 456.811 565.452 456.601L565.376 455.279C565.362 455.059 565.529 454.871 565.749 454.86C565.968 454.845 566.156 455.014 566.167 455.234L566.244 456.556C566.257 456.776 566.09 456.965 565.871 456.975C565.863 456.972 565.857 456.975 565.849 456.975ZM565.693 454.328C565.484 454.328 565.309 454.163 565.296 453.954L565.219 452.632C565.206 452.412 565.373 452.224 565.593 452.213C565.815 452.197 566 452.367 566.011 452.587L566.088 453.909C566.101 454.129 565.934 454.317 565.714 454.328C565.709 454.328 565.701 454.328 565.693 454.328ZM565.537 451.683C565.328 451.683 565.153 451.519 565.14 451.309L565.063 449.987C565.05 449.767 565.217 449.579 565.436 449.568C565.656 449.552 565.844 449.722 565.855 449.942L565.931 451.264C565.945 451.484 565.778 451.672 565.558 451.683C565.553 451.683 565.545 451.683 565.537 451.683ZM565.384 449.038C565.174 449.038 565 448.874 564.987 448.665L564.91 447.342C564.897 447.122 565.063 446.934 565.283 446.924C565.497 446.913 565.691 447.077 565.701 447.297L565.778 448.62C565.791 448.84 565.624 449.028 565.405 449.038C565.399 449.038 565.391 449.038 565.384 449.038ZM565.227 446.391C565.018 446.391 564.844 446.227 564.83 446.017L564.754 444.695C564.74 444.475 564.907 444.287 565.127 444.276C565.346 444.26 565.534 444.43 565.545 444.65L565.622 445.972C565.635 446.192 565.468 446.38 565.249 446.391C565.243 446.391 565.235 446.391 565.227 446.391ZM565.074 443.746C564.865 443.746 564.69 443.582 564.677 443.373L564.6 442.05C564.587 441.83 564.754 441.642 564.973 441.632C565.196 441.616 565.381 441.785 565.391 442.005L565.468 443.328C565.481 443.548 565.315 443.736 565.095 443.746C565.087 443.746 565.082 443.746 565.074 443.746ZM564.918 441.102C564.709 441.102 564.534 440.937 564.521 440.728L564.444 439.406C564.431 439.186 564.597 438.997 564.817 438.987C565.042 438.971 565.225 439.141 565.235 439.361L565.312 440.683C565.325 440.903 565.159 441.091 564.939 441.102C564.934 441.102 564.926 441.102 564.918 441.102ZM564.762 438.457C564.552 438.457 564.378 438.293 564.365 438.083L564.288 436.761C564.275 436.541 564.441 436.353 564.661 436.342C564.883 436.326 565.069 436.496 565.079 436.716L565.156 438.038C565.169 438.258 565.002 438.446 564.783 438.457C564.777 438.454 564.77 438.457 564.762 438.457ZM564.608 435.81C564.399 435.81 564.224 435.645 564.211 435.436L564.134 434.114C564.121 433.894 564.288 433.705 564.507 433.695C564.732 433.679 564.915 433.849 564.926 434.069L565.002 435.391C565.016 435.611 564.849 435.799 564.629 435.81C564.624 435.81 564.616 435.81 564.608 435.81ZM564.452 433.165C564.243 433.165 564.068 433.001 564.055 432.791L563.978 431.469C563.965 431.249 564.132 431.061 564.351 431.05C564.574 431.032 564.759 431.204 564.769 431.424L564.846 432.746C564.859 432.966 564.693 433.154 564.473 433.165C564.468 433.165 564.46 433.165 564.452 433.165ZM564.298 430.52C564.089 430.52 563.915 430.356 563.901 430.146L563.825 428.824C563.811 428.604 563.978 428.416 564.198 428.405C564.417 428.395 564.605 428.559 564.616 428.779L564.693 430.101C564.706 430.321 564.539 430.51 564.32 430.52C564.312 430.52 564.304 430.52 564.298 430.52ZM564.142 427.873C563.933 427.873 563.758 427.709 563.745 427.499L563.668 426.177C563.655 425.957 563.822 425.769 564.042 425.758C564.264 425.74 564.449 425.912 564.46 426.132L564.537 427.454C564.55 427.674 564.383 427.862 564.163 427.873C564.158 427.873 564.15 427.873 564.142 427.873ZM563.986 425.228C563.777 425.228 563.602 425.064 563.589 424.854L563.512 423.532C563.499 423.312 563.666 423.124 563.886 423.113C564.11 423.095 564.293 423.267 564.304 423.487L564.38 424.809C564.394 425.029 564.227 425.218 564.007 425.228C564.002 425.228 563.994 425.228 563.986 425.228ZM563.833 422.583C563.624 422.583 563.449 422.419 563.436 422.21L563.359 420.887C563.346 420.667 563.512 420.479 563.732 420.469C563.954 420.45 564.14 420.622 564.15 420.842L564.227 422.165C564.24 422.385 564.073 422.573 563.854 422.583C563.848 422.583 563.841 422.583 563.833 422.583ZM563.676 419.939C563.467 419.939 563.293 419.774 563.279 419.565L563.203 418.243C563.189 418.023 563.356 417.835 563.576 417.824C563.801 417.805 563.983 417.978 563.994 418.198L564.071 419.52C564.084 419.74 563.917 419.928 563.698 419.939C563.692 419.936 563.684 419.939 563.676 419.939ZM563.523 417.291C563.314 417.291 563.139 417.127 563.126 416.918L563.049 415.595C563.036 415.375 563.203 415.187 563.422 415.177C563.645 415.163 563.83 415.33 563.84 415.55L563.917 416.873C563.93 417.093 563.764 417.281 563.544 417.291C563.536 417.291 563.531 417.291 563.523 417.291ZM563.367 414.647C563.158 414.647 562.983 414.482 562.97 414.273L562.893 412.951C562.88 412.731 563.046 412.543 563.266 412.532C563.491 412.519 563.674 412.686 563.684 412.906L563.761 414.228C563.774 414.448 563.608 414.636 563.388 414.647C563.383 414.647 563.375 414.647 563.367 414.647ZM563.211 412.002C563.002 412.002 562.827 411.838 562.814 411.628L562.737 410.306C562.724 410.086 562.89 409.898 563.11 409.887C563.332 409.874 563.518 410.041 563.528 410.261L563.605 411.583C563.618 411.803 563.451 411.991 563.232 412.002C563.227 412.002 563.219 412.002 563.211 412.002ZM563.057 409.355C562.848 409.355 562.673 409.19 562.66 408.981L562.583 407.659C562.57 407.439 562.737 407.251 562.957 407.24C563.181 407.227 563.364 407.394 563.375 407.614L563.451 408.936C563.465 409.156 563.298 409.344 563.078 409.355C563.073 409.355 563.065 409.355 563.057 409.355ZM562.901 406.71C562.692 406.71 562.517 406.546 562.504 406.336L562.427 405.014C562.414 404.794 562.581 404.606 562.8 404.595C563.02 404.582 563.208 404.749 563.219 404.969L563.295 406.291C563.309 406.511 563.142 406.699 562.922 406.71C562.917 406.71 562.909 406.71 562.901 406.71ZM562.747 404.065C562.538 404.065 562.364 403.901 562.35 403.692L562.274 402.369C562.26 402.149 562.427 401.961 562.647 401.951C562.872 401.937 563.054 402.104 563.065 402.324L563.142 403.647C563.155 403.866 562.988 404.055 562.769 404.065C562.761 404.065 562.753 404.065 562.747 404.065ZM562.591 401.421C562.382 401.421 562.207 401.256 562.194 401.047L562.118 399.725C562.104 399.505 562.271 399.316 562.491 399.306C562.71 399.293 562.898 399.46 562.909 399.679L562.986 401.002C562.999 401.222 562.832 401.41 562.612 401.421C562.607 401.418 562.599 401.421 562.591 401.421ZM562.435 398.773C562.226 398.773 562.051 398.609 562.038 398.4L561.961 397.077C561.948 396.857 562.115 396.669 562.335 396.658C562.56 396.645 562.742 396.812 562.753 397.032L562.829 398.354C562.843 398.574 562.676 398.763 562.456 398.773C562.451 398.773 562.443 398.773 562.435 398.773ZM562.282 396.128C562.073 396.128 561.898 395.964 561.885 395.755L561.808 394.432C561.795 394.212 561.961 394.024 562.181 394.014C562.401 394.001 562.589 394.167 562.599 394.387L562.676 395.71C562.689 395.93 562.522 396.118 562.303 396.128C562.298 396.128 562.29 396.128 562.282 396.128ZM562.125 393.484C561.916 393.484 561.742 393.319 561.728 393.11L561.652 391.788C561.639 391.568 561.805 391.38 562.025 391.369C562.25 391.353 562.433 391.523 562.443 391.743L562.52 393.065C562.533 393.285 562.366 393.473 562.147 393.484C562.141 393.484 562.133 393.484 562.125 393.484ZM561.972 390.836C561.763 390.836 561.588 390.672 561.575 390.463L561.498 389.14C561.485 388.92 561.652 388.732 561.871 388.722C562.091 388.711 562.279 388.875 562.29 389.095L562.366 390.418C562.38 390.638 562.213 390.826 561.993 390.836C561.988 390.836 561.977 390.836 561.972 390.836ZM561.816 388.192C561.607 388.192 561.432 388.027 561.419 387.818L561.342 386.496C561.329 386.276 561.496 386.088 561.715 386.077C561.94 386.061 562.123 386.231 562.133 386.451L562.21 387.773C562.223 387.993 562.057 388.181 561.837 388.192C561.832 388.192 561.824 388.192 561.816 388.192ZM561.66 385.547C561.451 385.547 561.276 385.383 561.263 385.173L561.186 383.851C561.173 383.631 561.339 383.443 561.559 383.432C561.779 383.416 561.967 383.586 561.977 383.806L562.054 385.128C562.067 385.348 561.9 385.536 561.681 385.547C561.676 385.547 561.668 385.547 561.66 385.547ZM561.506 382.902C561.297 382.902 561.122 382.738 561.109 382.529L561.032 381.206C561.019 380.986 561.186 380.798 561.406 380.788C561.628 380.772 561.813 380.941 561.824 381.161L561.901 382.484C561.914 382.704 561.747 382.892 561.527 382.902C561.522 382.9 561.514 382.902 561.506 382.902ZM561.35 380.255C561.141 380.255 560.966 380.091 560.953 379.881L560.876 378.559C560.863 378.339 561.03 378.151 561.249 378.14C561.469 378.124 561.657 378.294 561.668 378.514L561.744 379.836C561.758 380.056 561.591 380.244 561.371 380.255C561.366 380.255 561.358 380.255 561.35 380.255Z" fill="#1C056D"/>
</g>
<path d="M501.44 221.597C501.44 221.597 520.676 216.421 523.987 216.686C527.295 216.951 549.644 224.973 549.644 224.973L554.371 370.238H505.889L501.44 221.597Z" fill="white"/>
<path d="M551.705 146.618C551.705 146.618 563.885 150.516 565.241 155.429C566.596 160.345 562.342 177.755 562.342 177.755L547.976 162.186L551.705 146.618Z" fill="#1C056D"/>
<path d="M560.204 164.471C559.153 158.935 554.948 154.467 549.443 153.288C539.679 151.194 527.409 155.177 523.976 159.014C519.202 164.354 526.369 187.308 528.346 192.495C528.346 192.495 514.957 214.654 513.519 218.011C513.512 218.03 513.509 218.051 513.501 218.07L502.181 221.552C502.181 221.552 512.114 251.971 533.555 256.148C533.555 256.148 547.042 245.964 547.688 224.114L542.403 221.541C543.572 216.262 544.747 210.552 545.266 206.979C549.67 209.041 554.283 210.101 558.256 209.007C567.183 206.553 562.581 177.003 560.204 164.471Z" fill="#FE8E9C"/>
<mask id="mask4_124_3197" style="mask-type:luminance" maskUnits="userSpaceOnUse" x="502" y="152" width="62" height="105">
<path d="M560.204 164.471C559.153 158.935 554.948 154.467 549.443 153.288C539.679 151.194 527.409 155.177 523.976 159.014C519.202 164.354 526.369 187.308 528.346 192.495C528.346 192.495 514.957 214.654 513.519 218.011C513.512 218.03 513.509 218.051 513.501 218.07L502.181 221.552C502.181 221.552 512.114 251.971 533.555 256.148C533.555 256.148 547.042 245.964 547.688 224.114L542.403 221.541C543.572 216.262 544.747 210.552 545.266 206.979C549.67 209.041 554.283 210.101 558.256 209.007C567.183 206.553 562.581 177.003 560.204 164.471Z" fill="white"/>
</mask>
<g mask="url(#mask4_124_3197)">
<path d="M560.199 160.851C560.199 160.851 560.35 164.913 542.908 167.327C542.908 167.327 540.134 176.587 533.557 176.014C533.557 176.014 533.29 163.148 535.127 161.081C536.964 159.014 552.682 151.661 552.682 151.661C552.682 151.661 560.193 157.231 560.199 160.851Z" fill="#E57492"/>
</g>
<path d="M555.263 168.841C555.263 168.841 561.715 183.257 559.368 184.799C557.02 186.341 551.205 183.008 551.205 183.008C551.287 184.038 551.274 184.757 552.248 185.101C555.07 186.097 559.574 187.817 560.744 185.562C562.8 181.6 555.263 168.841 555.263 168.841Z" fill="#E57492"/>
<path d="M545.269 206.982C545.269 206.982 536.44 200.842 533.557 197.159C533.557 197.159 535.924 209.685 544.152 213.271L545.269 206.982Z" fill="#E57492"/>
<path d="M560.032 194.564C560.032 194.564 556.213 195.712 553.537 193.131C553.537 193.131 553.347 198.007 557.356 198.582C561.369 199.154 560.032 194.564 560.032 194.564Z" fill="white"/>
<path d="M536.797 163.501C536.797 163.501 553.169 166.326 554.371 155.432C555.572 144.537 546.833 135.623 546.833 135.623C546.833 135.623 549.98 141.297 549.541 142.754C549.101 144.212 533.885 134.165 522.717 142.592C511.548 151.019 510.738 161.068 512.357 170.306C513.977 179.544 525.548 197.156 525.548 197.156C525.548 197.156 528.211 194.461 529.976 190.104C531.8 185.602 531.866 183.384 531.866 183.384C531.866 183.384 521.536 178.153 524.659 172.736C528.73 165.677 533.56 176.012 533.56 176.012L536.797 163.501Z" fill="#1B3D9E"/>
<path d="M439.868 435.852C439.868 435.852 439.868 442.44 440.104 443.301C440.339 444.162 444.412 449.497 444.569 450.438C444.725 451.378 443.941 467.766 442.115 468.081C437.6 468.866 437.129 466.669 436.973 465.572C436.817 464.475 437.364 467.376 433.762 467.061C430.16 466.748 430.004 462.983 430.004 462.983C430.004 462.983 430.396 466.669 426.95 465.18C423.504 463.69 423.504 460.553 423.504 460.553C423.504 460.553 421.701 463.142 419.822 461.573C417.943 460.004 417.708 456.946 417.864 456.554C418.02 456.162 418.255 447.38 420.135 444.398C421.955 441.51 424.285 434.283 424.285 434.283L439.868 435.852Z" fill="#FE8E9C"/>
<mask id="mask5_124_3197" style="mask-type:luminance" maskUnits="userSpaceOnUse" x="417" y="434" width="28" height="35">
<path d="M439.868 435.852C439.868 435.852 439.868 442.44 440.104 443.301C440.339 444.162 444.412 449.497 444.569 450.438C444.725 451.378 443.941 467.766 442.115 468.081C437.6 468.866 437.129 466.669 436.973 465.572C436.817 464.475 437.364 467.376 433.762 467.061C430.16 466.748 430.004 462.983 430.004 462.983C430.004 462.983 430.396 466.669 426.95 465.18C423.504 463.69 423.504 460.553 423.504 460.553C423.504 460.553 421.701 463.142 419.822 461.573C417.943 460.004 417.708 456.946 417.864 456.554C418.02 456.162 418.255 447.38 420.135 444.398C421.955 441.51 424.285 434.283 424.285 434.283L439.868 435.852Z" fill="white"/>
</mask>
<g mask="url(#mask5_124_3197)">
<path d="M415.937 446.622C415.937 446.622 443.063 440.773 448.488 443.696C448.488 443.696 449.531 433.25 448.279 433.04C447.027 432.831 420.32 430.952 420.32 430.952L415.937 446.622Z" fill="#E57492"/>
</g>
<path d="M687.742 256.15C687.281 253.18 674.874 223.232 670.739 223.894C666.603 224.557 624.29 309.055 617.369 303.617C612.364 299.684 577.749 238.782 577.749 238.782C577.315 236.832 554.754 225.744 547.235 223.894C547.235 223.894 543.691 293.301 543.069 306.484C542.447 319.668 543.763 390.797 545.009 392.183C546.259 393.571 568.088 398.081 587.841 395.999C587.841 395.999 572.593 318.627 572.593 314.463C572.593 313.835 572.72 311.718 572.934 308.57C581.912 322.697 606.942 360.391 619.267 361.769C643.624 364.487 688.199 259.121 687.742 256.15Z" fill="#FC476A"/>
<path d="M514.885 280.875C509.737 261.689 501.443 221.594 501.443 221.594C501.443 221.594 468.264 231.616 467.121 235.34C467.121 235.34 413.878 325.233 413.632 336.787C413.531 341.528 411.017 439.435 413.632 440.482C416.247 441.528 447.631 439.957 449.2 438.385C450.77 436.814 451.294 353.021 452.861 349.356C453.874 346.99 467.306 328.811 476.845 313.364C477.03 315.388 477.133 317.005 477.133 318.102C477.133 329.558 469.41 396.568 469.41 396.568C502.303 405.16 521.179 389.122 521.179 389.122C521.179 389.122 520.033 300.063 514.885 280.875Z" fill="#FC476A"/>
<path d="M476.842 313.366C476.842 313.366 488.479 297.657 487.664 284.609C487.664 284.609 498.018 320.723 476.278 331.209L476.842 313.366Z" fill="#D40221"/>
<path d="M670.737 223.894C670.737 223.894 662.699 234.473 673.812 249.329C684.925 264.188 687.739 256.15 687.739 256.15C687.739 256.15 682.943 228.065 670.737 223.894Z" fill="#D40221"/>
<path d="M572.935 308.57C572.935 308.57 577.68 281.206 577.68 268.642C577.68 268.642 590.813 337.344 609.62 348.02C628.427 358.7 641.023 345.919 641.023 345.919C641.023 345.919 631.77 362.948 619.267 361.766C606.767 360.587 572.935 308.57 572.935 308.57Z" fill="#D40221"/>
<path d="M501.44 221.597C501.44 221.597 491.266 233.654 491.266 244.117C491.266 254.579 507.776 271.112 507.776 271.112C507.776 271.112 502.761 285.133 505.894 292.458C509.028 299.782 518.842 318.187 518.842 318.187C518.842 318.187 518.225 281.996 516.555 275.718C514.885 269.437 501.44 221.597 501.44 221.597Z" fill="#D40221"/>
<path d="M547.235 223.894C547.235 223.894 563.454 249.223 560.985 257.303C558.516 265.383 549.649 272.01 549.649 272.01C549.649 272.01 554.585 279.189 553.344 284.611C552.103 290.033 542.172 318.184 542.172 318.184C542.172 318.184 543.059 269.525 543.649 262.894C544.242 256.264 547.235 223.894 547.235 223.894Z" fill="#D40221"/>
<path d="M685.884 204.955C685.884 204.955 697.264 198.913 698.484 198.897C699.705 198.881 698.887 202.535 698.156 203.352C697.426 204.17 688.676 210.705 688.676 210.705C688.676 210.705 698.754 208.734 702.145 209.168C705.535 209.603 698.987 213.366 697.283 213.581C695.578 213.795 688.93 216.188 688.93 216.188C688.93 216.188 689.798 223.765 689.001 224.358C688.207 224.952 683.068 225.641 683.068 225.641C683.068 225.641 679.156 217.145 679.325 214.304C679.495 211.463 685.884 204.955 685.884 204.955Z" fill="#E57492"/>
<path d="M668.564 238.811C668.564 238.811 674.953 229.504 675.173 228.972C675.392 228.439 675.869 212.515 678.198 209.11C680.527 205.705 693.083 195.065 693.758 196.197C694.432 197.328 694.128 199.644 693.138 200.898C692.148 202.151 684.272 211.474 684.272 211.474C684.272 211.474 682.025 219.615 685.092 222.538C685.092 222.538 697.624 211.649 697.78 212.422C697.937 213.199 700.168 215.306 698.432 218.39C696.693 221.472 689.764 229.062 689.764 229.062C689.764 229.062 691.399 235.618 684.206 239.402L678.261 254.557C678.256 254.557 670.914 247.747 668.564 238.811Z" fill="#FE8E9C"/>
<path opacity="0.52" d="M759.125 248.566H632.67C630.669 248.566 629.049 246.941 629.049 244.941V174.292C629.049 172.288 630.671 170.666 632.67 170.666H759.125C761.126 170.666 762.745 172.291 762.745 174.292V244.938C762.745 246.941 761.123 248.566 759.125 248.566Z" fill="#6880E4"/>
<path d="M675.199 187.385H642.129C641.345 187.385 640.713 186.749 640.713 185.968V181.049C640.713 180.265 641.348 179.631 642.129 179.631H675.199C675.982 179.631 676.615 180.267 676.615 181.049V185.968C676.618 186.752 675.982 187.385 675.199 187.385Z" fill="white"/>
<path d="M675.199 199.819H642.129C641.345 199.819 640.713 199.183 640.713 198.401V193.483C640.713 192.699 641.348 192.065 642.129 192.065H675.199C675.982 192.065 676.615 192.701 676.615 193.483V198.401C676.618 199.186 675.982 199.819 675.199 199.819Z" fill="white"/>
<path d="M658.843 212.253H641.745C641.173 212.253 640.71 211.789 640.71 211.217V205.533C640.71 204.96 641.173 204.496 641.745 204.496H658.843C659.414 204.496 659.877 204.96 659.877 205.533V211.217C659.88 211.789 659.414 212.253 658.843 212.253Z" fill="#607AE8"/>
<path d="M727.116 179.223V196.854H709.508C709.508 206.59 717.392 214.484 727.116 214.484C736.84 214.484 744.724 206.593 744.724 196.854C744.722 187.118 736.84 179.223 727.116 179.223Z" fill="white"/>
<path d="M725.435 177.4C715.712 177.4 707.827 185.292 707.827 195.031H725.435V177.4Z" fill="#607AE8"/>
<path d="M729.244 232.563H723.305V243.279H729.244V232.563Z" fill="white"/>
<path d="M739.767 227.077H733.828V243.279H739.767V227.077Z" fill="white"/>
<path d="M750.29 221.843H744.351V243.279H750.29V221.843Z" fill="#607AE8"/>
<path d="M712.7 225.158H641.515C641.07 225.158 640.71 224.798 640.71 224.353C640.71 223.908 641.07 223.547 641.515 223.547H712.7C713.144 223.547 713.504 223.908 713.504 224.353C713.504 224.798 713.144 225.158 712.7 225.158Z" fill="white"/>
<path d="M712.7 230.225H641.515C641.07 230.225 640.71 229.865 640.71 229.42C640.71 228.974 641.07 228.614 641.515 228.614H712.7C713.144 228.614 713.504 228.974 713.504 229.42C713.504 229.865 713.144 230.225 712.7 230.225Z" fill="white"/>
<path d="M712.7 235.289H641.515C641.07 235.289 640.71 234.929 640.71 234.484C640.71 234.039 641.07 233.678 641.515 233.678H712.7C713.144 233.678 713.504 234.039 713.504 234.484C713.504 234.929 713.144 235.289 712.7 235.289Z" fill="white"/>
<path d="M712.7 240.356H641.515C641.07 240.356 640.71 239.996 640.71 239.551C640.71 239.105 641.07 238.745 641.515 238.745H712.7C713.144 238.745 713.504 239.105 713.504 239.551C713.504 239.996 713.144 240.356 712.7 240.356Z" fill="white"/>
<path d="M672.465 240.356H641.515C641.07 240.356 640.71 239.996 640.71 239.551C640.71 239.105 641.07 238.745 641.515 238.745H672.465C672.91 238.745 673.27 239.105 673.27 239.551C673.27 239.996 672.91 240.356 672.465 240.356Z" fill="#6880E4"/>
<path d="M699.479 235.289H668.529C668.085 235.289 667.725 234.929 667.725 234.484C667.725 234.039 668.085 233.678 668.529 233.678H699.479C699.924 233.678 700.284 234.039 700.284 234.484C700.284 234.929 699.924 235.289 699.479 235.289Z" fill="#6880E4"/>
<path d="M670.506 230.225H652.252C651.808 230.225 651.448 229.865 651.448 229.42C651.448 228.974 651.808 228.614 652.252 228.614H670.506C670.951 228.614 671.311 228.974 671.311 229.42C671.311 229.865 670.951 230.225 670.506 230.225Z" fill="#6880E4"/>
<path d="M702.216 225.158H683.962C683.517 225.158 683.157 224.798 683.157 224.353C683.157 223.908 683.517 223.547 683.962 223.547H702.216C702.661 223.547 703.021 223.908 703.021 224.353C703.021 224.798 702.661 225.158 702.216 225.158Z" fill="#6880E4"/>
<path d="M391.619 112.215C385.633 112.215 380.763 116.993 380.596 122.948L317.759 131.465C315.716 122.394 307.622 115.621 297.949 115.621C286.732 115.621 277.638 124.726 277.638 135.957C277.638 136.966 277.712 137.96 277.855 138.93L233.174 149.631C231.893 147.092 229.265 145.348 226.232 145.348C223.646 145.348 221.354 146.615 219.941 148.56L185.987 134.343C186.246 133.339 186.384 132.287 186.384 131.203C186.384 124.273 180.775 118.658 173.854 118.658C166.933 118.658 161.325 124.273 161.325 131.203C161.325 138.13 166.933 143.748 173.854 143.748C178.422 143.748 182.416 141.299 184.605 137.645L218.562 151.862C218.493 152.276 218.456 152.702 218.456 153.134C218.456 157.432 221.936 160.92 226.232 160.92C230.525 160.92 234.008 157.435 234.008 153.134C234.008 153.126 234.008 153.118 234.008 153.11L278.686 142.41C281.38 150.476 288.987 156.29 297.951 156.29C309.168 156.29 318.262 147.185 318.262 135.954C318.262 135.639 318.254 135.323 318.238 135.011L381.072 126.494C382.454 131.015 386.654 134.303 391.619 134.303C397.712 134.303 402.651 129.358 402.651 123.258C402.648 117.16 397.709 112.215 391.619 112.215Z" fill="#D4DFFF"/>
<path opacity="0.52" d="M485.206 453.509C485.206 457.638 488.548 460.985 492.672 460.985H653.203C657.326 460.985 660.669 457.638 660.669 453.509V376.958H485.208V453.509H485.206Z" fill="#6880E4"/>
<path d="M653.2 364.729H492.669C488.546 364.729 485.203 368.076 485.203 372.204V376.961H660.664V372.204C660.666 368.073 657.324 364.729 653.2 364.729Z" fill="#607AE8"/>
<path d="M614.855 392.342H497.248C497.057 392.342 496.901 392.185 496.901 391.994V387.179C496.901 386.989 497.057 386.832 497.248 386.832H614.855C615.046 386.832 615.202 386.989 615.202 387.179V391.994C615.202 392.185 615.046 392.342 614.855 392.342Z" fill="white"/>
<path d="M551.145 404.444H497.137C497.007 404.444 496.901 404.338 496.901 404.208V399.171C496.901 399.041 497.007 398.935 497.137 398.935H551.145C551.274 398.935 551.38 399.041 551.38 399.171V404.208C551.38 404.341 551.274 404.444 551.145 404.444Z" fill="white"/>
<path d="M631.849 416.549H497.272C497.068 416.549 496.901 416.382 496.901 416.178V411.411C496.901 411.204 497.068 411.04 497.272 411.04H631.849C632.056 411.04 632.22 411.207 632.22 411.411V416.178C632.22 416.382 632.056 416.549 631.849 416.549Z" fill="white"/>
<path d="M573.541 440.757H497.182C497.028 440.757 496.901 440.633 496.901 440.476V435.526C496.901 435.372 497.026 435.245 497.182 435.245H573.541C573.694 435.245 573.821 435.37 573.821 435.526V440.476C573.819 440.633 573.694 440.757 573.541 440.757Z" fill="white"/>
<path d="M533.544 452.862H497.094C496.988 452.862 496.901 452.775 496.901 452.669V447.546C496.901 447.44 496.988 447.353 497.094 447.353H533.544C533.65 447.353 533.737 447.44 533.737 447.546V452.669C533.737 452.775 533.65 452.862 533.544 452.862Z" fill="white"/>
<path d="M647.34 428.655H497.293C497.076 428.655 496.901 428.48 496.901 428.262V423.537C496.901 423.32 497.076 423.145 497.293 423.145H647.34C647.557 423.145 647.732 423.32 647.732 423.537V428.262C647.732 428.477 647.557 428.655 647.34 428.655Z" fill="#FC476A"/>
<path d="M380.606 167.903C382.533 167.903 384.095 166.339 384.095 164.41C384.095 162.481 382.533 160.917 380.606 160.917C378.68 160.917 377.118 162.481 377.118 164.41C377.118 166.339 378.68 167.903 380.606 167.903Z" fill="white"/>
<path d="M396.42 167.903C398.347 167.903 399.908 166.339 399.908 164.41C399.908 162.481 398.347 160.917 396.42 160.917C394.494 160.917 392.932 162.481 392.932 164.41C392.932 166.339 394.494 167.903 396.42 167.903Z" fill="white"/>
<path d="M412.234 167.903C414.161 167.903 415.722 166.339 415.722 164.41C415.722 162.481 414.161 160.917 412.234 160.917C410.308 160.917 408.746 162.481 408.746 164.41C408.746 166.339 410.308 167.903 412.234 167.903Z" fill="white"/>
<path d="M428.048 167.903C429.974 167.903 431.536 166.339 431.536 164.41C431.536 162.481 429.974 160.917 428.048 160.917C426.121 160.917 424.56 162.481 424.56 164.41C424.56 166.339 426.121 167.903 428.048 167.903Z" fill="white"/>
<path d="M380.606 180.471C382.533 180.471 384.095 178.908 384.095 176.979C384.095 175.05 382.533 173.486 380.606 173.486C378.68 173.486 377.118 175.05 377.118 176.979C377.118 178.908 378.68 180.471 380.606 180.471Z" fill="white"/>
<path d="M396.42 180.471C398.347 180.471 399.908 178.908 399.908 176.979C399.908 175.05 398.347 173.486 396.42 173.486C394.494 173.486 392.932 175.05 392.932 176.979C392.932 178.908 394.494 180.471 396.42 180.471Z" fill="white"/>
<path d="M412.234 180.471C414.161 180.471 415.722 178.908 415.722 176.979C415.722 175.05 414.161 173.486 412.234 173.486C410.308 173.486 408.746 175.05 408.746 176.979C408.746 178.908 410.308 180.471 412.234 180.471Z" fill="white"/>
<path d="M428.048 180.471C429.974 180.471 431.536 178.908 431.536 176.979C431.536 175.05 429.974 173.486 428.048 173.486C426.121 173.486 424.56 175.05 424.56 176.979C424.56 178.908 426.121 180.471 428.048 180.471Z" fill="white"/>
<path d="M384.011 190.375C384.453 188.498 383.292 186.617 381.417 186.174C379.543 185.73 377.664 186.893 377.221 188.77C376.778 190.647 377.939 192.529 379.814 192.972C381.689 193.415 383.568 192.253 384.011 190.375Z" fill="white"/>
<path d="M399.872 190.103C400.181 188.199 398.889 186.405 396.988 186.096C395.086 185.787 393.294 187.08 392.986 188.984C392.677 190.888 393.968 192.683 395.87 192.992C397.772 193.301 399.564 192.007 399.872 190.103Z" fill="white"/>
<path d="M415.686 190.103C415.994 188.199 414.703 186.404 412.801 186.095C410.9 185.786 409.108 187.079 408.799 188.984C408.49 190.888 409.782 192.682 411.684 192.991C413.585 193.3 415.377 192.007 415.686 190.103Z" fill="white"/>
<path d="M431.499 190.102C431.808 188.198 430.517 186.404 428.615 186.095C426.713 185.786 424.921 187.079 424.613 188.983C424.304 190.887 425.596 192.681 427.497 192.99C429.399 193.299 431.191 192.006 431.499 190.102Z" fill="white"/>
<path d="M380.606 205.607C382.533 205.607 384.095 204.043 384.095 202.114C384.095 200.185 382.533 198.621 380.606 198.621C378.68 198.621 377.118 200.185 377.118 202.114C377.118 204.043 378.68 205.607 380.606 205.607Z" fill="white"/>
<path d="M396.42 205.607C398.347 205.607 399.908 204.043 399.908 202.114C399.908 200.185 398.347 198.621 396.42 198.621C394.494 198.621 392.932 200.185 392.932 202.114C392.932 204.043 394.494 205.607 396.42 205.607Z" fill="white"/>
<path d="M412.234 205.607C414.161 205.607 415.722 204.043 415.722 202.114C415.722 200.185 414.161 198.621 412.234 198.621C410.308 198.621 408.746 200.185 408.746 202.114C408.746 204.043 410.308 205.607 412.234 205.607Z" fill="white"/>
<path d="M428.048 205.607C429.974 205.607 431.536 204.043 431.536 202.114C431.536 200.185 429.974 198.621 428.048 198.621C426.121 198.621 424.56 200.185 424.56 202.114C424.56 204.043 426.121 205.607 428.048 205.607Z" fill="white"/>
<path d="M380.606 218.173C382.533 218.173 384.095 216.609 384.095 214.68C384.095 212.751 382.533 211.188 380.606 211.188C378.68 211.188 377.118 212.751 377.118 214.68C377.118 216.609 378.68 218.173 380.606 218.173Z" fill="white"/>
<path d="M396.42 218.173C398.347 218.173 399.908 216.609 399.908 214.68C399.908 212.751 398.347 211.188 396.42 211.188C394.494 211.188 392.932 212.751 392.932 214.68C392.932 216.609 394.494 218.173 396.42 218.173Z" fill="white"/>
<path d="M412.234 218.173C414.161 218.173 415.722 216.609 415.722 214.68C415.722 212.751 414.161 211.188 412.234 211.188C410.308 211.188 408.746 212.751 408.746 214.68C408.746 216.609 410.308 218.173 412.234 218.173Z" fill="white"/>
<path d="M428.048 218.173C429.974 218.173 431.536 216.609 431.536 214.68C431.536 212.751 429.974 211.188 428.048 211.188C426.121 211.188 424.56 212.751 424.56 214.68C424.56 216.609 426.121 218.173 428.048 218.173Z" fill="white"/>
<path d="M380.606 230.742C382.533 230.742 384.095 229.178 384.095 227.249C384.095 225.32 382.533 223.757 380.606 223.757C378.68 223.757 377.118 225.32 377.118 227.249C377.118 229.178 378.68 230.742 380.606 230.742Z" fill="white"/>
<path d="M396.42 230.742C398.347 230.742 399.908 229.178 399.908 227.249C399.908 225.32 398.347 223.757 396.42 223.757C394.494 223.757 392.932 225.32 392.932 227.249C392.932 229.178 394.494 230.742 396.42 230.742Z" fill="white"/>
<path d="M412.234 230.742C414.161 230.742 415.722 229.178 415.722 227.249C415.722 225.32 414.161 223.757 412.234 223.757C410.308 223.757 408.746 225.32 408.746 227.249C408.746 229.178 410.308 230.742 412.234 230.742Z" fill="white"/>
<path d="M428.048 230.742C429.974 230.742 431.536 229.178 431.536 227.249C431.536 225.32 429.974 223.757 428.048 223.757C426.121 223.757 424.56 225.32 424.56 227.249C424.56 229.178 426.121 230.742 428.048 230.742Z" fill="white"/>
<path d="M380.606 243.308C382.533 243.308 384.095 241.745 384.095 239.816C384.095 237.887 382.533 236.323 380.606 236.323C378.68 236.323 377.118 237.887 377.118 239.816C377.118 241.745 378.68 243.308 380.606 243.308Z" fill="white"/>
<path d="M396.42 243.308C398.347 243.308 399.908 241.745 399.908 239.816C399.908 237.887 398.347 236.323 396.42 236.323C394.494 236.323 392.932 237.887 392.932 239.816C392.932 241.745 394.494 243.308 396.42 243.308Z" fill="white"/>
<path d="M412.234 243.308C414.161 243.308 415.722 241.745 415.722 239.816C415.722 237.887 414.161 236.323 412.234 236.323C410.308 236.323 408.746 237.887 408.746 239.816C408.746 241.745 410.308 243.308 412.234 243.308Z" fill="white"/>
<path d="M428.048 243.308C429.974 243.308 431.536 241.745 431.536 239.816C431.536 237.887 429.974 236.323 428.048 236.323C426.121 236.323 424.56 237.887 424.56 239.816C424.56 241.745 426.121 243.308 428.048 243.308Z" fill="white"/>
<path d="M231.505 315.537C234.114 315.445 236.155 313.253 236.063 310.641C235.971 308.028 233.782 305.985 231.173 306.077C228.564 306.168 226.523 308.361 226.615 310.973C226.707 313.585 228.896 315.629 231.505 315.537Z" fill="white"/>
<path d="M231.506 336.992C234.115 336.9 236.156 334.708 236.064 332.095C235.972 329.483 233.783 327.44 231.174 327.531C228.565 327.623 226.524 329.815 226.616 332.428C226.707 335.04 228.897 337.083 231.506 336.992Z" fill="white"/>
<path d="M231.507 358.444C234.116 358.352 236.156 356.16 236.065 353.547C235.973 350.935 233.784 348.892 231.175 348.983C228.566 349.075 226.525 351.267 226.617 353.88C226.708 356.492 228.898 358.535 231.507 358.444Z" fill="white"/>
<path d="M231.508 379.898C234.117 379.807 236.157 377.615 236.066 375.002C235.974 372.39 233.785 370.346 231.176 370.438C228.567 370.53 226.526 372.722 226.618 375.334C226.709 377.947 228.899 379.99 231.508 379.898Z" fill="white"/>
<path d="M214.514 315.531C217.122 315.421 219.148 313.215 219.039 310.604C218.929 307.992 216.726 305.964 214.118 306.073C211.51 306.183 209.484 308.389 209.593 311C209.703 313.612 211.906 315.64 214.514 315.531Z" fill="white"/>
<path d="M214.514 336.985C217.123 336.875 219.148 334.669 219.039 332.058C218.93 329.446 216.726 327.418 214.118 327.527C211.51 327.637 209.484 329.843 209.594 332.454C209.703 335.066 211.906 337.094 214.514 336.985Z" fill="white"/>
<path d="M214.515 358.436C217.123 358.326 219.149 356.121 219.039 353.509C218.93 350.897 216.727 348.869 214.118 348.979C211.51 349.088 209.484 351.294 209.594 353.906C209.703 356.517 211.906 358.545 214.515 358.436Z" fill="white"/>
<path d="M214.515 379.89C217.123 379.78 219.149 377.574 219.04 374.963C218.93 372.351 216.727 370.323 214.119 370.433C211.511 370.542 209.485 372.748 209.594 375.36C209.704 377.971 211.907 379.999 214.515 379.89Z" fill="white"/>
<path d="M197.312 315.545C199.922 315.545 202.039 313.426 202.039 310.812C202.039 308.198 199.922 306.079 197.312 306.079C194.701 306.079 192.585 308.198 192.585 310.812C192.585 313.426 194.701 315.545 197.312 315.545Z" fill="white"/>
<path d="M197.312 336.999C199.922 336.999 202.039 334.88 202.039 332.266C202.039 329.652 199.922 327.533 197.312 327.533C194.701 327.533 192.585 329.652 192.585 332.266C192.585 334.88 194.701 336.999 197.312 336.999Z" fill="white"/>
<path d="M197.312 358.451C199.922 358.451 202.039 356.332 202.039 353.718C202.039 351.104 199.922 348.985 197.312 348.985C194.701 348.985 192.585 351.104 192.585 353.718C192.585 356.332 194.701 358.451 197.312 358.451Z" fill="white"/>
<path d="M197.312 379.905C199.922 379.905 202.039 377.786 202.039 375.172C202.039 372.558 199.922 370.439 197.312 370.439C194.701 370.439 192.585 372.558 192.585 375.172C192.585 377.786 194.701 379.905 197.312 379.905Z" fill="white"/>
<path d="M185.026 311.039C185.161 308.429 183.156 306.203 180.549 306.069C177.942 305.934 175.719 307.941 175.585 310.552C175.45 313.162 177.455 315.388 180.062 315.522C182.669 315.657 184.892 313.65 185.026 311.039Z" fill="white"/>
<path d="M185.028 332.492C185.162 329.881 183.158 327.656 180.55 327.521C177.943 327.387 175.721 329.394 175.586 332.004C175.452 334.615 177.456 336.84 180.064 336.975C182.671 337.11 184.893 335.102 185.028 332.492Z" fill="white"/>
<path d="M185.027 353.945C185.161 351.334 183.157 349.109 180.55 348.974C177.942 348.84 175.72 350.847 175.585 353.457C175.451 356.068 177.455 358.293 180.063 358.428C182.67 358.562 184.892 356.555 185.027 353.945Z" fill="white"/>
<path d="M185.028 375.397C185.163 372.787 183.158 370.562 180.551 370.427C177.944 370.292 175.721 372.299 175.587 374.91C175.452 377.52 177.457 379.746 180.064 379.88C182.671 380.015 184.894 378.008 185.028 375.397Z" fill="white"/>
<path d="M163.297 315.545C165.907 315.545 168.024 313.426 168.024 310.812C168.024 308.198 165.907 306.079 163.297 306.079C160.686 306.079 158.57 308.198 158.57 310.812C158.57 313.426 160.686 315.545 163.297 315.545Z" fill="white"/>
<path d="M163.297 336.999C165.907 336.999 168.024 334.88 168.024 332.266C168.024 329.652 165.907 327.533 163.297 327.533C160.686 327.533 158.57 329.652 158.57 332.266C158.57 334.88 160.686 336.999 163.297 336.999Z" fill="white"/>
<path d="M163.297 358.451C165.907 358.451 168.024 356.332 168.024 353.718C168.024 351.104 165.907 348.985 163.297 348.985C160.686 348.985 158.57 351.104 158.57 353.718C158.57 356.332 160.686 358.451 163.297 358.451Z" fill="white"/>
<path d="M163.297 379.905C165.907 379.905 168.024 377.786 168.024 375.172C168.024 372.558 165.907 370.439 163.297 370.439C160.686 370.439 158.57 372.558 158.57 375.172C158.57 377.786 160.686 379.905 163.297 379.905Z" fill="white"/>
<path d="M146.382 315.539C148.992 315.478 151.059 313.311 150.999 310.698C150.939 308.085 148.775 306.016 146.165 306.076C143.555 306.136 141.488 308.303 141.548 310.916C141.608 313.529 143.773 315.599 146.382 315.539Z" fill="white"/>
<path d="M146.381 336.992C148.991 336.932 151.058 334.765 150.998 332.152C150.938 329.539 148.774 327.469 146.164 327.529C143.554 327.589 141.487 329.757 141.547 332.37C141.607 334.983 143.772 337.052 146.381 336.992Z" fill="white"/>
<path d="M146.381 358.443C148.991 358.383 151.058 356.216 150.998 353.603C150.937 350.99 148.773 348.92 146.163 348.98C143.553 349.04 141.486 351.208 141.546 353.821C141.607 356.434 143.771 358.503 146.381 358.443Z" fill="white"/>
<path d="M146.38 379.897C148.99 379.837 151.057 377.67 150.997 375.057C150.937 372.443 148.772 370.374 146.163 370.434C143.553 370.494 141.486 372.661 141.546 375.274C141.606 377.887 143.77 379.957 146.38 379.897Z" fill="white"/>
<path d="M129.376 315.534C131.986 315.475 134.053 313.308 133.994 310.695C133.935 308.082 131.772 306.012 129.162 306.071C126.552 306.13 124.484 308.296 124.543 310.909C124.602 313.522 126.766 315.593 129.376 315.534Z" fill="white"/>
<path d="M129.375 336.987C131.985 336.928 134.053 334.762 133.994 332.149C133.935 329.536 131.771 327.465 129.162 327.524C126.552 327.583 124.484 329.75 124.543 332.363C124.602 334.976 126.765 337.046 129.375 336.987Z" fill="white"/>
<path d="M129.375 358.438C131.985 358.379 134.052 356.213 133.993 353.6C133.934 350.986 131.771 348.916 129.161 348.975C126.551 349.034 124.483 351.2 124.542 353.813C124.601 356.427 126.765 358.497 129.375 358.438Z" fill="white"/>
<path d="M129.374 379.891C131.984 379.832 134.052 377.666 133.993 375.053C133.934 372.44 131.77 370.369 129.161 370.428C126.551 370.488 124.483 372.654 124.542 375.267C124.601 377.88 126.764 379.95 129.374 379.891Z" fill="white"/>
<path d="M336.889 404.971C336.889 404.971 347.476 423.731 350.083 452.208C352.69 480.685 345.859 496.407 345.859 496.407H251.497C251.497 496.407 256.576 417.607 265.747 400.175L336.889 404.971Z" fill="#1B3D9E"/>
<path d="M272.003 287.16C272.003 287.16 244.234 330.297 248.223 332.15C252.212 334.002 266.324 338.396 266.324 338.396L272.003 287.16Z" fill="#F9C438"/>
<mask id="mask6_124_3197" style="mask-type:luminance" maskUnits="userSpaceOnUse" x="247" y="287" width="26" height="52">
<path d="M272.003 287.16C272.003 287.16 244.234 330.297 248.223 332.15C252.212 334.002 266.324 338.396 266.324 338.396L272.003 287.16Z" fill="white"/>
</mask>
<g mask="url(#mask6_124_3197)">
<path d="M247.831 323.1C249.059 323.341 273.758 330.636 274.237 332.149C274.716 333.663 271.119 345.429 269.682 344.708C268.242 343.987 244.266 336.784 244.266 334.145C244.263 331.503 247.831 323.1 247.831 323.1Z" fill="white"/>
</g>
<mask id="mask7_124_3197" style="mask-type:luminance" maskUnits="userSpaceOnUse" x="247" y="287" width="26" height="52">
<path d="M272.003 287.16C272.003 287.16 244.234 330.297 248.223 332.15C252.212 334.002 266.324 338.396 266.324 338.396L272.003 287.16Z" fill="white"/>
</mask>
<g mask="url(#mask7_124_3197)">
<path opacity="0.36" d="M258.407 339.869C258.407 339.869 265.858 296.846 270.701 289.715C275.547 282.581 270.426 342.993 270.426 342.993L258.407 339.869Z" fill="#F7974D"/>
</g>
<path d="M345.329 270.831C334.785 262.754 328.091 260.398 328.091 260.398L301.881 267.254C301.881 267.254 281.581 272.336 272.001 287.163C262.42 301.99 263.208 381.463 261.141 404.19C259.749 419.472 333.557 416.271 340.525 412.784C344.712 410.688 349.273 380.981 352.719 353.156L367.026 352.401C367.029 352.398 376.711 291.35 345.329 270.831Z" fill="#F9C438"/>
<mask id="mask8_124_3197" style="mask-type:luminance" maskUnits="userSpaceOnUse" x="261" y="260" width="108" height="156">
<path d="M345.329 270.831C334.785 262.754 328.091 260.398 328.091 260.398L301.881 267.254C301.881 267.254 281.581 272.336 272.001 287.163C262.42 301.99 263.208 381.463 261.141 404.19C259.749 419.472 333.557 416.271 340.525 412.784C344.712 410.688 349.273 380.981 352.719 353.156L367.026 352.401C367.029 352.398 376.711 291.35 345.329 270.831Z" fill="white"/>
</mask>
<g mask="url(#mask8_124_3197)">
<path d="M369.461 342.991C369.461 342.991 359.015 341.597 351.808 342.991C344.604 344.385 323.349 344.925 323.349 344.925C323.349 344.925 320.646 354.844 323.529 355.745C326.411 356.646 350.657 355.578 352.404 355.573C354.151 355.565 368.199 357.189 369.282 355.565C370.364 353.943 369.461 342.991 369.461 342.991Z" fill="white"/>
</g>
<path d="M308.691 186.906C305.219 187.346 301.715 187.793 298.412 188.954C295.109 190.115 291.978 192.063 290.011 194.962C287.148 199.178 287.118 204.724 284.863 209.296C282.071 214.961 276.174 218.557 273.173 224.114C271.498 227.212 270.818 230.882 271.5 234.338C272.432 239.06 275.804 243.025 279.837 245.646C283.871 248.264 288.542 249.703 293.19 250.932C302.504 253.399 312.005 255.164 321.583 256.206C325.127 248.232 327.89 239.932 330.23 231.524C333.118 221.141 335.015 209.844 331.222 199.756C330.217 197.076 328.798 194.511 326.773 192.492C322.375 188.109 314.85 186.127 308.691 186.906Z" fill="#1B3D9E"/>
<mask id="mask9_124_3197" style="mask-type:luminance" maskUnits="userSpaceOnUse" x="271" y="186" width="63" height="71">
<path d="M308.691 186.906C305.219 187.346 301.715 187.793 298.412 188.954C295.109 190.115 291.978 192.063 290.011 194.962C287.148 199.178 287.118 204.724 284.863 209.296C282.071 214.961 276.174 218.557 273.173 224.114C271.498 227.212 270.818 230.882 271.5 234.338C272.432 239.06 275.804 243.025 279.837 245.646C283.871 248.264 288.542 249.703 293.19 250.932C302.504 253.399 312.005 255.164 321.583 256.206C325.127 248.232 327.89 239.932 330.23 231.524C333.118 221.141 335.015 209.844 331.222 199.756C330.217 197.076 328.798 194.511 326.773 192.492C322.375 188.109 314.85 186.127 308.691 186.906Z" fill="white"/>
</mask>
<g mask="url(#mask9_124_3197)">
<path opacity="0.24" d="M290.951 200.49C290.951 200.49 270.937 235.419 283.405 245.063C295.874 254.706 308.713 243.279 308.713 243.279L310.6 199.212L290.951 200.49Z" fill="#1C056D"/>
</g>
<path d="M333.427 201.369C330.913 196.631 319.495 189.54 309.099 189.222C303.239 189.042 297.872 192.508 295.432 197.845C289.905 209.926 282.635 238.318 291.049 243.033C294.794 245.131 298.1 244.747 301.519 243.899C300.749 251.82 297.769 271.268 299.134 273.362C304.221 281.145 323.77 270.516 328.303 267.217C332.837 263.915 320.67 234.142 320.67 234.142C323.963 229.385 336.924 207.96 333.427 201.369Z" fill="#FE8E9C"/>
<mask id="mask10_124_3197" style="mask-type:luminance" maskUnits="userSpaceOnUse" x="287" y="189" width="48" height="88">
<path d="M333.427 201.369C330.913 196.631 319.495 189.54 309.099 189.222C303.239 189.042 297.872 192.508 295.432 197.845C289.905 209.926 282.635 238.318 291.049 243.033C294.794 245.131 298.1 244.747 301.519 243.899C300.749 251.82 297.769 271.268 299.134 273.362C304.221 281.145 323.77 270.516 328.303 267.217C332.837 263.915 320.67 234.142 320.67 234.142C323.963 229.385 336.924 207.96 333.427 201.369Z" fill="white"/>
</mask>
<g mask="url(#mask10_124_3197)">
<path d="M299.949 244.564C299.949 244.564 306.775 241.808 312.733 238.08C312.733 238.08 307.593 254.589 297.29 254.165L299.949 244.564Z" fill="#E57492"/>
</g>
<mask id="mask11_124_3197" style="mask-type:luminance" maskUnits="userSpaceOnUse" x="287" y="189" width="48" height="88">
<path d="M333.427 201.369C330.913 196.631 319.495 189.54 309.099 189.222C303.239 189.042 297.872 192.508 295.432 197.845C289.905 209.926 282.635 238.318 291.049 243.033C294.794 245.131 298.1 244.747 301.519 243.899C300.749 251.82 297.769 271.268 299.134 273.362C304.221 281.145 323.77 270.516 328.303 267.217C332.837 263.915 320.67 234.142 320.67 234.142C323.963 229.385 336.924 207.96 333.427 201.369Z" fill="white"/>
</mask>
<g mask="url(#mask11_124_3197)">
<path d="M288.185 208.469C288.73 208.344 292.968 209.219 300.699 202.851C300.699 202.851 303.565 206.969 313.164 201.104L314.66 193.115L294.839 190.494L288.185 208.469Z" fill="#E57492"/>
</g>
<path d="M303.036 209.515C303.036 209.515 289.421 217.01 290.408 218.984C291.395 220.958 301.064 218.242 302.048 218.735C303.036 219.228 300.087 221.56 298.759 221.47C297.43 221.38 288.185 221.618 288.185 219.135C288.185 216.652 292.52 213.114 303.036 209.515Z" fill="#E57492"/>
<path d="M304.539 199.938C304.287 199.92 304.028 199.893 303.808 199.771C303.226 199.451 303.152 198.632 303.319 197.988C303.486 197.344 303.816 196.724 303.782 196.061C300.259 200.67 294.37 202.84 288.64 203.701C288.347 203.746 288 203.768 287.804 203.545C287.719 203.447 287.68 203.32 287.645 203.198C285.912 197.174 287.362 190.329 291.39 185.53C293.367 183.177 295.884 181.327 298.552 179.804C306.005 175.545 315.242 173.764 323.298 176.727C325.897 177.681 328.414 179.194 329.878 181.547C330.418 182.417 330.807 183.41 330.789 184.433C330.759 186.042 329.738 187.473 328.534 188.535C327.051 189.839 325.262 190.732 323.42 191.405C322.497 191.742 321.554 191.999 320.617 192.296C320.035 192.481 319.543 192.73 319.13 193.189C317.979 194.471 316.917 195.72 315.509 196.742C314.019 197.824 312.355 198.661 310.602 199.215C308.85 199.769 307.008 200.036 305.171 199.975C304.957 199.965 304.748 199.954 304.539 199.938Z" fill="#1B3D9E"/>
<path d="M290.424 226.629C290.424 226.629 296.739 230.14 304.221 226.629C304.221 226.629 299.965 232.467 295.413 232.17C289.411 231.781 290.424 226.629 290.424 226.629Z" fill="white"/>
<path d="M313.659 189.76C313.659 189.76 307.027 199.946 311.417 209.515C315.808 219.085 313.659 251.248 313.659 251.248C313.659 251.248 330.77 251.648 338.154 245.654C345.536 239.659 338.154 230.67 338.154 230.67C338.154 230.67 343.342 240.86 343.342 243.857C343.342 246.854 358.904 238.901 358.306 225.596C357.708 212.29 349.132 182.766 329.875 181.547C310.618 180.326 313.659 189.76 313.659 189.76Z" fill="#1B3D9E"/>
<path d="M303.472 275.991C303.472 275.991 303.612 291.597 313.14 290.404C322.668 289.212 334.356 271.942 332.096 262.237L328.091 260.395C328.091 260.395 319.106 274.907 303.472 275.991Z" fill="white"/>
<path d="M303.472 275.991C303.472 275.991 294.174 287.725 290.154 284.158C286.134 280.591 291.435 271.207 291.435 271.207L298.888 267.723C298.891 267.723 298.526 274.841 303.472 275.991Z" fill="white"/>
<path d="M352.721 353.153C352.721 353.153 325.109 356.159 324.196 353.153C323.282 350.148 329.219 308.851 329.219 308.851C329.219 308.851 315.504 355.933 317.928 361.599C320.35 367.265 350.794 367.943 350.794 367.943L352.721 353.153Z" fill="#F7974D"/>
<path d="M298.676 297.821C298.512 299.745 297.451 301.227 296.305 301.129C295.159 301.031 294.365 299.39 294.529 297.466C294.693 295.542 295.754 294.061 296.9 294.159C298.046 294.257 298.84 295.895 298.676 297.821Z" fill="white"/>
<path d="M294.651 320.495C294.487 322.419 293.425 323.9 292.279 323.802C291.133 323.704 290.339 322.064 290.503 320.14C290.668 318.216 291.729 316.734 292.875 316.833C294.021 316.931 294.815 318.571 294.651 320.495Z" fill="white"/>
<path d="M290.625 343.168C290.461 345.092 289.4 346.573 288.254 346.475C287.108 346.377 286.314 344.737 286.478 342.813C286.642 340.889 287.703 339.408 288.849 339.506C289.995 339.604 290.789 341.244 290.625 343.168Z" fill="white"/>
<path d="M286.6 365.844C286.436 367.768 285.374 369.25 284.228 369.151C283.082 369.053 282.288 367.413 282.452 365.489C282.616 363.565 283.678 362.084 284.824 362.182C285.97 362.28 286.764 363.92 286.6 365.844Z" fill="white"/>
<path d="M282.574 388.518C282.41 390.442 281.349 391.923 280.203 391.825C279.057 391.727 278.263 390.086 278.427 388.163C278.591 386.239 279.652 384.757 280.798 384.855C281.944 384.953 282.741 386.594 282.574 388.518Z" fill="white"/>
<path d="M265.633 469.189H190.96C189.113 469.189 187.027 467.692 186.297 465.842L166.706 416.202C165.975 414.352 166.881 412.855 168.728 412.855H243.404C245.251 412.855 247.337 414.352 248.067 416.202L267.658 465.842C268.386 467.692 267.48 469.189 265.633 469.189Z" fill="#6880E4"/>
<mask id="mask12_124_3197" style="mask-type:luminance" maskUnits="userSpaceOnUse" x="166" y="412" width="102" height="58">
<path d="M265.633 469.189H190.96C189.113 469.189 187.027 467.692 186.297 465.842L166.706 416.202C165.975 414.352 166.881 412.855 168.728 412.855H243.404C245.251 412.855 247.337 414.352 248.067 416.202L267.658 465.842C268.386 467.692 267.48 469.189 265.633 469.189Z" fill="white"/>
</mask>
<g mask="url(#mask12_124_3197)">
<path opacity="0.3" d="M251.497 420.813C251.497 420.813 208.256 459.228 182.771 463.25L183.732 470.644H273.168L273.891 466.793L251.497 420.813Z" fill="#1B3D9E"/>
</g>
<path d="M173.817 418.977C173.026 419.769 171.7 419.724 170.853 418.876C170.006 418.028 169.961 416.7 170.753 415.908C171.544 415.116 172.87 415.161 173.717 416.009C174.564 416.857 174.609 418.187 173.817 418.977Z" fill="#1B3D9E"/>
<path d="M252.606 331.9C252.606 331.9 247.831 346.717 244.579 354.637C243.496 357.274 182.395 304.022 182.395 304.022L173.635 312.781C173.635 312.781 229.654 392.67 245.833 392.668C256.806 392.668 262.338 384.561 262.338 384.561L266.324 338.396L252.606 331.9Z" fill="#FE8E9C"/>
<mask id="mask13_124_3197" style="mask-type:luminance" maskUnits="userSpaceOnUse" x="173" y="304" width="94" height="89">
<path d="M252.606 331.9C252.606 331.9 247.831 346.717 244.579 354.637C243.496 357.274 182.395 304.022 182.395 304.022L173.635 312.781C173.635 312.781 229.654 392.67 245.833 392.668C256.806 392.668 262.338 384.561 262.338 384.561L266.324 338.396L252.606 331.9Z" fill="white"/>
</mask>
<g mask="url(#mask13_124_3197)">
<path d="M248.824 336.503C248.824 336.503 254.549 362.036 265.996 367.943L272.578 335.645L251.018 329.818L248.824 336.503Z" fill="#E57492"/>
</g>
<path d="M168.603 286.405C168.603 286.405 159.412 281.717 158.221 281.378C157.03 281.036 146.647 280.101 146.731 280.525C146.816 280.952 146.39 283.506 148.518 284.19C150.646 284.871 156.519 285.639 156.858 285.894C156.903 285.928 157.088 286.071 157.376 286.294C155.701 286.238 145.89 287.171 146.049 287.563C146.21 287.966 146.258 290.558 148.473 290.839C150.688 291.12 156.603 290.799 156.985 290.99C157.366 291.178 166.764 296.104 169.204 295.739C171.647 295.37 175.371 292.339 175.371 292.339L168.603 286.405Z" fill="#E57492"/>
<path d="M182.395 304.022C182.395 304.022 177.454 287.685 175.429 284.834C173.404 281.982 151.699 271.552 151.699 271.552C151.699 271.552 150.058 274.234 151.937 275.993C152.827 276.823 156.619 279.682 160.378 282.47C164.578 285.586 169.194 290.46 169.194 290.46C169.194 290.46 149.995 290.001 150.246 291.006C150.498 292.01 151.876 295.15 154.761 295.778C157.646 296.406 163.665 296.155 165.171 299.043C166.677 301.932 165.544 307.181 173.635 312.781C173.637 312.778 182.186 306.993 182.395 304.022Z" fill="#FE8E9C"/>
<path d="M363.374 352.592C363.374 352.592 360.45 388.698 357.358 395.537C355.154 400.419 269.746 445.917 269.746 445.917L261.125 433.867C261.125 433.867 326.278 383.506 326.278 382.391C326.278 381.275 327.877 354.338 327.877 354.338L363.374 352.592Z" fill="#FE8E9C"/>
<mask id="mask14_124_3197" style="mask-type:luminance" maskUnits="userSpaceOnUse" x="261" y="352" width="103" height="94">
<path d="M363.374 352.592C363.374 352.592 360.45 388.698 357.358 395.537C355.154 400.419 269.746 445.917 269.746 445.917L261.125 433.867C261.125 433.867 326.278 383.506 326.278 382.391C326.278 381.275 327.877 354.338 327.877 354.338L363.374 352.592Z" fill="white"/>
</mask>
<g mask="url(#mask14_124_3197)">
<path d="M325.72 365.383C325.72 365.383 357.08 370.704 365.777 367.943L367.54 348.344H324.288L325.72 365.383Z" fill="#E57492"/>
</g>
<path d="M264.235 431.461C264.235 431.461 258.024 431.358 255.306 431.803C252.587 432.248 242.34 439.13 242.525 439.315C242.71 439.501 244.425 441.642 246.082 441.152L256.309 437.535C256.309 437.535 247.36 444.226 246.503 444.385C245.645 444.547 231.486 446.802 231.486 447.499C231.486 448.196 231.7 451.042 235.4 450.721C239.1 450.398 248.432 449.219 249.827 448.895C251.222 448.572 230.549 451.927 230.647 452.319C230.745 452.711 231.134 455.38 232.677 455.438C234.222 455.496 249.904 454.521 250.936 454.121C251.965 453.721 237.544 457.33 237.713 457.561C237.885 457.789 237.369 459.508 239.775 459.625C242.178 459.739 253.339 457.905 253.913 457.791C254.485 457.677 259.686 453.845 259.686 453.845C259.686 453.845 254.257 459.291 253.284 459.63C252.31 459.97 246.304 461.451 246.765 462.437C247.114 463.187 249.2 463.423 251.5 463.136C253.8 462.85 257.097 462.217 259.387 460.439C261.676 458.663 271.728 444.865 271.728 444.865L264.235 431.461Z" fill="#FE8E9C"/>
<path opacity="0.52" d="M224.919 294.379H67.1778C63.8933 294.379 61.2307 291.713 61.2307 288.425V196.226C61.2307 192.937 63.8933 190.271 67.1778 190.271H224.916C228.201 190.271 230.864 192.937 230.864 196.226V288.425C230.864 291.713 228.201 294.379 224.919 294.379Z" fill="#6880E4"/>
<path d="M112.539 205.519H74.6229C73.6436 205.519 72.8523 204.724 72.8523 203.746V201.274C72.8523 200.293 73.6463 199.501 74.6229 199.501H112.539C113.518 199.501 114.31 200.296 114.31 201.274V203.746C114.312 204.724 113.518 205.519 112.539 205.519Z" fill="#607AE8"/>
<path d="M98.4006 213.84H74.2815C73.4928 213.84 72.8523 213.199 72.8523 212.409V209.25C72.8523 208.461 73.4928 207.819 74.2815 207.819H98.4006C99.1893 207.819 99.8298 208.461 99.8298 209.25V212.409C99.8298 213.199 99.1893 213.84 98.4006 213.84Z" fill="white"/>
<path opacity="0.46" d="M74.959 286.75L98.1411 261.074L103.493 268.695L117.216 255.84L125.606 261.074L143.793 230.843L158.419 256.911L169.474 236.198L182.313 258.795L191.23 252.986L202.999 265.123L216.91 286.75H74.959Z" fill="#6880E4"/>
<path d="M217.18 286.882H74.9167C73.7045 286.882 72.72 285.896 72.72 284.683V222.402C72.72 221.189 73.7045 220.203 74.9167 220.203H217.18C218.393 220.203 219.377 221.189 219.377 222.402V284.685C219.377 285.896 218.393 286.882 217.18 286.882ZM74.9167 220.468C73.8527 220.468 72.9846 221.334 72.9846 222.402V284.685C72.9846 285.751 73.8501 286.62 74.9167 286.62H217.18C218.244 286.62 219.112 285.753 219.112 284.685V222.402C219.112 221.337 218.247 220.468 217.18 220.468H74.9167Z" fill="#6880E4"/>
<path d="M219.245 230.975H72.8523V231.24H219.245V230.975Z" fill="#6880E4"/>
<path d="M219.245 242.193H72.8523V242.458H219.245V242.193Z" fill="#6880E4"/>
<path d="M219.245 253.41H72.8523V253.675H219.245V253.41Z" fill="#6880E4"/>
<path d="M219.245 264.628H72.8523V264.893H219.245V264.628Z" fill="#6880E4"/>
<path d="M219.245 275.845H72.8523V276.11H219.245V275.845Z" fill="#6880E4"/>
<path d="M159.92 216.013H157.066C156.709 216.013 156.418 215.722 156.418 215.364V209.749C156.418 209.391 156.709 209.099 157.066 209.099H159.92C160.277 209.099 160.568 209.391 160.568 209.749V215.364C160.568 215.724 160.279 216.013 159.92 216.013Z" fill="#607AE8"/>
<path d="M167.034 216.013H164.493C164.048 216.013 163.688 215.653 163.688 215.208V206.171C163.688 205.726 164.048 205.366 164.493 205.366H167.034C167.479 205.366 167.838 205.726 167.838 206.171V215.208C167.838 215.653 167.479 216.013 167.034 216.013Z" fill="white"/>
<path d="M174.204 216.013H171.861C171.361 216.013 170.956 215.608 170.956 215.107V203.492C170.956 202.991 171.361 202.586 171.861 202.586H174.204C174.704 202.586 175.109 202.991 175.109 203.492V215.11C175.109 215.61 174.704 216.013 174.204 216.013Z" fill="white"/>
<path d="M210.778 215.812H207.745C207.435 215.812 207.186 215.563 207.186 215.253V211.249C207.186 210.939 207.435 210.689 207.745 210.689H210.778C211.087 210.689 211.336 210.939 211.336 211.249V215.253C211.336 215.563 211.085 215.812 210.778 215.812Z" fill="#607AE8"/>
<path d="M218.445 215.812H215.889C215.449 215.812 215.092 215.454 215.092 215.014V206.163C215.092 205.723 215.449 205.366 215.889 205.366H218.445C218.885 205.366 219.242 205.723 219.242 206.163V215.014C219.245 215.454 218.887 215.812 218.445 215.812Z" fill="white"/>
<path d="M181.347 216.013H179.256C178.687 216.013 178.227 215.552 178.227 214.982V199.594C178.227 199.024 178.687 198.563 179.256 198.563H181.347C181.916 198.563 182.377 199.024 182.377 199.594V214.982C182.379 215.552 181.916 216.013 181.347 216.013Z" fill="white"/>
<path d="M189.147 216.013H186.002C185.724 216.013 185.5 215.788 185.5 215.51V212.362C185.5 212.083 185.724 211.858 186.002 211.858H189.147C189.425 211.858 189.649 212.083 189.649 212.362V215.51C189.649 215.788 189.425 216.013 189.147 216.013Z" fill="#607AE8"/>
<path d="M195.888 216.013H193.797C193.228 216.013 192.767 215.552 192.767 214.982V199.594C192.767 199.024 193.228 198.563 193.797 198.563H195.888C196.457 198.563 196.917 199.024 196.917 199.594V214.982C196.917 215.552 196.457 216.013 195.888 216.013Z" fill="white"/>
<path d="M203.285 216.013H200.943C200.443 216.013 200.038 215.608 200.038 215.107V203.492C200.038 202.991 200.443 202.586 200.943 202.586H203.285C203.785 202.586 204.19 202.991 204.19 203.492V215.11C204.188 215.61 203.783 216.013 203.285 216.013Z" fill="white"/>
<path d="M736.062 497.467H66.3468C65.7618 497.467 65.2881 496.993 65.2881 496.407C65.2881 495.821 65.7618 495.347 66.3468 495.347H736.059C736.644 495.347 737.118 495.821 737.118 496.407C737.118 496.993 736.644 497.467 736.062 497.467Z" fill="#1C056D"/>
</svg>
