<svg width="800" height="800" viewBox="0 0 800 800" fill="none" xmlns="http://www.w3.org/2000/svg">
<path fill-rule="evenodd" clip-rule="evenodd" d="M383.522 169.846C709.036 161.333 740.113 400.659 671.773 402.603C539.707 406.36 531.017 478.911 443.988 559.258C303.421 689.041 138.008 696.45 147.876 358.118C152.025 216.121 251.442 173.3 383.522 169.846Z" fill="#06C69A"/>
<path fill-rule="evenodd" clip-rule="evenodd" d="M609.425 434.263C703.484 413.259 721.582 455.538 701.841 459.977C663.691 468.554 668.889 481.811 642.306 503.017C603.51 533.965 558.75 521.848 548.25 483.051C541.256 457.204 571.26 442.785 609.425 434.263Z" fill="#F5F2FD"/>
<path d="M576.953 529.161C570.74 527.364 565.172 525.613 559.392 523.201C551.871 520.246 545.255 515.311 537.91 512.005C530.914 508.644 523.278 507.295 515.993 504.774C512 503.568 507.689 501.371 503.235 500.065C504.824 499.615 506.48 499.13 508.118 498.698C509.136 498.463 510.173 498.175 511.142 497.923C512.592 498.649 514.077 499.3 515.593 499.874C518.936 501.207 522.363 502.452 525.869 503.313C533.938 505.165 542.152 506.596 550.514 506.963C559.33 507.133 567.696 504.621 576.098 504.237C578.886 504.143 581.744 504.486 584.362 504.569C584.81 504.548 585.385 504.159 585.334 503.671C584.956 503.011 584.034 502.809 583.417 502.361C577.458 498.712 570.922 496.097 563.904 495.667C555.104 494.973 546.409 496.843 538.112 494.853C535.917 494.445 533.752 493.891 531.63 493.198C534.724 491.741 537.837 490.232 540.839 488.567C545.899 485.733 550.568 482.118 555.361 478.78C562.327 473.784 569.706 469.343 576.053 463.428C576.989 462.635 579.263 460.366 576.752 460.613C573.507 461.548 570.319 462.796 567.03 463.539C547.56 466.326 529.589 475.57 515.997 489.787C514.079 491.827 512.24 493.953 510.71 496.304C510.601 496.436 510.513 496.584 510.448 496.742C507.288 497.588 504.21 498.522 501.064 499.49C500.947 499.508 500.88 499.544 500.764 499.562C499.592 499.921 498.421 500.279 497.298 500.655C498.134 499.357 499.023 497.902 499.726 497.146C501.912 494.493 504.006 493.219 506.544 490.982C512.714 485.417 518.129 478.533 521.104 470.57C523.857 463.41 526.879 457.227 531.233 450.857C533.31 444.698 509.433 468.294 508.29 469.368C502.885 474.316 499.38 481.097 496.521 487.925C495.169 491.513 494.084 495.605 492.453 498.567C491.742 500.143 490.624 501.461 489.784 502.934C489.781 503.016 489.789 503.098 489.81 503.178C487.314 504.018 484.831 504.982 482.366 505.892C482.299 505.927 482.249 505.91 482.182 505.946C481.042 506.374 479.902 506.802 478.792 507.3C478.846 507.143 478.852 506.968 478.906 506.811C479.129 505.927 479.461 505.074 479.895 504.273C484.935 496.083 491.355 488.841 496.8 480.909C499.678 476.733 502.544 472.434 504.412 467.673C505.777 464.207 506.442 459.735 507.89 456.827C509.679 453.567 511.827 450.548 514.005 447.599C514.303 447.055 516.442 444.857 516.995 443.579C517.273 441.5 514.39 443.619 513.569 443.921C506.109 448.276 499.51 454.28 494.207 461.321C490.678 465.626 487.261 470.086 484.885 475.2C480.525 483.977 478.803 494.844 474.79 503.095C473.593 505.492 472.129 507.746 470.425 509.814C470.065 510.218 470.171 510.549 470.467 510.651C467.291 512.021 464.197 513.477 461.084 514.986C461.876 510.146 464.812 505.166 467.541 500.469C470.757 494.998 473.566 489.269 476.326 483.524C478.155 479.513 479.855 475.399 480.748 471.064C481.912 464.355 482.063 457.706 483.611 451.482C484.124 449.469 484.787 447.498 485.596 445.586C485.905 444.693 486.546 443.798 486.326 442.84C486.108 442.354 485.44 442.534 485.066 442.816C484.143 443.731 483.541 444.992 482.698 445.994C480.043 449.366 476.498 454.194 473.791 458.194C468.231 466.615 463.165 475.677 460.807 485.676C459.057 493.124 459.074 501.358 457.603 508.315C457.12 511.145 456.668 514.045 455.329 516.638C455.293 516.743 455.171 516.936 455.189 516.884C455.08 517.199 454.738 517.551 454.844 517.881C454.856 517.907 454.874 517.931 454.896 517.949C454.919 517.967 454.945 517.979 454.974 517.985C450.814 520.131 446.746 522.485 442.71 524.909C442.762 524.281 442.667 523.601 442.836 522.954C442.94 521.697 443.514 519.721 444.046 518.024C445.463 513.929 447.613 510.265 449.219 505.942C452.693 497.975 452.925 489.179 453.712 480.694C454.476 471.318 453.711 462.06 453.627 452.744C453.664 451.174 453.783 449.606 453.985 448.048L454.039 447.89C454.394 446.315 454.669 444.723 454.863 443.12C454.983 442.456 454.195 442.184 453.736 442.554C453.062 442.909 453.152 443.763 452.984 444.41C452.732 445.616 452.596 446.803 452.461 447.99C451.441 452.692 449.862 457.73 448.331 462.313C445.438 469.718 441.462 476.747 439.584 484.562C437.928 491.102 438.417 497.971 439.414 504.488C440.057 507.884 440.844 510.39 440.604 513.951C440.602 517.301 440.365 520.217 439.581 523.12C439.212 524.344 438.763 525.482 438.296 526.672C438.272 526.745 438.265 526.823 438.277 526.899C438.289 526.975 438.32 527.046 438.366 527.108C438.419 527.156 438.481 527.192 438.549 527.216C438.617 527.239 438.688 527.249 438.76 527.244C435.913 528.957 433.085 530.702 430.278 532.479C430.896 531.496 431.421 530.458 431.847 529.378C433.718 525.088 434.29 520.407 434.894 515.796C435.682 510.015 435.843 504.134 434.721 498.456C433.886 493.7 432.248 489.195 431.162 484.528C429.97 479.054 429.372 473.467 429.377 467.864C429.389 467.56 429.421 467.256 429.471 466.956C429.645 466.134 429.801 465.365 429.907 464.579C428.667 463.386 428.127 464.786 427.906 467.178C426.791 472.788 424.704 479.296 424.144 485.215C423.518 493.874 424.514 502.624 426.368 510.966C427.368 515.72 429.675 520.046 429.753 524.598C429.804 527.32 429.077 529.419 428.213 532.236C428.136 532.62 427.757 533.077 428.06 533.476L428.158 533.51C428.113 533.615 428.093 533.728 428.098 533.842C415.295 542.166 403.038 551.62 392.191 562.738C390.853 564.214 389.448 565.726 388.191 567.29C387.924 567.903 388.662 568.158 389.134 567.91C390.736 566.465 392.004 564.553 393.575 563.04C405.823 550.585 419.715 540.227 434.634 531.048C439.389 534.986 442.96 540.277 447.545 544.391C456.448 552.116 468.37 554.302 478.805 559.03C479.857 559.335 481.533 560.385 482.288 559.001C482.318 558.909 482.321 558.81 482.294 558.716C482.267 558.623 482.213 558.54 482.138 558.479C481.472 558.013 480.752 557.705 480.05 557.345C475.899 555.321 472.827 552.729 469.481 549.338C468.307 548.109 467.116 546.932 465.906 545.808C467.614 546.928 469.406 547.96 471.199 548.992C476.733 552.435 483.612 554.698 489.265 556.36C494.902 558.514 500.104 561.668 504.62 565.671C505.661 566.325 506.62 567.539 507.843 567.668C509.781 567.163 508.116 565.764 507.393 564.985C501.35 559.191 496.132 552.447 489.503 547.391C485.656 544.649 482.016 542.742 478.574 539.788C474.843 537.028 471.668 533.46 467.73 530.98C462.666 527.935 456.698 527.339 451.76 525.042C450.338 524.374 449.283 523.597 448.229 522.821C451.941 520.696 455.616 518.677 459.422 516.761L462.087 519.094C466.933 523.886 472.555 527.713 478.371 531.136C482.899 533.82 487.926 535.383 492.211 538.453C501.586 544.813 509.256 555.461 519.227 561.85C521.747 563.487 524.147 565.316 526.704 566.848C527.75 567.328 529.224 568.484 530.238 567.306C530.645 566.448 529.549 565.951 529.117 565.449C527.666 564.065 526.167 562.665 524.887 561.105C518.317 553.012 512.382 544.199 504.271 537.689C495.684 530.485 486.651 523.774 476.566 518.99C472.84 517.172 469.076 514.988 464.818 514.866C464.331 514.869 463.845 514.838 463.362 514.774C466.947 513.017 470.643 511.416 474.419 509.901C475.578 509.421 476.718 508.992 477.877 508.511C480.019 510.604 481.355 513.594 483.888 515.353C492.304 521.616 501.628 526.371 511.407 529.813C526.774 535.424 541.878 542.591 558.403 543.901C559.76 543.96 561.17 544.506 562.525 544.093C564.436 542.873 561.054 542.291 560.303 541.913C557.515 540.89 555.541 540.383 552.66 539.151C549.494 537.467 546.468 535.539 543.375 533.645C535.284 528.671 527.217 523.469 518.403 519.949C509.19 516.466 500.23 514.482 491.491 510.107C488.875 508.907 486.343 507.62 483.867 506.175C488.312 504.48 492.721 502.891 497.241 501.457C497.391 501.979 498.259 502.338 498.611 502.754C501.763 505.432 505.647 506.952 509.201 508.947C514.771 512.285 520.025 516.219 525.893 519.014C535.046 522.828 543.92 526.016 553.79 528.08C559.983 529.459 566.292 530.82 572.711 530.748C573.775 531.177 578.645 530.805 576.953 529.161ZM445.077 525.081C445.108 525.151 445.157 525.168 445.188 525.238C445.219 525.307 446.079 526.486 445.776 526.088C447.314 528.971 449.427 531.466 451.577 533.855C451.96 534.341 452.361 534.773 452.763 535.206C449.026 532.82 444.923 531.063 440.617 530.004C439.664 529.733 438.907 529.53 438.169 529.274C440.434 527.825 442.731 526.444 445.077 525.081Z" fill="url(#paint0_linear_136_149)"/>
<path d="M514.042 391.757C507.972 396.188 502.427 400.099 496.222 403.9C488.288 408.926 479.553 412.335 471.489 417.06C463.649 421.469 456.834 427.288 449.405 432.305C445.465 435.131 440.54 437.793 436.175 440.962C437.044 439.435 437.937 437.836 438.856 436.274C439.453 435.318 440.024 434.324 440.571 433.401C442.229 432.502 443.837 431.528 445.419 430.515C448.959 428.29 452.499 425.955 455.809 423.388C463.329 417.424 470.645 411.156 477.272 404.302C484.096 396.982 488.562 388.876 494.654 381.662C496.702 379.283 499.131 377.034 501.181 374.875C501.506 374.49 501.651 373.839 501.245 373.67C500.461 373.701 499.609 374.387 498.805 374.71C491.536 378.125 484.605 382.473 478.952 388.172C471.746 395.252 466.547 403.355 458.75 409.45C456.996 410.966 454.664 412.707 452.581 414.169C453.837 410.942 455.067 407.676 456.095 404.437C457.808 398.964 458.635 393.48 459.768 388.012C461.303 380.003 463.57 371.888 463.944 363.999C464.059 362.87 464.079 359.979 462.358 362.192C460.596 365.319 459.113 368.534 457.173 371.615C444.787 388.666 437.733 407.983 438.143 425.8C438.219 428.294 438.421 430.758 439.026 433.06C439.042 433.204 439.086 433.344 439.157 433.47C437.394 436.487 435.757 439.474 434.094 442.533C434.02 442.639 433.994 442.71 433.92 442.816C433.3 443.954 432.68 445.092 432.11 446.196C431.769 444.933 431.35 443.556 431.315 442.638C430.981 439.654 431.615 437.345 431.861 434.246C432.364 426.657 431.301 419.13 427.575 413.18C424.285 407.766 421.931 402.549 420.45 396.134C417.397 391.722 417.001 421.981 416.939 423.406C416.553 430.086 418.989 435.966 421.951 441.326C423.621 444.016 425.873 446.701 426.86 449.354C427.505 450.634 427.647 452.143 428.116 453.486C428.218 453.528 428.243 453.566 428.319 453.57C427.055 456.028 425.893 458.529 424.705 460.99C424.681 461.062 424.631 461.096 424.605 461.168C424.061 462.31 423.517 463.453 423.048 464.599C422.971 464.485 422.844 464.405 422.767 464.291C422.272 463.72 421.881 463.066 421.61 462.361C419.281 454.582 418.713 446.057 416.887 438.049C415.934 433.823 414.879 429.555 412.719 425.923C411.15 423.275 408.293 420.777 407.206 418.302C406.115 415.387 405.477 412.276 404.914 409.17C404.732 408.684 404.704 405.937 404.163 404.919C402.811 403.784 402.214 407.12 401.818 407.941C399.425 416.086 398.927 424.225 400.192 431.726C400.747 436.553 401.504 441.354 403.544 445.566C406.83 453.03 413.692 459.187 416.847 466.131C417.752 468.224 418.337 470.44 418.583 472.706C418.613 473.184 418.943 473.238 419.243 473.035C417.861 476.292 416.605 479.52 415.375 482.785C412.339 480.021 410.826 475.399 409.366 471.072C407.696 466.002 405.524 461.161 403.301 456.354C401.675 453.081 399.873 449.871 397.293 447.241C393.133 443.355 388.25 440.344 384.747 436.346C383.625 435.046 382.645 433.631 381.822 432.124C381.386 431.478 381.199 430.552 380.312 430.321C379.781 430.292 379.409 430.931 379.337 431.367C379.324 432.538 379.815 433.59 379.928 434.731C380.446 438.42 381.383 443.487 382.334 447.493C384.441 455.809 387.406 463.988 393.132 470.303C397.401 475.002 403.605 478.56 407.717 482.81C409.477 484.443 411.314 486.08 412.247 488.328C412.299 488.404 412.351 488.59 412.325 488.552C412.48 488.78 412.484 489.219 412.813 489.274C412.878 489.274 412.94 489.252 412.989 489.21C411.443 493.63 410.123 498.062 408.88 502.499C408.447 502.182 407.864 501.968 407.505 501.545C406.64 500.913 405.59 499.574 404.718 498.392C402.716 495.428 401.595 492.035 399.565 488.812C396.214 482.443 389.779 478.432 383.997 474.092C377.529 469.385 369.989 466.011 362.922 462.04C361.782 461.338 360.693 460.557 359.662 459.703L359.585 459.589C358.663 458.602 357.674 457.679 356.625 456.829C356.216 456.441 355.413 456.983 355.343 457.529C355.098 458.248 355.808 458.543 356.166 458.965C356.888 459.677 357.655 460.342 358.462 460.957C361.222 463.852 363.809 467.361 366.092 470.633C369.461 476.271 371.726 482.655 376.174 487.619C379.832 491.845 385.368 494.415 391.024 496.405C394.066 497.339 396.548 497.765 399.042 499.512C401.559 500.967 403.571 502.43 405.158 504.347C405.773 505.186 406.339 506.06 406.852 506.965C406.897 507.02 406.957 507.061 407.024 507.084C407.091 507.107 407.163 507.111 407.232 507.096C407.389 507.046 407.529 506.951 407.634 506.825C406.763 509.943 405.927 513.071 405.127 516.209C404.862 515.277 404.479 514.382 403.987 513.547C402.183 510.118 399.099 507.607 396.091 505.101C392.343 501.933 388.044 499.247 382.924 497.724C378.714 496.362 374.084 495.781 369.75 494.668C364.896 493.361 360.229 491.435 355.867 488.937C355.65 488.797 355.446 488.638 355.255 488.464C354.794 487.974 354.309 487.508 353.8 487.067C351.96 487.59 352.604 488.65 354.234 489.873C357.604 493.241 360.912 497.813 364.936 500.852C370.97 505.133 378.304 508.093 385.983 510.156C390.317 511.379 395.321 511.321 398.803 513.23C400.887 514.368 401.914 515.888 403.374 517.835C403.604 518.067 403.66 518.583 404.19 518.501L404.29 518.434C404.336 518.518 404.407 518.586 404.494 518.628C401.027 532.976 398.825 547.357 398.942 561.277C399.036 563.04 399.106 564.874 399.326 566.607C399.584 567.097 400.337 566.588 400.508 566.085C400.64 564.115 400.165 562.222 400.221 560.248C400.161 544.573 402.927 528.429 407.357 511.936C413.93 509.656 420.62 508.956 427.195 506.896C439.764 502.78 450.463 493.729 461.944 487.028C462.972 486.278 465.035 485.328 464.568 484.094C464.505 484.025 464.422 483.979 464.331 483.961C464.24 483.943 464.145 483.954 464.061 483.994C463.205 484.351 462.427 484.821 461.622 485.254C456.948 487.857 452.667 489.31 447.575 490.645C445.76 491.096 443.971 491.585 442.207 492.112C444.346 491.166 446.483 490.11 448.62 489.054C455.412 485.906 462.338 481.119 467.882 477.098C473.689 473.348 479.964 470.376 486.544 468.258C487.827 467.669 489.467 467.391 490.493 466.422C491.586 464.577 489.269 465.367 488.135 465.635C479.189 468.19 470.156 469.641 461.32 473.007C456.337 475.044 452.139 477.27 447.303 478.876C442.394 480.807 437.301 481.923 432.446 484.15C426.309 487.076 421.329 491.823 415.851 494.968C414.453 495.743 412.998 496.411 411.5 496.966C412.722 492.931 413.995 488.973 415.445 484.95L419.223 483.727C426.507 481.741 433.653 478.687 440.643 475.293C446.101 472.659 451.094 469.122 456.656 466.86C468.558 461.756 482.389 459.941 494.766 454.35C497.911 452.946 501.108 451.728 504.201 450.247C505.357 449.578 507.346 448.843 507.231 447.482C506.895 446.768 505.689 447.472 504.983 447.617C502.841 448.233 500.649 448.883 498.505 449.28C487.43 451.28 476.297 452.435 465.242 456.413C453.305 460.49 441.399 465.155 430.142 471.539C425.946 473.875 421.445 476.085 418.119 479.603C417.748 480.016 417.356 480.411 416.944 480.784C418.346 477.015 419.949 473.221 421.679 469.397C422.198 468.217 422.742 467.074 423.261 465.894C426.461 465.005 429.723 465.182 432.97 463.82C444.07 459.478 454.727 453.72 464.742 447.013C480.633 436.559 497.493 427 511.029 413.709C512.105 412.595 513.586 411.65 514.305 410.335C514.84 408.203 511.833 410.787 510.979 411.253C508.092 413.147 506.211 414.583 503.097 416.465C499.426 418.39 495.678 420.091 491.905 421.864C482.021 426.492 471.983 431.001 462.641 436.866C453.026 443.083 444.729 449.737 434.801 455.168C431.912 456.842 429.021 458.407 426.055 459.857C428.157 455.394 430.311 451.007 432.666 446.594C433.173 446.694 434.102 446.123 434.682 446.008C439.09 444.526 443.182 441.928 447.382 439.812C454.122 436.588 461.07 433.889 467.628 430.179C477.448 424.157 486.585 418.097 495.633 410.715C501.373 406.119 507.188 401.418 512.011 396.004C513.144 395.296 516.563 391.051 514.042 391.757ZM410.807 500.591C410.883 500.595 410.933 500.561 411.009 500.565C411.085 500.569 412.625 500.359 412.095 500.441C415.431 500.401 418.911 499.711 422.34 498.945C422.996 498.834 423.627 498.685 424.257 498.536C419.585 500.659 415.176 503.321 411.121 506.466C410.192 507.148 409.465 507.695 408.712 508.203C409.343 505.674 410.05 503.149 410.807 500.591Z" fill="url(#paint1_linear_136_149)"/>
<path d="M143.684 532.57C142.719 528.23 144.433 523.249 147.607 520.258L148.55 519.465C147.78 518.932 146.894 518.389 146.26 517.635C145.087 516.367 144.595 514.635 144.567 512.941C144.608 511.692 145.082 510.496 145.909 509.559C146.621 508.746 147.607 508.131 148.477 507.507C149.87 506.228 151.687 505.453 153.456 505.897C154.338 503.117 156.697 501.455 160.612 502.027C163.664 502.466 166.672 504.767 166.623 508.027C166.757 509.846 165.883 511.869 166.456 513.318C167.116 515.125 169.645 516.218 170.593 514.026C171.384 512.286 170.673 510.418 169.35 508.846C166.697 505.818 162.972 503.046 164.299 498.498C166.488 491.399 178.335 489.918 181.573 496.961C181.719 497.248 181.83 497.551 181.903 497.864C181.966 497.811 181.966 497.811 182.082 497.821C182.065 497.218 182.137 496.615 182.295 496.033C182.709 494.611 183.398 493.388 183.508 492.115C183.671 490.904 183.279 490.055 182.539 489.175C181.144 487.771 178.645 486.331 178.214 483.903C178.01 482.894 178.236 481.631 179.096 481.123C179.893 480.667 181.282 480.788 181.476 481.912C181.542 482.501 181.092 482.987 180.609 483.178C180.367 483.274 179.914 483.118 179.944 482.771C180.017 482.602 180.259 482.506 180.322 482.454L180.447 482.348C180.802 481.621 180.253 481.223 179.572 481.689C178.546 482.766 179.112 484.972 180.454 486.313C181.194 487.193 182.586 487.955 183.421 489.077C184.046 489.947 184.534 491.039 184.381 492.133C184.251 493.638 183.228 495.357 183.065 496.567C183.048 496.897 183 497.225 182.922 497.546C183.518 497.316 184.138 497.154 184.771 497.064C187.642 496.904 190.656 498.448 192.066 501.019C192.844 502.323 193.391 503.751 193.683 505.24C195.155 505.076 196.825 504.638 198.373 504.947C198.489 504.957 198.657 505.029 198.773 505.039C198.571 504.672 198.423 504.368 198.221 504.001C194.079 494.605 191.868 484.444 187.547 475.091C187.111 474.063 186.613 473.087 186.124 471.995C185.999 472.101 185.81 472.259 185.8 472.375C184.774 473.452 183.78 474.824 182.332 475.398C181.589 475.659 180.792 475.723 180.017 475.585C179.243 475.446 178.517 475.109 177.912 474.607C177.152 473.958 176.696 473.161 176.061 472.407C175.216 471.401 174.003 470.596 172.832 469.97C171.094 469.179 169.05 468.535 168.032 466.815C167.26 465.64 166.854 464.264 166.617 462.961C163.025 464.049 159.092 464.35 156.012 462.218C155.77 462.314 155.466 462.462 155.456 462.578C154.012 463.508 152.479 464.292 150.88 464.92C145.19 467.343 138.836 464.636 137.326 458.5C137.251 458.027 137.122 457.491 137.046 457.018C134.312 456.957 133.103 454.753 132.335 452.18C131.992 450.751 132.059 449.3 131.779 447.817C131.671 447.05 131.457 446.157 131.252 445.148C129.429 446.681 127.35 449.824 124.702 448.079C120.607 444.868 120.242 438.306 123.275 434.254C122.657 434.062 122.028 433.91 121.39 433.8C120.822 433.634 118.761 433.864 117.677 433.595C115.203 433.206 115.497 430.491 116.51 428.888C118.237 425.832 120.873 423.391 124.053 421.903C124.231 421.86 124.357 421.755 124.536 421.712C124.387 421.407 124.248 420.987 124.153 420.746C123.938 419.857 124.019 418.922 124.383 418.084C126.51 413.72 132.783 414.671 137.183 415.694C136.982 414.506 137.044 413.288 137.366 412.127C137.688 410.965 138.262 409.889 139.047 408.975C141.613 406.282 145.841 403.908 149.404 405.849C150.884 404.927 152.744 404.972 154.388 405.522C155.672 405.929 156.879 406.546 157.962 407.347C158.183 407.483 158.342 407.672 158.563 407.807C157.669 405.34 156.891 402.882 155.934 400.467C155.693 400.437 155.473 400.313 155.322 400.123C154.421 398.413 153.346 398.028 151.786 397.193C148.983 395.901 146.751 395.417 143.57 394.442C140.443 393.53 137.388 392.449 134.343 391.253C133.118 392.604 131.755 393.536 130.55 394.656C129.524 395.733 129.162 397.217 128.57 398.682C127.632 400.758 126.285 402.857 124.164 403.781C122.649 404.462 120.967 404.681 119.329 404.412C119.213 404.402 119.16 404.339 119.097 404.392C119.084 404.516 119.033 404.634 118.951 404.729C118.034 406.574 116.769 408.389 114.89 409.217C113.242 410.065 110.56 410.066 109.194 410.357C106.934 410.861 105.469 412.308 103.127 413.097C101.079 413.852 98.6386 413.757 96.7612 412.546C95.0424 411.523 94.1282 409.286 94.7612 407.359C95.0136 406.633 95.3877 405.956 95.8674 405.356C95.2015 404.859 94.5861 404.298 94.03 403.681C92.3714 401.963 92.003 399.482 93.5722 397.519C94.221 396.759 95.4358 395.523 95.7274 394.849C96.9394 392.972 96.1508 390.629 96.5828 388.335C97.3362 385.018 99.8914 382.441 102.925 381.071C101.654 378.921 102.685 376.444 103.728 374.494C104.311 373.145 104.252 371.799 103.615 370.403C102.862 368.997 102.258 367.895 103.231 366.755C102.788 366.484 102.408 366.159 101.913 365.825C100.373 364.759 99.3326 362.628 100.071 360.826C100.519 359.699 101.462 358.906 102.289 358.103C103.252 356.994 103.944 355.677 104.313 354.256C104.675 352.771 104.878 351.098 106.05 349.683C109.013 346.442 115.244 345.174 118.3 348.936C119.717 350.75 119.635 353.716 121.857 354.316C122.093 354.355 122.335 354.336 122.562 354.261C120.784 351.891 119.815 348.951 117.379 347.457C115.554 346.308 113.035 345.099 111.585 342.991C110.822 341.701 110.457 339.862 111.218 338.47C111.897 337.363 113.168 336.831 114.332 336.174L114.521 336.016C113.844 335.332 113.164 334.652 112.482 333.973L112.419 334.026C111.851 334.423 111.153 334.587 110.467 334.484C109.782 334.381 109.162 334.02 108.736 333.474C108.207 332.845 107.943 332.531 107.394 332.134C107.266 332.03 107.106 331.975 106.941 331.978C106.131 331.908 105.469 332.142 104.481 332.115C101.515 332.033 100.849 328.944 102.038 326.657C102.456 325.877 103.085 325.348 103.766 324.882C103.29 324.316 102.752 323.803 102.276 323.237C102.15 323.343 101.909 323.439 101.783 323.544C100.294 324.582 99.8194 326.698 99.4076 328.761C99.0058 330.708 97.8896 332.827 95.852 333.467C93.0898 334.394 90.065 332.967 88.3306 330.776C87.1776 329.276 86.5078 327.586 84.8318 326.741C84.2832 326.344 82.4614 325.837 81.5754 325.294C80.5628 324.727 79.7921 323.81 79.4082 322.716C79.2106 322.167 79.1222 321.585 79.1482 321.002L79.0224 321.108C78.2139 322.027 77.6731 323.149 77.4588 324.354C77.2858 325.68 77.87 327.014 78.4314 327.937C79.3956 329.594 81.4144 331.868 79.9714 333.725C79.1868 334.707 77.9136 334.596 76.799 334.675C76.7362 334.728 76.799 334.675 76.9148 334.685C75.5788 334.628 74.457 335.463 74.3148 336.442C74.1818 337.305 75.2864 337.342 76.0938 336.771L76.3452 336.56C76.5138 336.632 75.998 336.53 75.9452 336.467C75.618 336.205 75.9952 335.888 76.3424 335.918C76.8684 335.905 77.5956 336.26 77.2512 336.871C76.8438 337.536 76.0036 337.813 75.2992 337.868C73.07 338.025 72.8932 336.028 74.455 334.822C75.6498 333.817 77.6602 334.166 78.4904 334.005C80.108 333.504 79.6466 331.423 78.821 330.185C77.4238 328.14 75.8352 325.612 76.9286 323.083C77.366 322.072 77.8762 320.891 78.9152 320.34C78.8906 320.302 78.8581 320.271 78.8198 320.247C78.7815 320.224 78.7384 320.209 78.6938 320.204C77.9236 319.671 77.5964 319.41 76.8062 319.108C75.0674 318.316 72.0338 319.686 69.276 319.214C66.4454 318.911 63.836 316.061 64.6114 313.154C65.1818 311.28 66.8168 309.905 68.5272 309.004C66.3856 307.477 63.5248 307.521 61.2546 305.459C59.6488 303.804 62.5266 302.887 63.6814 302.346C64.5944 301.9 66.5136 300.609 68.0282 300.623C68.2068 300.58 68.3754 300.653 68.554 300.61L68.5012 300.548C68.3826 299.896 68.337 299.076 68.7972 298.474C70.7108 295.9 77.4466 296.891 80.464 299.076L80.4112 299.013C79.5589 297.424 79.3047 295.581 79.6946 293.82C80.3149 292.141 81.4624 290.707 82.9654 289.733C84.4684 288.76 86.2462 288.299 88.0328 288.42L88.1486 288.43C87.5625 287.966 87.0021 287.47 86.4698 286.944C85.5609 286.132 84.5669 285.421 83.5052 284.822C79.889 282.818 75.5838 282.037 72.312 279.422C71.552 278.773 70.5046 277.4 71.458 276.491C72.2652 275.92 73.3498 276.189 74.2758 276.269C76.1704 276.608 78.4424 276.629 80.1856 276.022C82.2762 275.445 84.301 274.28 86.553 274.533C86.7897 274.335 86.9883 274.095 87.139 273.826C89.419 271.05 93.2364 270.739 96.6328 270.566C98.9776 270.419 100.89 269.886 102.726 268.878C106.703 266.715 110.41 262.954 115.195 262.902C116.262 262.901 117.312 263.161 118.255 263.659C119.197 264.157 120.004 264.879 120.603 265.761C122.053 267.868 121.603 271.036 119.021 271.921C115.911 272.817 114.39 268.838 111.821 268.207C111.536 268.124 110.673 267.991 110.253 268.13C109.698 268.327 109.18 268.618 108.721 268.989C108.093 269.517 107.569 270.172 106.898 270.521C107.056 270.71 107.152 270.952 106.881 271.395C105.97 272.482 104.393 272.52 103.228 273.177C101.769 273.867 100.051 275.526 98.7966 277.225C97.6776 278.702 96.7528 281.305 95.7194 283.138C94.8742 284.691 93.7032 286.042 92.2866 287.098C92.0216 287.302 91.7328 287.473 91.4266 287.607C91.4322 288.89 91.5006 290.12 91.5162 291.287C91.579 291.234 91.6948 291.244 91.7576 291.191C92.2936 291.008 92.8048 290.758 93.2794 290.448C94.7594 289.527 96.0462 288.123 97.7694 287.747C98.7782 287.543 99.8728 287.696 100.696 288.292C101.466 288.825 102.143 289.758 102.179 290.694C102.386 292.344 101.382 293.832 100.505 295.214C100.087 295.994 99.7858 296.784 99.9144 297.32C100.083 297.743 100.408 298.085 100.823 298.273C101.507 298.449 102.285 298.225 103.409 298.031C103.64 297.979 103.877 297.96 104.114 297.975L104.154 297.512C104.248 295.072 106.039 293.244 108.48 293.339C113.569 293.139 117.296 301.273 110.79 302.343C109.844 302.494 108.783 302.635 107.857 302.555C107.953 303.179 108.015 303.807 108.044 304.437C108.395 304.619 108.71 304.863 108.972 305.159C109.828 306.049 109.897 307.279 109.796 308.437C109.655 310.098 108.873 311.64 107.616 312.737C106.17 313.952 104.476 313.981 103.431 315.289C102.981 315.775 102.838 316.754 102.956 317.406C103.17 318.299 103.553 319.266 103.589 320.2C103.634 320.805 103.561 321.412 103.376 321.989L104.962 323.876L105.15 323.717C106.358 322.907 107.523 322.035 108.641 321.104C110.861 319.023 112.273 316.871 113.501 314.12C113.793 313.446 114.084 312.772 114.313 312.15C111.906 307.627 116.464 306.156 116.213 301.645C116.169 300.696 116.056 299.751 115.875 298.817C115.195 297.925 114.782 296.858 114.684 295.741C114.625 294.395 114.967 293.141 114.541 291.997C114.178 290.8 113.458 289.688 113.569 288.415C113.613 286.553 115.789 286.333 117.201 286.864C119.929 287.683 122.146 289.682 123.639 291.968C124.613 293.51 125.283 295.201 125.417 297.02C125.407 297.136 125.46 297.198 125.397 297.251C126.064 297.122 126.711 296.904 127.319 296.601C127.435 296.611 128.494 295.828 129.019 295.816C129.821 295.737 130.625 295.93 131.304 296.363C132.993 297.734 133.497 299.993 134.378 301.935C135.854 305.095 137.309 308.485 136.82 312.116C136.79 312.463 136.707 312.748 136.677 313.095C137.592 313.047 138.509 313.146 139.392 313.388C140.635 313.845 141.868 314.419 142.714 315.425C143.065 316.003 143.262 316.661 143.285 317.337C143.308 318.013 143.157 318.684 142.846 319.285C141.939 321.014 140.48 321.703 139.318 323.002C137.789 324.502 137.853 327.131 136.515 329.115C135.575 330.549 134.413 331.848 132.934 332.769C132.808 332.875 132.566 332.971 132.441 333.076C132.546 333.202 132.589 333.381 132.695 333.506C132.982 334.231 133.312 335.134 133.596 335.217C134.565 335.476 136.18 334.333 137.79 334.589C140.317 335.041 142.272 337.367 142.399 339.943C142.377 342.215 140.861 344.241 139.911 345.792C139.611 346.243 139.373 346.732 139.202 347.246C142.582 347.946 145.722 349.385 148.319 351.708C149.935 353.248 151.752 355.154 151.836 357.551C151.679 360.045 149.002 361.329 147.78 363.322C147.237 364.208 147.044 365.765 147.354 366.9C147.786 369.096 148.525 371.221 149.548 373.212C150.683 375.584 152.166 377.986 151.989 380.712C151.918 381.607 151.664 382.478 151.243 383.272C151.17 383.44 151.034 383.662 150.961 383.83C152.288 386.685 153.562 389.478 154.763 392.438C156.783 397.394 158.509 402.382 160.287 407.434C160.424 407.451 160.563 407.443 160.697 407.411C164.377 407.321 169.27 410.077 168.205 414.299C168.012 415.421 167.602 416.494 166.999 417.459C166.936 417.512 166.863 417.681 166.8 417.733C167.734 418.381 168.57 419.161 169.282 420.047C170.933 422.522 171.211 426.044 169.761 428.659C169.441 429.157 169.088 429.633 168.704 430.084L168.453 430.295C169.166 432.164 169.878 434.033 170.653 435.849C173.901 435.373 174.815 437.609 176.695 439.462C177.604 440.416 178.626 440.737 179.36 440.334C180.399 439.783 180.509 438.51 180.106 437.774C179.155 436.643 177.029 436.284 175.459 435.565C174.163 435.045 172.907 434.061 172.322 432.728C171.758 431.168 171.681 429.474 172.102 427.87C172.514 425.806 175.048 420.779 177.637 421.178C177.87 420.224 178.37 419.357 179.077 418.678C181.361 416.543 185.102 415.759 187.875 417.399C188.655 417.816 189.425 418.349 189.891 419.031C190.404 419.911 190.717 420.894 190.808 421.908C190.87 422.077 190.874 422.262 190.821 422.434C191.189 422.419 191.559 422.432 191.925 422.472C193.589 422.79 195.813 424.032 197.003 424.427C198.425 424.842 199.983 425.035 201.186 425.955C204.13 428.309 204.326 432.115 202.593 435.289C202.312 435.847 201.977 436.343 201.706 436.786C203.666 437.714 205.563 438.694 207.524 439.622C211.309 441.698 213.224 444.488 211.651 447.85C214.837 450.108 217.075 454.558 215.009 458.227C212.992 461.317 208.831 462.24 206.643 464.616C205.68 465.64 204.769 466.727 203.552 467.322C202.544 467.732 201.447 467.878 200.367 467.745C200.241 467.851 200.105 468.073 199.98 468.178C198.785 469.183 197.102 469.095 195.68 468.681C193.511 468.143 192.018 465.857 190.289 464.949C189.783 464.731 189.016 464.839 188.523 465.146C187.547 465.645 186.614 466.322 185.543 466.579C186.88 469.319 188.207 472.173 189.418 475.019C193.686 484.309 195.781 494.459 200.05 503.75C201.41 506.899 203.388 509.636 205.578 512.624C205.711 511.761 205.96 510.908 206.546 510.2C207.718 508.786 209.197 507.865 209.969 506.357C211.075 504.354 210.885 501.831 212.329 499.973C214.818 496.807 219.829 497.533 222.458 500.15C223.925 501.385 224.374 502.94 224.465 504.58C227.254 502.664 230.15 500.874 233.503 500.523C236.331 500.185 239.912 501.253 241.07 504.035C241.511 506.347 239.879 508.363 238.952 510.323C238.263 511.546 237.921 512.799 237.632 514.115L237.747 514.125C240.178 514.336 242.671 514.493 245.132 514.357C247.582 514.335 250.377 513.703 252.655 515.008C254.215 515.842 255.044 517.721 254.262 519.345C252.542 523.044 247.594 524.306 243.797 524.385C239.717 524.381 236.519 524.279 233.302 527.091C232.286 528.053 230.717 530.016 229.386 531.241C227.794 532.794 226.034 534.274 223.966 535.261C223.747 535.324 223.541 535.424 223.357 535.559C226.308 539.195 229.248 542.948 231.946 546.796C232.306 547.352 232.782 547.918 233.079 548.527C233.165 548.884 232.735 549.138 232.378 549.224C231.316 549.365 230.943 548.284 230.478 547.602C229.186 545.682 227.716 543.807 226.299 541.993C221.582 535.871 216.603 530.076 211.948 523.902C207.938 518.366 203.445 513.022 199.991 507.125C199.183 507.696 198.28 508.026 197.526 508.661C196.404 509.496 194.95 511.469 194.926 513.101C194.599 515.521 195.252 518.085 196.259 519.921C197.276 521.641 198.479 522.561 200.235 522.481C200.583 522.511 201.39 521.939 201.135 521.509C200.871 521.195 200.703 521.122 200.177 521.135C199.882 521.168 199.628 520.737 199.932 520.589C200.237 520.44 200.521 520.523 200.815 520.49C202.131 520.779 202.663 522.05 201.32 522.75C200.155 523.408 198.618 522.983 197.5 522.42C195.136 520.758 194.114 517.754 193.944 515C193.793 513.704 193.989 512.392 194.512 511.198C195.036 510.003 195.868 508.97 196.923 508.203C197.667 507.684 198.402 507.282 199.199 506.826C197.652 506.517 195.971 507.071 194.037 507.195C193.627 507.218 193.226 507.125 192.817 507.148L192.922 507.274C193.134 507.525 193.801 508.574 193.919 509.226C194.902 512.692 190.952 513.866 188.26 513.983C185.443 514.206 182.851 513.165 180.551 514.132C179.674 514.43 178.862 514.895 178.159 515.499C178.992 515.979 179.888 516.407 180.721 516.887C183.399 518.285 186.056 519.914 187.572 522.611C189.405 525.684 190.367 529.382 189.425 532.857C188.93 535.205 187.553 537.651 185.138 538.608C183.226 539.142 181.94 538.506 181.061 537.206C181.574 541.39 180.796 546.336 177.801 549.284C175.633 551.428 172.265 553.294 169.241 551.866C167.847 551.237 166.677 550.201 165.884 548.893C164.972 547.299 164.692 545.817 163.331 544.708C162.339 544.039 161.34 544.128 160.151 543.733C159.423 543.443 158.771 542.99 158.245 542.409C157.72 541.827 157.334 541.134 157.118 540.38C156.946 539.666 156.828 539.014 156.719 538.247C155.826 538.461 154.87 538.728 153.746 538.923C151.486 539.427 149.786 537.53 147.951 536.497C146.853 535.702 144.261 534.661 143.684 532.57ZM123.584 388.922L123.71 388.816C124.004 388.783 124.203 388.509 124.349 388.172C124.835 387.328 125.189 386.415 125.4 385.464C125.729 383.685 125.552 381.688 124.515 380.199C123.478 378.71 121.877 378.339 120.283 379.249C119.181 379.854 117.153 380.378 117.476 382.038C118.357 383.98 120.476 385.096 121.609 386.827C121.95 387.226 122.245 387.662 122.487 388.127C122.794 388.62 122.976 389.22 123.585 388.922H123.584ZM120.466 336.704C121.145 335.597 122.918 334.643 123.6 334.177C124.365 333.427 124.898 332.657 125.146 331.804C122.605 330.184 119.153 329.653 116.788 330.031C115.484 330.268 114.743 331.428 114.011 332.473C115.891 334.326 117.761 336.295 119.579 338.202C119.794 337.659 120.094 337.154 120.467 336.704H120.466ZM113.329 337.661C111.347 339.005 111.949 342.147 113.849 343.769C115.402 345.361 118.351 346.316 120.105 348.276C121.225 349.48 121.799 350.929 122.731 352.292C122.932 352.66 123.408 353.226 123.662 353.656C123.898 353.477 124.094 353.252 124.237 352.993C124.38 352.734 124.467 352.448 124.493 352.153C124.518 351.859 124.481 351.562 124.385 351.283C124.289 351.003 124.134 350.747 123.933 350.531C123.671 350.197 123.335 349.928 122.951 349.746C123.159 350.114 123.282 350.523 123.314 350.944C123.376 351.113 123.38 351.298 123.327 351.469C123.128 351.744 122.434 351.684 122.464 351.337C122.375 350.338 121.781 349.12 120.81 348.22C119.657 346.721 115.73 345.623 116.264 342.812C116.48 341.665 117.138 340.789 117.956 340.102L118.459 339.679C117.444 338.6 116.43 337.521 115.469 336.505C114.798 336.855 113.958 337.132 113.329 337.66L113.329 337.661ZM82.31 300.636C83.0656 302.683 82.8252 305.461 84.544 306.485C85.0498 306.703 85.1428 306.303 84.9914 305.357C84.913 304.243 84.2658 302.962 83.42 301.956C83.113 301.463 82.68 301.076 82.31 300.636ZM125.552 313.649C125.036 313.546 124.153 313.644 124.093 314.339C124.003 315.38 124.029 316.432 124.474 317.345C124.676 317.712 124.804 318.248 125.277 318.172L125.34 318.12C125.383 318.298 125.667 318.381 125.846 318.338C126.256 318.316 126.349 317.915 126.432 317.631C126.743 316.725 127.075 315.588 126.629 314.675C126.583 314.411 126.454 314.169 126.26 313.984C126.066 313.799 125.818 313.682 125.552 313.649ZM142.954 424.472C143.413 425.911 144.936 427.851 146.324 427.971C147.922 427.701 146.995 424.939 145.948 423.565C145.281 422.517 143.74 421.45 142.633 420.772C142.639 422.055 142.644 423.338 142.954 424.472ZM167.047 431.047C165.757 431.81 164.159 432.08 162.707 432.012C162.801 434.294 162.779 436.566 161.726 438.632C160.348 441.079 157.39 442.921 155.243 440.112C154.926 439.735 154.672 439.305 154.407 438.991C153.22 439.238 152 439.191 151.096 439.52C149.019 440.623 149.473 443.46 151.674 444.293C153.254 444.896 154.971 445.278 156.197 446.608C156.937 447.488 157.488 448.528 158.291 449.355L158.555 449.669L158.565 449.553C158.497 448.323 157.533 446.666 157.663 445.161C158.059 441.93 161.153 439.866 163.776 438.519C165.236 437.829 166.219 436.573 167.783 436.009C168.141 435.923 168.561 435.785 168.918 435.699C168.248 434.008 167.621 432.496 167.047 431.047ZM217.045 527.667C217.479 528.162 217.882 528.684 218.251 529.229L218.483 529.249C219.114 529.362 219.693 529.412 220.05 529.326C220.818 529.218 222.045 528.508 222.105 527.814C222.245 526.194 220.212 525.434 218.698 525.42C218.35 525.39 217.206 525.815 216.838 526.017C216.596 526.112 216.407 526.271 216.103 526.42C216.386 526.858 216.701 527.276 217.045 527.668V527.667Z" fill="url(#paint2_linear_136_149)"/>
<path fill-rule="evenodd" clip-rule="evenodd" d="M288.212 175.61C288.532 175.114 289.202 174.525 289.959 173.903C292.2 172.079 295.403 170.141 295.708 169.934C300.57 166.728 305.679 163.787 310.585 160.617C312.71 159.235 314.806 157.812 316.829 156.304C317.484 155.806 321.851 152.83 322.797 150.706C323.033 150.208 323.099 149.646 322.986 149.106C322.907 148.817 322.767 148.548 322.577 148.317C322.386 148.086 322.149 147.897 321.88 147.765C320.861 147.21 319.449 147.048 317.906 147.166C315.01 147.386 311.574 148.551 309.813 149.024C303.966 150.621 298.209 152.527 292.564 154.734C286.887 156.925 281.327 159.339 275.854 161.817C260.279 168.874 244.937 176.487 230.09 184.758C215.039 193.149 200.498 202.221 186.772 212.093C180.498 216.595 173.584 221.404 167.631 226.82C163.439 230.64 159.727 234.766 157.034 239.288C156.937 239.453 156.873 239.635 156.846 239.824C156.819 240.013 156.829 240.206 156.877 240.391C156.924 240.576 157.008 240.75 157.122 240.902C157.237 241.055 157.381 241.184 157.545 241.281C157.709 241.379 157.891 241.442 158.08 241.469C158.27 241.496 158.462 241.486 158.647 241.439C158.832 241.391 159.006 241.308 159.159 241.193C159.312 241.078 159.44 240.935 159.538 240.77C162.07 236.466 165.578 232.545 169.538 228.898C175.375 223.521 182.172 218.744 188.33 214.265C201.939 204.378 216.35 195.28 231.27 186.862C246.015 178.549 261.27 170.901 276.757 163.797C282.172 161.317 287.688 158.897 293.321 156.7C298.893 154.5 304.578 152.597 310.352 151C311.822 150.603 314.486 149.687 316.989 149.309C318.503 149.079 319.944 149.009 320.905 149.533C321.181 149.682 320.963 149.92 320.788 150.193C320.384 150.788 319.905 151.328 319.362 151.8C317.877 153.17 316.029 154.411 315.636 154.711C313.656 156.197 311.589 157.6 309.508 158.961C304.602 162.145 299.508 165.095 294.646 168.312C294.238 168.581 289.26 171.624 287.222 173.77C286.807 174.179 286.476 174.665 286.247 175.202C285.942 176.05 286.16 176.712 286.931 177.148C288.416 177.965 291.036 177.974 294.049 177.467C299.522 176.542 306.378 174.065 308.925 173.407C320.861 170.341 332.797 167.258 344.879 164.647C352.87 162.916 360.934 161.395 369.085 160.217C397.775 156.09 428.633 155.071 459.099 157.562C489.681 160.064 519.87 166.105 547.031 176.046C547.211 176.111 547.402 176.14 547.593 176.131C547.783 176.122 547.971 176.076 548.144 175.995C548.317 175.914 548.472 175.799 548.601 175.658C548.73 175.517 548.83 175.352 548.894 175.172C548.959 174.992 548.988 174.802 548.98 174.611C548.971 174.42 548.925 174.233 548.844 174.06C548.762 173.886 548.648 173.731 548.507 173.602C548.366 173.474 548.201 173.374 548.021 173.309C520.598 163.434 490.132 157.514 459.288 155.136C428.648 152.776 397.615 153.909 368.779 158.176C360.599 159.384 352.491 160.942 344.442 162.7C332.36 165.344 320.395 168.446 308.445 171.536C305.927 172.189 299.144 174.651 293.729 175.564C291.458 175.945 289.464 176.102 288.212 175.61ZM607.947 535.666C616.623 534.287 625.502 531.411 633.726 527.283C641.95 523.149 649.519 517.763 655.486 511.238C661.134 505.191 665.224 497.583 670.493 491.11C672.691 488.403 675.107 485.906 677.946 483.816C680.784 481.719 683.943 480.323 687.262 479.371C690.609 478.406 694.132 477.906 697.64 477.614C698.023 477.575 698.375 477.387 698.62 477.09C698.864 476.792 698.981 476.41 698.944 476.027C698.908 475.644 698.721 475.291 698.425 475.045C698.128 474.799 697.747 474.681 697.363 474.716C693.681 475.113 689.998 475.738 686.49 476.836C682.924 477.952 679.532 479.552 676.49 481.898C673.55 484.162 671.061 486.849 668.776 489.739C663.637 496.258 659.636 503.853 654.074 509.927C648.194 516.195 640.785 521.378 632.721 525.249C624.762 529.049 616.262 531.591 607.524 532.784C607.332 532.808 607.146 532.869 606.977 532.966C606.809 533.062 606.661 533.192 606.544 533.346C606.426 533.5 606.34 533.677 606.292 533.864C606.243 534.052 606.233 534.248 606.261 534.44C606.289 534.632 606.355 534.817 606.456 534.983C606.556 535.149 606.689 535.293 606.846 535.407C607.003 535.521 607.181 535.603 607.37 535.647C607.559 535.691 607.755 535.697 607.946 535.664L607.947 535.666Z" fill="#E3DBF9"/>
<path fill-rule="evenodd" clip-rule="evenodd" d="M369.165 407.985C383.773 444.463 433.912 502.421 478.958 502.413C544.026 502.417 613.679 332.018 613.679 332.018C639.979 314.11 623.879 289.244 611.996 268.395L593.892 313.083C593.892 313.083 515.567 422.629 481.808 417.695C448.046 412.77 410.098 285.135 391.325 283.515C372.552 281.895 354.562 371.497 369.165 407.985Z" fill="#FB9C9A"/>
<mask id="mask0_136_149" style="mask-type:luminance" maskUnits="userSpaceOnUse" x="363" y="268" width="265" height="235">
<path d="M369.165 407.985C383.773 444.463 433.912 502.421 478.958 502.413C544.026 502.417 613.679 332.018 613.679 332.018C639.979 314.11 623.879 289.244 611.996 268.395L593.892 313.083C593.892 313.083 515.567 422.629 481.808 417.695C448.046 412.77 410.098 285.135 391.325 283.515C372.552 281.895 354.562 371.497 369.165 407.985Z" fill="white"/>
</mask>
<g mask="url(#mask0_136_149)">
<path fill-rule="evenodd" clip-rule="evenodd" d="M559.395 317.457C524.97 273.04 504.388 209.717 446.528 189.955C405.931 176.088 369.44 197.069 346.441 230.624C310.634 282.878 299.061 357.857 319.833 417.904C349.658 504.122 450.647 533.248 530.079 499.739C554.693 489.353 579.161 473.797 592.8 450.098C602.99 432.393 612.611 397.385 594.693 380.455C588.783 374.868 578.827 377.222 573.761 370.781C569.904 365.889 571.796 359.377 569.555 353.914C565.901 344.954 552.058 342.958 543.601 344.034L559.395 317.457Z" fill="url(#paint3_linear_136_149)"/>
</g>
<path fill-rule="evenodd" clip-rule="evenodd" d="M363.34 454.438C384.176 429.1 415.94 320.181 399.697 289.615C383.453 259.049 297.327 226.46 265.88 271.04C238.244 310.214 258.436 411.072 274.68 441.638C288.685 468.008 344.374 477.502 363.34 454.438Z" fill="url(#paint4_linear_136_149)"/>
<path fill-rule="evenodd" clip-rule="evenodd" d="M356.705 318.253C355.609 315.352 353.406 313.005 350.58 311.728C347.754 310.451 344.536 310.348 341.635 311.443L177.405 373.427C175.969 373.969 174.654 374.789 173.535 375.84C172.416 376.891 171.515 378.152 170.884 379.551C170.252 380.95 169.902 382.459 169.854 383.994C169.806 385.528 170.06 387.057 170.603 388.492L267.529 645.301C268.623 648.201 270.824 650.549 273.648 651.827C276.472 653.105 279.688 653.208 282.589 652.115L446.819 590.131C449.719 589.035 452.066 586.832 453.344 584.007C454.621 581.181 454.724 577.964 453.631 575.062L356.705 318.253Z" fill="white"/>
<path fill-rule="evenodd" clip-rule="evenodd" d="M232.757 398.816C232.47 398.057 231.893 397.442 231.153 397.108C230.413 396.773 229.571 396.746 228.811 397.032L200.555 407.697C199.795 407.984 199.181 408.561 198.846 409.301C198.512 410.041 198.485 410.883 198.772 411.643L198.773 411.645C199.059 412.404 199.636 413.019 200.376 413.353C201.116 413.688 201.958 413.715 202.718 413.428L230.975 402.764C231.734 402.477 232.348 401.9 232.683 401.16C233.017 400.42 233.044 399.578 232.758 398.818L232.757 398.816ZM228.317 387.052C228.03 386.292 227.453 385.678 226.713 385.343C225.973 385.009 225.131 384.982 224.371 385.268L196.114 395.933C195.355 396.22 194.741 396.797 194.406 397.537C194.072 398.276 194.045 399.119 194.332 399.879V399.881C194.619 400.64 195.195 401.255 195.935 401.589C196.675 401.923 197.517 401.95 198.277 401.664L226.534 391C227.294 390.713 227.908 390.136 228.243 389.396C228.577 388.656 228.604 387.814 228.317 387.055L228.317 387.052Z" fill="#E3E3FE"/>
<path fill-rule="evenodd" clip-rule="evenodd" d="M356.216 316.956C355.738 315.69 355.015 314.531 354.09 313.544C353.164 312.557 352.053 311.763 350.82 311.206C349.587 310.648 348.256 310.34 346.904 310.297C345.551 310.254 344.204 310.478 342.938 310.956L176.115 373.918C174.849 374.396 173.69 375.118 172.703 376.044C171.716 376.97 170.922 378.081 170.364 379.313C169.807 380.546 169.498 381.877 169.455 383.229C169.412 384.582 169.635 385.929 170.113 387.195V387.197C170.591 388.463 171.313 389.622 172.239 390.609C173.165 391.596 174.276 392.39 175.509 392.948C176.742 393.505 178.073 393.814 179.425 393.856C180.778 393.899 182.125 393.675 183.391 393.197L350.213 330.235C351.479 329.757 352.639 329.035 353.626 328.109C354.613 327.184 355.407 326.073 355.965 324.84C356.522 323.607 356.831 322.276 356.874 320.924C356.917 319.571 356.693 318.224 356.216 316.958V316.956Z" fill="white"/>
<path fill-rule="evenodd" clip-rule="evenodd" d="M312.243 465.534C312.136 465.546 312.029 465.521 311.938 465.465C311.847 465.409 311.776 465.324 311.738 465.224L291.468 411.517C290.578 409.164 288.791 407.26 286.498 406.224C284.205 405.187 281.595 405.104 279.241 405.992L279.233 405.994C278.068 406.434 277 407.099 276.092 407.951C275.183 408.804 274.452 409.827 273.939 410.962C273.427 412.097 273.143 413.323 273.104 414.568C273.065 415.813 273.272 417.053 273.713 418.218L294.148 472.362V472.363L294.141 472.366L293.251 472.702C293.005 472.797 292.733 472.796 292.487 472.702C292.241 472.607 292.039 472.425 291.92 472.19C289.396 467.283 276.578 442.338 270.06 429.661C269.56 428.687 268.873 427.821 268.038 427.112C267.203 426.404 266.236 425.866 265.194 425.531C264.151 425.196 263.053 425.07 261.961 425.159C260.87 425.249 259.806 425.552 258.832 426.053C258.825 426.056 258.825 426.056 258.825 426.056C257.85 426.557 256.984 427.245 256.275 428.08C255.566 428.915 255.028 429.882 254.693 430.925C254.358 431.969 254.232 433.068 254.321 434.16C254.411 435.252 254.715 436.315 255.215 437.29C259.526 445.675 266.662 459.559 272.208 470.351C277.536 480.724 282.27 491.391 286.387 502.301C286.387 502.301 278.66 494.431 272.611 488.265C270.726 486.348 268.158 485.257 265.47 485.233C262.782 485.209 260.194 486.253 258.276 488.136V488.138C257.327 489.069 256.573 490.179 256.056 491.403C255.539 492.627 255.27 493.941 255.263 495.27C255.257 496.599 255.514 497.916 256.019 499.145C256.525 500.374 257.268 501.491 258.207 502.431C264.984 509.221 275.463 519.705 284.636 528.896C290.284 534.551 297.444 538.455 305.257 540.141C313.069 541.827 321.203 541.222 328.68 538.4C350.349 530.222 361.285 506.028 353.108 484.362L349.594 475.052C349.594 475.052 346.078 438.751 344.456 421.988C344.242 419.785 343.161 417.758 341.453 416.352C339.744 414.946 337.547 414.276 335.344 414.49V414.488C333.141 414.701 331.113 415.781 329.706 417.489C328.299 419.197 327.627 421.395 327.84 423.598C329.057 436.115 331.212 458.376 331.212 458.376L331.046 458.439C330.875 458.458 330.703 458.416 330.561 458.319C330.418 458.223 330.315 458.078 330.27 457.912C329.014 453.101 321.993 426.212 318.201 411.689C317.555 409.22 315.956 407.109 313.755 405.819C311.554 404.529 308.931 404.166 306.462 404.809L306.454 404.812C305.232 405.131 304.084 405.687 303.077 406.45C302.07 407.213 301.223 408.167 300.584 409.257C299.946 410.347 299.528 411.553 299.356 412.804C299.184 414.056 299.26 415.329 299.58 416.552C303.876 433.002 312.357 465.494 312.357 465.494L312.243 465.534Z" fill="url(#paint5_linear_136_149)"/>
<path fill-rule="evenodd" clip-rule="evenodd" d="M418.766 532L426.059 551.323C427.148 554.208 427.046 557.407 425.776 560.217C424.506 563.027 422.172 565.217 419.288 566.307L398.89 574.005L396.99 568.969L417.388 561.27C418.156 560.981 418.859 560.544 419.458 559.983C420.057 559.422 420.54 558.748 420.879 558C421.217 557.253 421.405 556.446 421.432 555.626C421.459 554.805 421.324 553.988 421.034 553.22L413.741 533.897L418.766 532ZM269.66 588.277L276.952 607.6C277.241 608.368 277.678 609.071 278.239 609.669C278.8 610.267 279.473 610.749 280.22 611.087C280.967 611.425 281.774 611.612 282.593 611.638C283.413 611.664 284.23 611.528 284.997 611.238L305.395 603.54L307.295 608.576L286.897 616.274C284.012 617.363 280.813 617.26 278.003 615.99C275.193 614.72 273.003 612.386 271.914 609.501L264.621 590.178L269.66 588.277ZM234.592 415.943L236.493 420.979L216.095 428.678C215.327 428.967 214.625 429.404 214.026 429.965C213.428 430.526 212.947 431.2 212.609 431.947C212.272 432.694 212.085 433.501 212.059 434.321C212.034 435.14 212.17 435.957 212.46 436.724L219.753 456.047L214.716 457.948L207.423 438.625C206.334 435.74 206.436 432.541 207.706 429.731C208.976 426.921 211.309 424.731 214.194 423.641L234.592 415.943ZM326.186 381.373L346.584 373.675C349.469 372.586 352.668 372.689 355.478 373.959C358.288 375.229 360.478 377.563 361.567 380.448L368.86 399.771L363.834 401.667L356.541 382.344C356.251 381.577 355.812 380.874 355.25 380.276C354.688 379.678 354.014 379.196 353.266 378.859C352.518 378.521 351.71 378.335 350.89 378.309C350.07 378.284 349.252 378.421 348.485 378.711L328.087 386.409L326.186 381.373Z" fill="#E3E3FE"/>
<path d="M283.604 568.083C284.583 567.714 285.482 567.775 286.301 568.266C287.274 568.846 288.124 570.097 288.849 572.019C289.573 573.936 289.751 575.443 289.407 576.531C289.125 577.427 288.489 578.063 287.51 578.431C287.056 578.618 286.564 578.694 286.075 578.652C285.586 578.611 285.113 578.454 284.697 578.193C283.797 577.666 282.993 576.427 282.259 574.482C281.539 572.574 281.351 571.076 281.695 569.988C281.988 569.088 282.625 568.453 283.604 568.083ZM284.212 569.694C283.979 569.78 283.784 569.945 283.66 570.16C283.526 570.463 283.484 570.798 283.538 571.124C283.598 571.676 283.847 572.549 284.296 573.738C284.744 574.927 285.112 575.721 285.397 576.121C285.695 576.517 285.948 576.76 286.193 576.836C286.423 576.916 286.675 576.91 286.901 576.821C287.13 576.736 287.321 576.573 287.441 576.361C287.585 576.06 287.627 575.721 287.561 575.395C287.515 574.843 287.256 573.979 286.807 572.79C286.358 571.6 285.991 570.806 285.706 570.406C285.42 570.006 285.154 569.766 284.921 569.683C284.691 569.603 284.439 569.607 284.212 569.694ZM291.473 565.114C292.452 564.744 293.351 564.805 294.17 565.296C295.143 565.876 295.993 567.127 296.718 569.049C297.442 570.966 297.632 572.469 297.288 573.557C296.994 574.458 296.358 575.093 295.378 575.462C294.924 575.647 294.433 575.722 293.944 575.681C293.455 575.64 292.983 575.483 292.566 575.224C291.678 574.693 290.862 573.458 290.127 571.513C289.407 569.605 289.22 568.107 289.575 567.014C289.857 566.118 290.493 565.483 291.473 565.114ZM292.08 566.724C291.85 566.807 291.659 566.971 291.54 567.185C291.397 567.487 291.351 567.825 291.408 568.155C291.468 568.706 291.728 569.575 292.177 570.763C292.626 571.952 292.993 572.747 293.278 573.147C293.564 573.547 293.829 573.785 294.062 573.866C294.293 573.943 294.544 573.937 294.771 573.85C294.999 573.764 295.189 573.601 295.311 573.391C295.454 573.088 295.5 572.75 295.443 572.42C295.385 571.873 295.138 571.004 294.689 569.815C294.241 568.626 293.873 567.832 293.588 567.432C293.29 567.036 293.036 566.792 292.791 566.713C292.56 566.63 292.308 566.634 292.08 566.724H292.08ZM304.869 571.682L302.934 572.412L300.171 565.092C299.705 566.033 299.037 566.859 298.214 567.512L297.549 565.75C298.068 565.306 298.506 564.776 298.844 564.183C299.247 563.562 299.461 562.838 299.459 562.099L301.029 561.506L304.869 571.682ZM311.971 569.002L310.024 569.736L307.262 562.416C306.795 563.357 306.127 564.183 305.304 564.836L304.639 563.074C305.158 562.63 305.596 562.1 305.935 561.507C306.337 560.886 306.551 560.162 306.55 559.423L308.13 558.826L311.971 569.002ZM319.061 566.326L317.115 567.06L314.352 559.74C313.885 560.681 313.217 561.507 312.395 562.16L311.729 560.398C312.25 559.951 312.692 559.419 313.036 558.826C313.431 558.204 313.641 557.483 313.64 556.746L315.22 556.15L319.061 566.326ZM321.402 553.817C322.382 553.448 323.281 553.509 324.1 554C325.073 554.58 325.923 555.831 326.648 557.753C327.372 559.67 327.562 561.173 327.217 562.261C326.924 563.161 326.288 563.796 325.308 564.166C324.854 564.351 324.363 564.426 323.874 564.385C323.385 564.344 322.913 564.187 322.496 563.928C321.608 563.397 320.792 562.162 320.057 560.216C319.337 558.309 319.149 556.811 319.505 555.718C319.787 554.822 320.423 554.187 321.402 553.817ZM322.01 555.428C321.781 555.513 321.59 555.676 321.47 555.889C321.326 556.189 321.283 556.528 321.349 556.854C321.397 557.41 321.657 558.278 322.106 559.467C322.555 560.656 322.922 561.45 323.208 561.851C323.494 562.251 323.759 562.489 323.992 562.571C324.222 562.649 324.473 562.643 324.7 562.556C324.933 562.47 325.128 562.305 325.253 562.091C325.385 561.787 325.427 561.452 325.373 561.125C325.314 560.578 325.067 559.709 324.619 558.52C324.17 557.331 323.803 556.537 323.517 556.136C323.231 555.736 322.965 555.496 322.72 555.418C322.49 555.335 322.238 555.339 322.01 555.428ZM329.283 550.843C330.262 550.474 331.161 550.534 331.98 551.026C332.954 551.606 333.792 552.861 334.517 554.783C335.241 556.7 335.43 558.203 335.086 559.291C334.805 560.187 334.168 560.822 333.189 561.191C332.735 561.377 332.243 561.453 331.754 561.412C331.265 561.37 330.793 561.213 330.377 560.953C329.477 560.426 328.672 559.186 327.938 557.241C327.218 555.333 327.03 553.835 327.374 552.747C327.668 551.848 328.292 551.217 329.283 550.843ZM329.891 552.453C329.658 552.54 329.463 552.704 329.339 552.919C329.206 553.222 329.164 553.557 329.218 553.884C329.278 554.436 329.526 555.308 329.975 556.497C330.424 557.687 330.791 558.481 331.077 558.881C331.363 559.281 331.628 559.519 331.872 559.596C332.103 559.675 332.354 559.67 332.581 559.58C332.809 559.495 333.001 559.332 333.121 559.12C333.265 558.82 333.307 558.481 333.241 558.154C333.195 557.603 332.936 556.738 332.487 555.549C332.038 554.36 331.671 553.566 331.385 553.166C331.099 552.765 330.834 552.526 330.6 552.443C330.37 552.363 330.119 552.366 329.891 552.453ZM337.152 547.873C338.131 547.504 339.03 547.565 339.849 548.056C340.823 548.636 341.672 549.887 342.398 551.809C343.121 553.726 343.311 555.228 342.967 556.317C342.674 557.217 342.037 557.852 341.058 558.222C340.604 558.408 340.112 558.484 339.623 558.443C339.134 558.402 338.662 558.244 338.246 557.984C337.358 557.452 336.541 556.218 335.807 554.272C335.087 552.365 334.899 550.867 335.255 549.774C335.537 548.878 336.173 548.243 337.152 547.873ZM337.76 549.484C337.53 549.567 337.338 549.731 337.22 549.945C337.076 550.247 337.03 550.585 337.087 550.914C337.147 551.466 337.395 552.338 337.844 553.527C338.293 554.716 338.66 555.511 338.958 555.907C339.244 556.307 339.509 556.546 339.741 556.627C339.973 556.704 340.223 556.698 340.45 556.612C340.678 556.525 340.869 556.363 340.99 556.152C341.134 555.85 341.18 555.511 341.123 555.182C341.065 554.635 340.818 553.766 340.369 552.576C339.92 551.387 339.553 550.593 339.255 550.197C338.969 549.797 338.715 549.553 338.47 549.475C338.24 549.391 337.988 549.395 337.76 549.484H337.76ZM350.548 554.442L348.613 555.172L345.851 547.852C345.384 548.793 344.716 549.619 343.894 550.272L343.228 548.509C343.747 548.065 344.185 547.535 344.524 546.942C344.922 546.32 345.135 545.597 345.139 544.858L346.708 544.266L350.548 554.442ZM357.639 551.766L355.704 552.496L352.941 545.176C352.474 546.117 351.806 546.943 350.984 547.596L350.319 545.833C350.837 545.389 351.275 544.859 351.614 544.266C352.017 543.646 352.23 542.922 352.229 542.182L353.798 541.59L357.639 551.766ZM364.74 549.085L362.793 549.82L360.031 542.5C359.564 543.441 358.896 544.267 358.073 544.92L357.408 543.157C357.927 542.713 358.365 542.183 358.704 541.59C359.106 540.97 359.32 540.246 359.319 539.506L360.899 538.91L364.74 549.085ZM371.831 546.409L369.884 547.144L367.121 539.824C366.655 540.765 365.987 541.591 365.164 542.244L364.499 540.481C365.022 540.036 365.464 539.505 365.806 538.91C366.201 538.288 366.41 537.566 366.409 536.83L367.989 536.233L371.831 546.409ZM374.172 533.901C375.163 533.527 376.05 533.592 376.869 534.084C377.843 534.664 378.692 535.915 379.418 537.837C380.141 539.754 380.331 541.256 379.987 542.344C379.694 543.244 379.069 543.876 378.078 544.25C377.624 544.435 377.132 544.51 376.643 544.469C376.154 544.427 375.682 544.271 375.266 544.012C374.378 543.48 373.561 542.245 372.827 540.3C372.107 538.392 371.919 536.894 372.275 535.802C372.557 534.906 373.193 534.271 374.172 533.901ZM374.78 535.511C374.551 535.596 374.36 535.76 374.24 535.973C374.096 536.273 374.053 536.611 374.119 536.938C374.167 537.494 374.427 538.362 374.876 539.551C375.325 540.74 375.692 541.534 375.978 541.934C376.264 542.335 376.529 542.573 376.761 542.653C376.992 542.731 377.243 542.726 377.47 542.638C377.702 542.552 377.898 542.388 378.022 542.174C378.155 541.87 378.197 541.534 378.142 541.208C378.084 540.661 377.837 539.792 377.388 538.602C376.94 537.413 376.572 536.619 376.287 536.219C376.001 535.819 375.735 535.579 375.49 535.501C375.26 535.418 375.008 535.422 374.78 535.511ZM382.053 530.927C383.032 530.557 383.931 530.618 384.75 531.11C385.723 531.69 386.573 532.94 387.299 534.862C388.022 536.779 388.2 538.286 387.856 539.375C387.574 540.271 386.938 540.906 385.959 541.275C385.505 541.461 385.013 541.537 384.524 541.496C384.035 541.454 383.562 541.297 383.146 541.037C382.246 540.51 381.442 539.27 380.708 537.325C379.988 535.417 379.8 533.919 380.144 532.831C380.437 531.931 381.074 531.296 382.053 530.927ZM382.661 532.537C382.428 532.623 382.233 532.788 382.109 533.003C381.975 533.306 381.933 533.641 381.987 533.968C382.047 534.519 382.296 535.392 382.745 536.581C383.194 537.77 383.561 538.564 383.847 538.964C384.133 539.365 384.398 539.603 384.642 539.679C384.872 539.759 385.124 539.753 385.35 539.664C385.579 539.579 385.77 539.416 385.89 539.204C386.034 538.903 386.076 538.564 386.01 538.238C385.964 537.687 385.705 536.822 385.256 535.633C384.808 534.444 384.44 533.65 384.155 533.249C383.869 532.849 383.603 532.609 383.37 532.527C383.139 532.446 382.888 532.45 382.66 532.537H382.661ZM389.922 527.957C390.901 527.587 391.8 527.648 392.619 528.14C393.592 528.72 394.442 529.971 395.167 531.892C395.891 533.809 396.081 535.312 395.737 536.4C395.443 537.301 394.807 537.936 393.828 538.305C393.374 538.492 392.882 538.568 392.393 538.526C391.904 538.485 391.431 538.328 391.015 538.068C390.127 537.536 389.311 536.301 388.576 534.356C387.856 532.448 387.669 530.95 388.024 529.858C388.306 528.962 388.942 528.326 389.922 527.957ZM390.529 529.567C390.299 529.65 390.108 529.814 389.989 530.029C389.846 530.33 389.8 530.669 389.857 530.998C389.917 531.549 390.165 532.422 390.614 533.611C391.063 534.8 391.442 535.59 391.727 535.99C392.013 536.39 392.278 536.629 392.511 536.71C392.741 536.79 392.993 536.784 393.219 536.695C393.449 536.612 393.641 536.448 393.759 536.235C393.902 535.933 393.949 535.594 393.892 535.264C393.834 534.717 393.586 533.848 393.138 532.659C392.689 531.47 392.322 530.676 392.024 530.28C391.738 529.88 391.473 529.64 391.239 529.558C391.009 529.475 390.757 529.478 390.529 529.567Z" fill="#20238C"/>
<path d="M295.329 594.045L293.383 594.779L290.62 587.459C290.154 588.4 289.485 589.226 288.663 589.879L287.998 588.117C288.516 587.673 288.955 587.143 289.293 586.55C289.696 585.929 289.91 585.205 289.908 584.466L291.488 583.869L295.329 594.045ZM302.42 591.369L300.473 592.103L297.71 584.783C297.246 585.721 296.582 586.546 295.765 587.2L295.1 585.437C295.616 584.991 296.054 584.461 296.395 583.87C296.795 583.25 297.005 582.527 296.999 581.79L298.579 581.193L302.42 591.369ZM309.51 588.693L307.563 589.427L304.801 582.107C304.336 583.045 303.672 583.87 302.855 584.524L302.19 582.761C302.707 582.315 303.144 581.785 303.485 581.194C303.883 580.572 304.097 579.849 304.101 579.11L305.67 578.518L309.51 588.693ZM311.863 576.18C312.842 575.81 313.741 575.871 314.56 576.363C315.522 576.947 316.372 578.198 317.097 580.12C317.821 582.037 318.01 583.54 317.666 584.628C317.385 585.524 316.748 586.159 315.769 586.528C315.313 586.714 314.82 586.79 314.329 586.749C313.838 586.709 313.364 586.553 312.945 586.294C312.057 585.763 311.252 584.523 310.518 582.578C309.798 580.67 309.61 579.173 309.954 578.084C310.236 577.189 310.872 576.554 311.863 576.18ZM312.471 577.79C312.239 577.877 312.043 578.041 311.919 578.256C311.775 578.556 311.732 578.895 311.798 579.221C311.858 579.772 312.106 580.645 312.555 581.834C313.004 583.023 313.371 583.818 313.657 584.218C313.943 584.618 314.208 584.856 314.441 584.938C314.676 585.014 314.93 585.007 315.161 584.918C315.388 584.831 315.579 584.669 315.701 584.458C315.834 584.154 315.875 583.819 315.821 583.492C315.763 582.945 315.515 582.076 315.067 580.887C314.618 579.697 314.251 578.903 313.965 578.503C313.679 578.103 313.413 577.863 313.18 577.78C312.95 577.702 312.699 577.706 312.471 577.79ZM319.732 573.21C320.711 572.841 321.61 572.902 322.429 573.393C323.403 573.973 324.252 575.224 324.978 577.146C325.701 579.063 325.891 580.566 325.535 581.658C325.253 582.554 324.617 583.189 323.638 583.558C323.184 583.745 322.692 583.82 322.203 583.779C321.714 583.738 321.242 583.58 320.826 583.32C319.938 582.789 319.121 581.554 318.387 579.608C317.667 577.701 317.479 576.203 317.823 575.115C318.117 574.215 318.753 573.58 319.732 573.21ZM320.34 574.82C320.11 574.904 319.918 575.068 319.8 575.282C319.656 575.583 319.61 575.922 319.667 576.251C319.727 576.803 319.975 577.675 320.424 578.864C320.873 580.054 321.24 580.848 321.526 581.248C321.824 581.644 322.077 581.886 322.321 581.963C322.552 582.042 322.803 582.037 323.03 581.947C323.26 581.864 323.451 581.701 323.57 581.487C323.713 581.187 323.756 580.848 323.69 580.521C323.643 579.97 323.396 579.1 322.947 577.912C322.499 576.723 322.12 575.933 321.834 575.532C321.548 575.131 321.282 574.892 321.049 574.809C320.819 574.729 320.568 574.733 320.34 574.82L320.34 574.82ZM327.6 570.24C328.579 569.87 329.479 569.931 330.297 570.423C331.271 571.003 332.12 572.254 332.846 574.176C333.569 576.093 333.759 577.595 333.415 578.683C333.122 579.584 332.485 580.219 331.506 580.589C331.052 580.774 330.56 580.849 330.071 580.808C329.582 580.766 329.11 580.61 328.694 580.351C327.806 579.819 326.989 578.584 326.255 576.639C325.535 574.731 325.347 573.233 325.703 572.141C325.985 571.245 326.622 570.61 327.6 570.24ZM328.208 571.85C327.979 571.936 327.788 572.099 327.668 572.312C327.524 572.612 327.481 572.95 327.547 573.276C327.595 573.833 327.855 574.701 328.304 575.89C328.753 577.079 329.12 577.873 329.406 578.273C329.691 578.674 329.957 578.912 330.189 578.993C330.42 579.071 330.671 579.066 330.898 578.978C331.13 578.892 331.325 578.728 331.45 578.514C331.583 578.21 331.625 577.874 331.57 577.548C331.512 577.001 331.265 576.132 330.816 574.942C330.367 573.753 330 572.959 329.714 572.559C329.428 572.159 329.163 571.919 328.918 571.841C328.688 571.758 328.436 571.762 328.209 571.851L328.208 571.85ZM341.009 576.804L339.062 577.539L336.3 570.219C335.833 571.16 335.165 571.986 334.342 572.639L333.677 570.876C334.196 570.432 334.634 569.902 334.973 569.309C335.375 568.689 335.589 567.965 335.588 567.225L337.168 566.629L341.009 576.804ZM348.1 574.128L346.153 574.863L343.391 567.543C342.924 568.484 342.256 569.31 341.433 569.963L340.768 568.2C341.287 567.756 341.725 567.226 342.064 566.633C342.466 566.013 342.68 565.289 342.679 564.549L344.259 563.953L348.1 574.128ZM355.189 571.452L353.243 572.187L350.48 564.867C350.015 565.804 349.351 566.629 348.535 567.283L347.869 565.521C348.386 565.075 348.824 564.545 349.165 563.954C349.564 563.334 349.774 562.611 349.768 561.874L351.348 561.277L355.189 571.452ZM362.28 568.776L360.333 569.511L357.571 562.191C357.106 563.128 356.442 563.953 355.625 564.607L354.96 562.845C355.477 562.399 355.914 561.869 356.255 561.278C356.653 560.655 356.867 559.933 356.871 559.194L358.44 558.601L362.28 568.776ZM364.633 556.264C365.612 555.894 366.511 555.955 367.33 556.446C368.304 557.026 369.141 558.282 369.867 560.204C370.59 562.121 370.78 563.623 370.436 564.711C370.154 565.608 369.518 566.243 368.539 566.611C368.083 566.797 367.589 566.873 367.099 566.833C366.608 566.792 366.134 566.636 365.715 566.378C364.827 565.846 364.022 564.607 363.288 562.662C362.568 560.754 362.38 559.256 362.724 558.168C363.017 557.268 363.642 556.638 364.633 556.264ZM365.241 557.874C365.008 557.96 364.813 558.125 364.689 558.34C364.555 558.643 364.513 558.978 364.568 559.305C364.628 559.856 364.876 560.729 365.325 561.918C365.774 563.107 366.141 563.901 366.427 564.301C366.712 564.702 366.978 564.94 367.222 565.016C367.452 565.096 367.704 565.091 367.93 565.001C368.158 564.914 368.349 564.752 368.47 564.541C368.614 564.24 368.656 563.901 368.59 563.575C368.544 563.023 368.285 562.159 367.836 560.97C367.388 559.78 367.02 558.986 366.735 558.586C366.449 558.186 366.183 557.946 365.95 557.864C365.719 557.785 365.468 557.789 365.24 557.874H365.241ZM372.502 553.294C373.481 552.924 374.38 552.985 375.199 553.477C376.172 554.057 377.022 555.308 377.747 557.229C378.471 559.146 378.661 560.649 378.305 561.742C378.023 562.638 377.387 563.273 376.408 563.642C375.954 563.828 375.462 563.904 374.973 563.863C374.484 563.821 374.011 563.664 373.595 563.404C372.707 562.872 371.891 561.637 371.156 559.692C370.436 557.784 370.248 556.286 370.593 555.198C370.886 554.298 371.523 553.663 372.502 553.294ZM373.109 554.904C372.879 554.987 372.688 555.151 372.569 555.365C372.426 555.667 372.38 556.006 372.437 556.335C372.497 556.886 372.745 557.759 373.194 558.948C373.643 560.137 374.01 560.931 374.307 561.328C374.593 561.728 374.847 561.971 375.091 562.048C375.321 562.128 375.573 562.122 375.799 562.033C376.029 561.95 376.221 561.786 376.339 561.573C376.482 561.271 376.529 560.932 376.472 560.602C376.414 560.055 376.166 559.186 375.718 557.997C375.269 556.808 374.902 556.014 374.604 555.617C374.318 555.217 374.053 554.977 373.819 554.895C373.589 554.814 373.337 554.817 373.109 554.904ZM385.898 559.862L383.963 560.593L381.2 553.273C380.731 554.212 380.063 555.037 379.243 555.693L378.578 553.93C379.097 553.486 379.535 552.956 379.873 552.363C380.271 551.741 380.485 551.018 380.489 550.279L382.058 549.687L385.898 559.862ZM392.988 557.186L391.053 557.917L388.29 550.597C387.824 551.537 387.156 552.364 386.333 553.017L385.668 551.254C386.187 550.81 386.625 550.28 386.964 549.687C387.366 549.067 387.58 548.343 387.579 547.603L389.148 547.011L392.988 557.186ZM395.341 544.674C396.321 544.304 397.22 544.365 398.039 544.856C399.012 545.436 399.861 546.687 400.587 548.609C401.311 550.526 401.5 552.029 401.145 553.121C400.863 554.018 400.226 554.653 399.247 555.021C398.793 555.208 398.301 555.284 397.812 555.242C397.323 555.201 396.851 555.044 396.435 554.783C395.547 554.252 394.73 553.017 393.996 551.072C393.276 549.164 393.088 547.666 393.432 546.578C393.726 545.678 394.362 545.043 395.341 544.674ZM395.949 546.284C395.719 546.367 395.527 546.531 395.409 546.745C395.266 547.047 395.219 547.385 395.276 547.714C395.336 548.266 395.585 549.139 396.034 550.328C396.482 551.517 396.849 552.311 397.135 552.711C397.433 553.107 397.686 553.35 397.931 553.426C398.161 553.506 398.412 553.5 398.639 553.411C398.869 553.328 399.061 553.164 399.179 552.951C399.323 552.649 399.369 552.31 399.312 551.98C399.254 551.433 398.995 550.569 398.546 549.38C398.097 548.192 397.73 547.397 397.444 546.997C397.158 546.596 396.893 546.357 396.659 546.274C396.429 546.193 396.177 546.197 395.949 546.284Z" fill="#20238C"/>
<path fill-rule="evenodd" clip-rule="evenodd" d="M331.731 524.372C329.422 525.811 326.827 526.73 324.126 527.067C323.925 527.089 323.73 527.151 323.554 527.25C323.377 527.348 323.221 527.48 323.096 527.639C322.97 527.798 322.878 527.981 322.824 528.176C322.769 528.371 322.754 528.575 322.779 528.775C322.805 528.976 322.869 529.17 322.97 529.346C323.071 529.521 323.205 529.675 323.366 529.798C323.527 529.921 323.71 530.011 323.906 530.063C324.102 530.115 324.306 530.127 324.506 530.099C327.646 529.709 330.662 528.64 333.346 526.966C333.687 526.75 333.929 526.409 334.019 526.015C334.109 525.622 334.04 525.209 333.826 524.867C333.613 524.525 333.273 524.28 332.881 524.188C332.488 524.095 332.075 524.161 331.731 524.372ZM340.796 512.142C339.969 514.782 338.699 517.261 337.041 519.474C336.92 519.635 336.832 519.818 336.781 520.013C336.731 520.207 336.72 520.41 336.748 520.609C336.775 520.808 336.842 521 336.944 521.173C337.047 521.346 337.182 521.498 337.342 521.619C337.503 521.74 337.686 521.828 337.88 521.879C338.075 521.929 338.278 521.94 338.477 521.912C338.676 521.884 338.868 521.817 339.041 521.715C339.214 521.613 339.366 521.478 339.487 521.318C341.346 518.825 342.773 516.039 343.709 513.074C343.827 512.689 343.789 512.272 343.603 511.915C343.417 511.558 343.097 511.289 342.713 511.167C342.329 511.044 341.913 511.078 341.554 511.26C341.195 511.443 340.923 511.76 340.796 512.142ZM316.898 526.628C314.21 525.973 311.652 524.867 309.332 523.358C308.99 523.139 308.575 523.065 308.178 523.152C307.782 523.239 307.436 523.48 307.217 523.822C306.998 524.165 306.924 524.58 307.011 524.976C307.098 525.373 307.339 525.719 307.681 525.938C310.291 527.62 313.161 528.859 316.176 529.604C316.57 529.699 316.985 529.633 317.331 529.422C317.677 529.21 317.925 528.871 318.02 528.477C318.116 528.083 318.051 527.667 317.841 527.321C317.631 526.974 317.291 526.726 316.898 526.629V526.628ZM341.546 496.47C342.084 499.224 342.278 502.034 342.126 504.835C342.104 505.24 342.243 505.637 342.513 505.94C342.783 506.242 343.162 506.425 343.567 506.448C343.972 506.471 344.369 506.333 344.672 506.063C344.975 505.794 345.159 505.415 345.183 505.01C345.347 501.954 345.131 498.889 344.539 495.886C344.502 495.688 344.427 495.499 344.317 495.33C344.207 495.161 344.065 495.015 343.898 494.901C343.731 494.788 343.544 494.708 343.346 494.668C343.149 494.627 342.945 494.626 342.747 494.665C342.549 494.703 342.361 494.781 342.193 494.893C342.025 495.005 341.881 495.149 341.77 495.317C341.658 495.484 341.58 495.673 341.542 495.871C341.504 496.069 341.505 496.273 341.546 496.47ZM303.622 518.596C301.699 516.551 300.037 514.273 298.677 511.816C298.581 511.641 298.451 511.486 298.294 511.361C298.138 511.236 297.958 511.143 297.766 511.088C297.574 511.032 297.372 511.015 297.173 511.038C296.974 511.06 296.782 511.122 296.607 511.219C296.252 511.417 295.99 511.746 295.878 512.136C295.766 512.526 295.813 512.944 296.008 513.299C297.487 515.979 299.295 518.462 301.391 520.692C301.668 520.987 302.051 521.16 302.455 521.173C302.86 521.185 303.253 521.037 303.548 520.761C303.841 520.481 304.013 520.098 304.026 519.694C304.04 519.289 303.895 518.895 303.622 518.596ZM335.178 482C336.85 484.26 338.25 486.709 339.348 489.297C339.426 489.482 339.54 489.649 339.683 489.79C339.826 489.931 339.995 490.042 340.181 490.117C340.367 490.192 340.565 490.23 340.766 490.228C340.966 490.227 341.165 490.185 341.349 490.107C341.534 490.029 341.701 489.915 341.842 489.772C341.982 489.629 342.093 489.46 342.169 489.274C342.244 489.088 342.282 488.89 342.28 488.689C342.278 488.489 342.237 488.29 342.159 488.106C340.966 485.295 339.449 482.633 337.639 480.174C337.394 479.856 337.034 479.647 336.636 479.592C336.238 479.537 335.835 479.64 335.513 479.879C335.19 480.119 334.975 480.475 334.912 480.871C334.85 481.268 334.946 481.673 335.179 482H335.178ZM295.738 504.913C294.907 502.228 294.4 499.454 294.226 496.65C294.214 496.45 294.163 496.254 294.075 496.073C293.988 495.893 293.865 495.731 293.715 495.598C293.565 495.465 293.391 495.362 293.201 495.297C293.012 495.231 292.811 495.203 292.611 495.215C292.411 495.227 292.215 495.278 292.034 495.366C291.854 495.453 291.692 495.575 291.559 495.725C291.426 495.875 291.323 496.05 291.258 496.239C291.192 496.429 291.164 496.63 291.176 496.83C291.362 499.88 291.913 502.897 292.818 505.815C292.94 506.203 293.211 506.526 293.571 506.714C293.932 506.903 294.352 506.941 294.74 506.82C294.931 506.761 295.108 506.665 295.262 506.536C295.416 506.408 295.542 506.251 295.635 506.074C295.728 505.896 295.785 505.703 295.802 505.503C295.82 505.304 295.798 505.103 295.737 504.912L295.738 504.913ZM323.006 472.214C325.57 473.293 327.952 474.758 330.071 476.56C330.225 476.689 330.402 476.786 330.594 476.847C330.785 476.907 330.986 476.929 331.186 476.912C331.386 476.894 331.58 476.838 331.758 476.745C331.936 476.653 332.094 476.526 332.223 476.372C332.352 476.219 332.45 476.041 332.51 475.85C332.57 475.658 332.592 475.457 332.575 475.257C332.558 475.057 332.501 474.863 332.408 474.685C332.316 474.507 332.189 474.349 332.035 474.22C329.677 472.224 327.03 470.596 324.184 469.393C323.81 469.236 323.389 469.235 323.014 469.389C322.639 469.543 322.341 469.84 322.184 470.214C322.028 470.588 322.027 471.009 322.181 471.384C322.335 471.759 322.632 472.058 323.006 472.214ZM294.66 489.202C295.128 486.466 296.019 483.821 297.3 481.359C297.396 481.182 297.455 480.987 297.475 480.786C297.495 480.586 297.475 480.383 297.416 480.19C297.357 479.997 297.261 479.818 297.133 479.662C297.004 479.507 296.846 479.378 296.668 479.284C296.49 479.19 296.295 479.132 296.094 479.113C295.893 479.095 295.691 479.116 295.498 479.177C295.306 479.237 295.127 479.334 294.973 479.464C294.818 479.593 294.691 479.752 294.598 479.931C293.173 482.675 292.176 485.621 291.643 488.666C291.573 489.066 291.664 489.477 291.897 489.809C292.129 490.142 292.485 490.368 292.884 490.439C293.284 490.51 293.695 490.42 294.028 490.188C294.361 489.956 294.589 489.601 294.661 489.202H294.66ZM307.707 471.762L307.929 471.676C310.478 470.72 313.203 470.321 315.92 470.508C316.321 470.529 316.715 470.391 317.015 470.124C317.316 469.857 317.499 469.483 317.526 469.081C317.552 468.68 317.419 468.285 317.156 467.981C316.893 467.677 316.52 467.489 316.12 467.457C313.068 467.248 310.006 467.676 307.129 468.714L306.849 468.816C304.169 469.828 301.714 471.355 299.621 473.311C299.325 473.588 299.15 473.971 299.136 474.376C299.122 474.781 299.269 475.175 299.546 475.472C299.822 475.769 300.205 475.943 300.61 475.957C301.016 475.972 301.41 475.824 301.706 475.548C303.45 473.919 305.486 472.634 307.707 471.76L307.707 471.762ZM325.098 513.367C324.698 513.571 324.287 513.753 323.867 513.912C319.339 515.621 314.356 514.418 310.51 511.263C310.355 511.136 310.176 511.041 309.985 510.983C309.793 510.925 309.592 510.905 309.393 510.925C309.193 510.944 309 511.003 308.823 511.097C308.647 511.192 308.49 511.32 308.363 511.475C308.236 511.63 308.141 511.808 308.083 512C308.025 512.192 308.005 512.393 308.025 512.592C308.045 512.791 308.103 512.985 308.198 513.162C308.292 513.338 308.421 513.494 308.575 513.621C313.275 517.489 319.395 518.868 324.947 516.772C325.471 516.575 325.984 516.348 326.483 516.092C326.664 516.003 326.826 515.878 326.958 515.725C327.091 515.573 327.192 515.396 327.255 515.204C327.319 515.012 327.344 514.81 327.329 514.608C327.314 514.407 327.259 514.21 327.167 514.03C327.076 513.85 326.949 513.69 326.796 513.559C326.642 513.428 326.463 513.329 326.271 513.267C326.079 513.206 325.876 513.183 325.675 513.2C325.473 513.217 325.278 513.274 325.098 513.368V513.367ZM330.9 493.293C330.99 493.509 331.076 493.727 331.157 493.946C333.118 499.142 332.59 504.596 330.121 508.637C330.017 508.808 329.947 508.999 329.916 509.197C329.885 509.395 329.894 509.598 329.941 509.793C329.989 509.988 330.074 510.172 330.192 510.335C330.311 510.497 330.46 510.634 330.632 510.738C330.803 510.843 330.994 510.913 331.192 510.944C331.391 510.975 331.593 510.966 331.788 510.919C331.984 510.871 332.167 510.786 332.33 510.667C332.492 510.549 332.629 510.4 332.734 510.228C335.648 505.451 336.338 499.008 334.019 492.866C333.923 492.611 333.827 492.357 333.714 492.11C333.638 491.924 333.525 491.755 333.383 491.612C333.24 491.47 333.071 491.357 332.885 491.28C332.699 491.204 332.499 491.164 332.298 491.165C332.097 491.166 331.898 491.206 331.712 491.284C331.526 491.362 331.358 491.476 331.217 491.62C331.075 491.763 330.964 491.933 330.888 492.119C330.813 492.306 330.775 492.506 330.777 492.707C330.779 492.909 330.821 493.108 330.9 493.293ZM306.049 505.668C305.726 505.045 305.441 504.403 305.195 503.745C303.423 499.05 303.691 494.143 305.575 490.258C305.752 489.893 305.776 489.473 305.643 489.089C305.51 488.706 305.23 488.391 304.865 488.214C304.5 488.037 304.08 488.013 303.696 488.146C303.313 488.279 302.999 488.559 302.822 488.924C300.597 493.506 300.243 499.289 302.332 504.825C302.62 505.589 302.951 506.336 303.325 507.062C303.512 507.419 303.833 507.688 304.217 507.81C304.601 507.932 305.018 507.897 305.377 507.713C305.736 507.53 306.008 507.212 306.134 506.829C306.259 506.446 306.229 506.029 306.049 505.668ZM312.329 483.84L312.493 483.776C317.438 481.91 322.929 483.516 326.877 487.356C327.168 487.636 327.559 487.788 327.962 487.781C328.366 487.774 328.751 487.607 329.032 487.318C329.314 487.028 329.47 486.639 329.466 486.236C329.462 485.832 329.299 485.446 329.011 485.162C324.258 480.549 317.662 478.695 311.693 480.813L311.414 480.915C310.357 481.314 309.349 481.829 308.406 482.451C308.239 482.563 308.095 482.706 307.983 482.873C307.871 483.039 307.793 483.227 307.753 483.423C307.713 483.62 307.713 483.823 307.752 484.02C307.79 484.218 307.868 484.405 307.979 484.573C308.09 484.74 308.233 484.884 308.4 484.996C308.567 485.108 308.754 485.186 308.951 485.226C309.148 485.265 309.351 485.266 309.548 485.227C309.745 485.188 309.933 485.111 310.1 485C310.8 484.536 311.547 484.147 312.329 483.84L312.329 483.84ZM321.155 498.733C320.326 499.189 319.466 499.585 318.58 499.917C317.482 500.338 316.347 500.654 315.189 500.861C314.991 500.895 314.802 500.967 314.632 501.074C314.462 501.181 314.315 501.32 314.199 501.484C314.082 501.648 314 501.833 313.955 502.029C313.911 502.224 313.905 502.427 313.939 502.625C313.972 502.823 314.045 503.012 314.152 503.182C314.258 503.352 314.398 503.499 314.561 503.616C314.725 503.732 314.91 503.814 315.106 503.859C315.302 503.904 315.504 503.909 315.702 503.876C317.053 503.634 318.378 503.266 319.659 502.776C320.684 502.391 321.68 501.933 322.639 501.404C322.993 501.208 323.255 500.878 323.367 500.489C323.478 500.099 323.43 499.681 323.234 499.326C323.037 498.972 322.708 498.71 322.318 498.599C321.928 498.487 321.51 498.535 321.156 498.732L321.155 498.733ZM317.418 497.911L317.771 497.774C319.962 496.947 322.037 496.556 323.425 496.687C323.626 496.707 323.829 496.688 324.023 496.63C324.216 496.571 324.396 496.475 324.552 496.347C324.708 496.219 324.837 496.061 324.932 495.883C325.027 495.704 325.085 495.509 325.104 495.308C325.123 495.107 325.102 494.904 325.041 494.711C324.981 494.518 324.884 494.339 324.754 494.184C324.625 494.029 324.466 493.902 324.286 493.809C324.107 493.716 323.911 493.659 323.71 493.642C322.038 493.488 319.563 493.866 316.946 494.82L316.692 494.914C314.413 495.774 312.492 496.892 311.24 497.969C311.086 498.1 310.959 498.259 310.867 498.439C310.775 498.619 310.72 498.815 310.704 499.017C310.688 499.218 310.713 499.42 310.776 499.612C310.839 499.804 310.939 499.982 311.071 500.135C311.203 500.287 311.364 500.413 311.544 500.503C311.725 500.593 311.922 500.647 312.123 500.661C312.325 500.675 312.527 500.649 312.718 500.584C312.91 500.52 313.086 500.418 313.238 500.284C314.206 499.449 315.685 498.6 317.418 497.911Z" fill="#6562F9"/>
<path fill-rule="evenodd" clip-rule="evenodd" d="M217.495 283.809C187.474 302.349 120.953 360.568 130.539 404.578C144.396 468.158 210.072 535.223 210.072 535.223C212.592 557.214 231.376 562.267 235.317 563.681C238.721 564.899 225.392 533.997 226.83 531.521C231.458 523.566 240.57 535.604 242.682 527.826C244.02 522.915 232.374 513.916 222.019 515.064C222.019 515.064 175.237 427.491 188.544 388.172C201.862 348.852 295.476 351.794 301.894 279.148C303.609 259.734 295.926 235.376 217.495 283.809Z" fill="#FB9C9A"/>
<mask id="mask1_136_149" style="mask-type:luminance" maskUnits="userSpaceOnUse" x="129" y="255" width="174" height="309">
<path d="M217.495 283.809C187.474 302.349 120.953 360.568 130.539 404.578C144.396 468.158 210.072 535.223 210.072 535.223C212.592 557.214 231.376 562.267 235.317 563.681C238.721 564.899 225.392 533.997 226.83 531.521C231.458 523.566 240.57 535.604 242.682 527.826C244.02 522.915 232.374 513.916 222.019 515.064C222.019 515.064 175.237 427.491 188.544 388.172C201.862 348.852 295.476 351.794 301.894 279.148C303.609 259.734 295.926 235.376 217.495 283.809Z" fill="white"/>
</mask>
<g mask="url(#mask1_136_149)">
<path fill-rule="evenodd" clip-rule="evenodd" d="M251.299 467.574C286.922 424.112 344.061 389.928 350.424 329.118C354.889 286.452 326.3 255.558 288.46 240.621C229.537 217.367 153.865 222.806 99.9616 256.444C22.5652 304.744 16.6914 409.684 67.0692 479.644C82.6818 501.322 103.302 521.705 129.447 529.716C148.977 535.701 185.25 537.274 197.758 516.031C201.886 509.025 197.372 499.844 202.521 493.47C206.43 488.619 213.201 489.011 218.026 485.608C225.946 480.048 224.805 466.109 221.87 458.105L251.299 467.574Z" fill="url(#paint6_linear_136_149)"/>
</g>
<path fill-rule="evenodd" clip-rule="evenodd" d="M739.223 230.908C739.223 230.908 702.068 219.97 675.835 191.68C646.369 218.177 608.002 230.908 608.002 230.908V290.66C608.002 302.33 610.976 313.807 616.644 324.008C622.311 334.209 630.486 342.797 640.395 348.962C641.469 349.638 642.553 350.305 643.618 350.972C652.393 356.431 662.509 359.351 672.844 359.408C683.178 359.465 693.326 356.657 702.161 351.296C713.474 344.432 722.828 334.768 729.32 323.237C735.812 311.706 739.222 298.696 739.223 285.463V230.908Z" fill="url(#paint7_linear_136_149)"/>
<path fill-rule="evenodd" clip-rule="evenodd" d="M721.845 243.834C721.845 243.834 694.531 235.753 675.246 214.852C653.585 234.428 625.379 243.834 625.379 243.834V288.063C625.379 296.663 627.565 305.123 631.734 312.646C635.902 320.169 641.914 326.509 649.206 331.069C649.982 331.549 650.759 332.034 651.528 332.52C657.983 336.556 665.434 338.716 673.047 338.758C680.659 338.801 688.134 336.724 694.633 332.76H694.64C702.948 327.692 709.814 320.573 714.578 312.086C719.342 303.6 721.845 294.031 721.845 284.299V243.834Z" fill="white"/>
<path fill-rule="evenodd" clip-rule="evenodd" d="M646.538 290.89L664.588 315.074C666.095 317.088 668.393 318.221 670.782 318.131C671.991 318.074 673.167 317.724 674.212 317.113C675.256 316.502 676.137 315.648 676.779 314.622L710.49 262.436C712.879 258.73 712.027 253.632 708.572 251.058C705.118 248.485 700.384 249.409 697.98 253.115L670.082 296.302L658.409 280.663C655.791 277.143 650.997 276.576 647.725 279.398C644.437 282.22 643.92 287.37 646.538 290.89Z" fill="url(#paint8_linear_136_149)"/>
<path fill-rule="evenodd" clip-rule="evenodd" d="M601.54 289.778C602.635 283.598 606.147 277.281 608.224 276.556C622.084 271.735 629.422 285.589 615.135 289.885C608.224 291.965 601.301 309.807 601.301 309.807C601.301 309.807 600.71 294.518 601.54 289.778Z" fill="#FB9C9A"/>
<path fill-rule="evenodd" clip-rule="evenodd" d="M345.37 177.322C326.998 177.322 313.603 194.19 316.217 217.087C318.072 233.313 338.575 250.76 355.38 252.405C369.232 253.76 374.655 239.705 374.655 216.661C374.655 193.617 363.73 177.322 345.37 177.322Z" fill="url(#paint9_linear_136_149)"/>
<path fill-rule="evenodd" clip-rule="evenodd" d="M352.389 236.936C352.738 235.334 354.092 233.914 355.198 232.78C356.174 231.783 357.193 230.815 358.401 230.109C359.118 229.659 359.898 229.317 360.715 229.093C365.475 227.949 367.746 231.984 371.443 233.942C372.869 234.698 374.398 234.834 375.984 234.891C380.497 241.771 372.491 249.301 366.624 251.755C363.699 252.982 356.057 262.694 346.741 251.529C344.63 249.005 333.19 249.769 336.77 236.94C337.702 233.583 336.348 229.307 336.101 225.851C335.737 220.785 336.144 214.891 331.195 211.785C330.414 211.299 329.585 210.896 328.721 210.581C328.11 210.355 327.411 209.872 326.829 210.147C322.535 212.143 329.594 220 319.012 223.228C319.696 226.735 316.334 229.196 313.248 229.662C308.415 230.393 303.233 228.295 300.031 224.624C297.076 221.233 293.496 215.953 292.884 211.574C292.142 206.211 292.404 194.577 297.382 187.69C301.268 182.313 307.003 178.136 313.845 178.555C313.772 177.197 314.674 175.842 315.373 174.755C317.017 172.201 319.096 169.956 321.516 168.122C325.402 165.211 330.205 163.043 335.082 162.676C341.617 162.185 348.604 165.803 351.443 171.823C352.68 170.496 354.558 170.069 356.275 169.73C360.482 168.899 364.441 169.425 368.182 171.586C376.29 176.278 379.084 185.423 375.664 193.894C374.441 193.5 373.015 193.491 371.748 193.308C368.691 192.871 379.186 199.368 357.876 203.117C352.331 204.092 344.106 199.854 340.104 205.068C337.484 208.469 339.304 212.529 339.842 216.268C340.322 219.613 340.074 223.032 340.7 226.355C341.588 231.083 345.213 236.875 350.293 237.935L352.389 236.936Z" fill="url(#paint10_linear_136_149)"/>
<defs>
<linearGradient id="paint0_linear_136_149" x1="592.782" y1="415.757" x2="258.534" y2="690.426" gradientUnits="userSpaceOnUse">
<stop stop-color="#E3DBF9"/>
<stop offset="0.54" stop-color="#CCBBFA"/>
<stop offset="1" stop-color="#7848FC"/>
</linearGradient>
<linearGradient id="paint1_linear_136_149" x1="473.47" y1="386.54" x2="366.329" y2="560.337" gradientUnits="userSpaceOnUse">
<stop stop-color="#E3DBF9"/>
<stop offset="0.54" stop-color="#CCBBFA"/>
<stop offset="1" stop-color="#7848FC"/>
</linearGradient>
<linearGradient id="paint2_linear_136_149" x1="48.7066" y1="330.64" x2="340.2" y2="570.033" gradientUnits="userSpaceOnUse">
<stop stop-color="#E3DBF9"/>
<stop offset="0.56" stop-color="#CDBDFA"/>
<stop offset="1" stop-color="#7848FC"/>
</linearGradient>
<linearGradient id="paint3_linear_136_149" x1="451.174" y1="308.854" x2="469.635" y2="533.59" gradientUnits="userSpaceOnUse">
<stop stop-color="#6880E4"/>
<stop offset="0.45" stop-color="#6880E4"/>
<stop offset="1" stop-color="#6880E4"/>
</linearGradient>
<linearGradient id="paint4_linear_136_149" x1="347.576" y1="222.029" x2="298.853" y2="472.219" gradientUnits="userSpaceOnUse">
<stop stop-color="#6880E4"/>
<stop offset="1" stop-color="#050751"/>
</linearGradient>
<linearGradient id="paint5_linear_136_149" x1="312.044" y1="400.263" x2="295.247" y2="559.12" gradientUnits="userSpaceOnUse">
<stop stop-color="#E3E3FE"/>
<stop offset="0.47" stop-color="#BBBBFE"/>
<stop offset="1" stop-color="#4F4FFF"/>
</linearGradient>
<linearGradient id="paint6_linear_136_149" x1="284.718" y1="243.794" x2="104.643" y2="435.174" gradientUnits="userSpaceOnUse">
<stop stop-color="#6880E4"/>
<stop offset="0.56" stop-color="#6880E4"/>
<stop offset="1" stop-color="#6880E4"/>
</linearGradient>
<linearGradient id="paint7_linear_136_149" x1="712.466" y1="193.334" x2="589.593" y2="424.155" gradientUnits="userSpaceOnUse">
<stop stop-color="#6880E4"/>
<stop offset="0.6" stop-color="#6880E4"/>
<stop offset="0.81" stop-color="#6880E4"/>
<stop offset="1" stop-color="#6880E4"/>
</linearGradient>
<linearGradient id="paint8_linear_136_149" x1="704.408" y1="229.692" x2="627.91" y2="355.499" gradientUnits="userSpaceOnUse">
<stop stop-color="#AADBFF"/>
<stop offset="0.47" stop-color="#85CBFF"/>
<stop offset="1" stop-color="#22A1FF"/>
</linearGradient>
<linearGradient id="paint9_linear_136_149" x1="368.112" y1="184.027" x2="318.322" y2="260.117" gradientUnits="userSpaceOnUse">
<stop stop-color="#FB9C9A"/>
<stop offset="0.64" stop-color="#FC8886"/>
<stop offset="0.84" stop-color="#FD5450"/>
<stop offset="1" stop-color="#FF1712"/>
</linearGradient>
<linearGradient id="paint10_linear_136_149" x1="353.282" y1="254.175" x2="322.428" y2="156.533" gradientUnits="userSpaceOnUse">
<stop/>
<stop offset="0.53" stop-color="#121212"/>
<stop offset="1" stop-color="#4D4D4D"/>
</linearGradient>
</defs>
</svg>
