<svg width="270" height="253" viewBox="0 0 270 253" fill="none" xmlns="http://www.w3.org/2000/svg">
<rect width="270" height="253" rx="41" fill="#06C69A"/>
<path d="M89.4359 182.67C89.101 182.67 88.7739 182.54 88.5281 182.299C88.1971 181.974 88.0645 181.498 88.1799 181.049C88.8355 178.504 92.255 165.658 95.2015 162.712C96.9157 160.997 99.1781 160.053 101.572 160.053C102.302 160.053 102.984 160.138 103.6 160.304L103.61 160.307C103.792 160.348 103.998 160.394 104.224 160.47L104.282 160.487C104.302 160.493 104.322 160.499 104.342 160.505C104.574 160.559 104.795 160.635 105.002 160.73C105.156 160.784 105.292 160.845 105.421 160.918C105.62 161.01 105.809 161.111 105.982 161.205C106.053 161.234 106.122 161.268 106.185 161.309C106.456 161.482 106.762 161.678 107.082 161.928C107.427 162.175 107.728 162.438 108 162.73C109.233 163.97 110.1 165.587 110.441 167.289C110.45 167.336 110.457 167.383 110.461 167.431C111.027 170.362 110.105 173.368 107.983 175.492C106.576 176.918 102.715 178.645 96.5117 180.622C95.2453 181.011 90.9004 182.31 89.7838 182.622C89.6694 182.654 89.552 182.67 89.4359 182.67ZM101.572 162.647C99.8706 162.647 98.2595 163.321 97.0353 164.546C95.6412 165.94 93.3473 171.934 91.2794 179.484C92.9394 178.992 94.9707 178.383 95.7374 178.147C103.612 175.637 105.638 174.176 106.142 173.665C107.678 172.128 108.333 169.954 107.899 167.845C107.889 167.799 107.882 167.752 107.878 167.705C107.622 166.526 107.011 165.408 106.148 164.546C106.136 164.534 106.124 164.522 106.113 164.509C105.953 164.337 105.771 164.178 105.554 164.025C105.536 164.012 105.518 163.999 105.501 163.985C105.311 163.835 105.108 163.7 104.908 163.572C104.887 163.562 104.866 163.551 104.845 163.54C104.658 163.437 104.465 163.331 104.291 163.253C104.243 163.232 104.197 163.207 104.152 163.18C104.147 163.178 104.131 163.174 104.115 163.168C104.052 163.148 103.991 163.123 103.932 163.094C103.878 163.067 103.804 163.042 103.731 163.026C103.69 163.017 103.649 163.006 103.609 162.993L103.551 162.976C103.499 162.961 103.446 162.945 103.402 162.93C103.299 162.896 103.178 162.868 103.038 162.837L102.999 162.828C102.979 162.823 102.959 162.819 102.94 162.813C102.541 162.703 102.081 162.647 101.572 162.647Z" fill="white"/>
<path d="M109.207 169.055C108.985 169.055 108.763 168.998 108.563 168.884C108.213 168.684 107.979 168.334 107.923 167.94C107.903 167.867 107.888 167.789 107.879 167.712C107.624 166.531 107.012 165.41 106.148 164.546C106.136 164.534 106.124 164.522 106.113 164.509C105.953 164.337 105.77 164.178 105.554 164.025C105.536 164.012 105.518 163.999 105.501 163.985C105.291 163.819 105.106 163.688 104.94 163.585C104.881 163.56 104.825 163.53 104.772 163.497C104.639 163.412 104.495 163.346 104.291 163.253C104.244 163.232 104.197 163.207 104.152 163.18C104.147 163.179 104.132 163.174 104.115 163.169C104.071 163.155 104.028 163.138 103.986 163.119C103.869 163.067 103.795 163.04 103.731 163.027C103.69 163.018 103.65 163.007 103.61 162.994L103.552 162.977C103.499 162.961 103.447 162.945 103.403 162.931C103.346 162.911 103.29 162.888 103.236 162.862C103.228 162.859 103.221 162.857 103.22 162.856C102.842 162.735 102.54 162.447 102.402 162.075C102.263 161.703 102.303 161.287 102.509 160.948C105.379 156.225 109.976 150.138 115.454 143.807C115.873 143.323 116.585 143.217 117.126 143.559C119.273 144.914 121.216 146.455 122.903 148.14C124.708 149.947 126.291 151.954 127.611 154.108C127.942 154.65 127.833 155.352 127.352 155.767C120.696 161.506 114.486 166.162 109.864 168.877C109.662 168.996 109.435 169.055 109.207 169.055ZM108 162.73C108.858 163.592 109.538 164.637 109.987 165.765C114.089 163.183 119.26 159.266 124.806 154.534C123.72 152.903 122.467 151.373 121.069 149.974C119.766 148.672 118.291 147.461 116.675 146.364C112.111 151.699 108.225 156.804 105.55 160.976C105.695 161.044 105.855 161.123 106.023 161.222C106.06 161.238 106.095 161.255 106.129 161.275C106.427 161.444 106.739 161.659 107.083 161.928C107.428 162.176 107.729 162.439 108 162.73Z" fill="white"/>
<path d="M126.505 156.082C126.443 156.082 126.38 156.077 126.318 156.069C125.937 156.013 125.6 155.791 125.399 155.462C124.186 153.483 122.729 151.636 121.069 149.974C119.519 148.426 117.726 147.005 115.741 145.753C115.419 145.549 115.202 145.213 115.149 144.835C115.097 144.458 115.213 144.075 115.467 143.791C127.886 129.908 139.279 119.506 150.297 111.99C158.273 106.59 161.904 105.784 163.358 105.784C164.033 105.784 164.53 105.953 164.878 106.299C166.437 107.857 164.311 113.3 159.194 120.859C156.078 125.433 150.803 131.902 144.337 139.077C143.665 139.813 139.801 143.946 137.943 145.932L136.998 146.943C136.988 146.953 136.979 146.963 136.97 146.972C134.625 149.331 132.423 151.274 130.093 153.331C129.204 154.116 128.301 154.912 127.372 155.749C127.133 155.965 126.823 156.082 126.505 156.082ZM118.404 144.404C120.049 145.544 121.558 146.796 122.903 148.14C124.34 149.578 125.636 151.143 126.77 152.808C127.312 152.326 127.846 151.854 128.376 151.386C130.669 149.362 132.836 147.45 135.116 145.157L136.049 144.16C137.902 142.178 141.76 138.053 142.416 137.334C148.8 130.249 153.999 123.879 157.048 119.402C161.39 112.988 162.462 109.76 162.721 108.452C161.425 108.702 158.216 109.761 151.755 114.135C141.212 121.327 130.291 131.237 118.404 144.404ZM197.271 97.2745H194.758L163.479 96.8867L75.453 95.7756H72.9565C72.2403 95.7756 71.6597 95.195 71.6597 94.4788V62.4359C71.6597 60.5399 73.308 58.9976 75.334 58.9976H194.877C196.912 58.9976 198.569 60.5402 198.569 62.4359V95.9776C198.568 96.6938 197.988 97.2745 197.271 97.2745ZM74.2534 93.1819H75.4692L163.512 94.293L194.775 94.6807H195.975V62.4359C195.975 61.97 195.482 61.5913 194.876 61.5913H75.3344C74.7485 61.5913 74.2537 61.9781 74.2537 62.4359L74.2534 93.1819Z" fill="white"/>
<path d="M89.4356 182.67H72.9565C72.2403 182.67 71.6597 182.089 71.6597 181.373V94.4788C71.6597 93.7626 72.2403 93.1819 72.9565 93.1819H75.4692L163.512 94.293C164.228 94.3021 164.801 94.8895 164.792 95.6054L164.655 107.097C164.647 107.807 164.068 108.378 163.358 108.378C162.84 108.378 159.849 108.656 151.755 114.136C140.916 121.529 129.678 131.796 117.4 145.521C112.269 151.452 107.926 157.159 105.109 161.671C105.114 161.869 105.073 162.071 104.982 162.261C104.699 162.85 104.022 163.137 103.401 162.93C103.3 162.896 103.179 162.869 103.039 162.837L102.999 162.828C102.98 162.824 102.96 162.819 102.94 162.813C102.541 162.703 102.08 162.647 101.571 162.647C99.8703 162.647 98.2592 163.321 97.035 164.546C95.5073 166.073 92.8986 173.126 90.6913 181.696C90.5441 182.269 90.0273 182.67 89.4356 182.67ZM74.2534 180.076H88.4351C89.4739 176.178 92.5319 165.381 95.2015 162.712C96.9157 160.997 99.1781 160.053 101.572 160.053C102.068 160.053 102.543 160.092 102.99 160.169C105.879 155.565 110.273 149.795 115.454 143.807C127.887 129.908 139.28 119.506 150.298 111.99C156.535 107.767 160.115 106.353 162.075 105.938L162.183 96.8695L75.4534 95.775H74.2537L74.2534 180.076Z" fill="white"/>
<path d="M194.877 216.836H75.3343C73.308 216.836 71.66 215.293 71.66 213.397V181.373C71.66 180.657 72.2406 180.076 72.9568 180.076H89.2563C90.5587 179.705 94.5822 178.502 95.7378 178.148C103.613 175.638 105.638 174.177 106.143 173.665C107.679 172.128 108.333 169.954 107.899 167.845C107.761 167.173 108.171 166.509 108.834 166.331C108.937 166.303 109.041 166.289 109.144 166.287C113.569 163.605 119.401 159.199 125.658 153.803C126.572 152.98 127.481 152.177 128.377 151.387C130.67 149.363 132.836 147.451 135.117 145.158L136.047 144.163C137.901 142.18 141.76 138.054 142.417 137.335C148.801 130.25 153.999 123.88 157.048 119.403C161.659 112.593 162.583 109.374 162.761 108.232C162.642 108.17 162.532 108.09 162.436 107.993C162.193 107.746 162.058 107.413 162.062 107.066L162.199 95.5748C162.204 95.2308 162.344 94.9027 162.59 94.6624C162.837 94.4222 163.167 94.2941 163.512 94.2935L194.776 94.6812H197.272C197.989 94.6812 198.569 95.2619 198.569 95.9781V213.397C198.568 215.293 196.912 216.836 194.877 216.836ZM74.2534 182.67V213.397C74.2534 213.847 74.7585 214.242 75.334 214.242H194.877C195.462 214.242 195.975 213.847 195.975 213.397V97.2747H194.759L164.777 96.9031L164.667 106.123C164.743 106.175 164.813 106.234 164.878 106.299C166.437 107.858 164.311 113.3 159.194 120.86C156.078 125.433 150.803 131.903 144.337 139.077C143.665 139.814 139.799 143.948 137.941 145.934L136.998 146.943C136.988 146.953 136.979 146.963 136.97 146.972C134.625 149.331 132.423 151.274 130.093 153.331C129.204 154.116 128.301 154.912 127.372 155.749C121.043 161.207 115.133 165.674 110.598 168.438C110.801 171.038 109.863 173.611 107.983 175.492C106.577 176.917 102.716 178.645 96.5123 180.623C95.2459 181.011 90.9011 182.31 89.7845 182.622C89.671 182.653 89.5536 182.669 89.4359 182.669H74.2534V182.67Z" fill="white"/>
<path d="M72.9565 184.951C72.2403 184.951 71.6597 184.37 71.6597 183.654V157.61C71.6597 156.894 72.2403 156.313 72.9565 156.313C73.6727 156.313 74.2534 156.894 74.2534 157.61V183.654C74.2534 184.37 73.6727 184.951 72.9565 184.951Z" fill="white"/>
<path d="M194.877 216.836H179.39C178.674 216.836 178.093 216.255 178.093 215.539C178.093 214.823 178.674 214.242 179.39 214.242H194.877C195.462 214.242 195.975 213.847 195.975 213.397V62.4359C195.975 61.97 195.482 61.5913 194.877 61.5913H75.3343C74.7485 61.5913 74.2537 61.9781 74.2537 62.4359V157.61C74.2537 158.327 73.673 158.907 72.9568 158.907C72.2406 158.907 71.66 158.327 71.66 157.61V62.4359C71.66 60.5399 73.3083 58.9976 75.3343 58.9976H194.877C196.912 58.9976 198.569 60.5402 198.569 62.4359V213.397C198.568 215.293 196.912 216.836 194.877 216.836Z" fill="white"/>
<path d="M179.39 216.836H75.3343C73.308 216.836 71.66 215.293 71.66 213.397V183.654C71.66 182.938 72.2406 182.357 72.9568 182.357C73.673 182.357 74.2537 182.938 74.2537 183.654V213.397C74.2537 213.847 74.7589 214.242 75.3343 214.242H179.39C180.106 214.242 180.687 214.823 180.687 215.539C180.687 216.255 180.106 216.836 179.39 216.836ZM194.759 97.2746C194.753 97.2746 194.748 97.2746 194.742 97.2746L163.479 96.8868L75.453 95.7757C74.7368 95.7667 74.1636 95.1785 74.1727 94.4623C74.1817 93.7465 74.7757 93.1745 75.4858 93.182L163.512 94.2931L194.775 94.6809C195.491 94.6896 196.064 95.2777 196.055 95.9939C196.046 96.7043 195.467 97.2746 194.759 97.2746ZM155.254 80.3092C154.55 80.3092 153.972 79.7451 153.958 79.0376C153.944 78.3214 154.513 77.7297 155.23 77.7158L170.094 77.4246C170.102 77.4243 170.111 77.4243 170.12 77.4243C170.824 77.4243 171.402 77.9881 171.416 78.6956C171.43 79.4118 170.861 80.0038 170.144 80.0177L155.28 80.3089C155.271 80.3089 155.263 80.3092 155.254 80.3092ZM145.711 80.3092H97.7732C97.057 80.3092 96.4763 79.7285 96.4763 79.0123C96.4763 78.2961 97.057 77.7155 97.7732 77.7155H145.711C146.427 77.7155 147.008 78.2961 147.008 79.0123C147.008 79.7285 146.427 80.3092 145.711 80.3092ZM126.505 156.082C126.15 156.082 125.797 155.937 125.541 155.653C125.061 155.121 125.105 154.301 125.637 153.822C126.572 152.979 127.481 152.177 128.376 151.387C130.674 149.358 132.844 147.443 135.13 145.144C135.635 144.636 136.456 144.634 136.964 145.138C137.472 145.643 137.474 146.464 136.97 146.972C134.625 149.331 132.423 151.274 130.093 153.331C129.204 154.116 128.301 154.912 127.372 155.749C127.124 155.972 126.814 156.082 126.505 156.082Z" fill="white"/>
<path d="M136.049 147.355C135.732 147.355 135.415 147.24 135.165 147.006C134.641 146.517 134.613 145.697 135.102 145.173L136.05 144.159C137.903 142.178 141.76 138.053 142.416 137.335C142.898 136.806 143.719 136.769 144.248 137.252C144.777 137.734 144.814 138.555 144.331 139.084C143.665 139.814 139.801 143.945 137.944 145.931L136.998 146.943C136.742 147.216 136.396 147.355 136.049 147.355Z" fill="white"/>
<path d="M116.434 145.953C116.126 145.953 115.817 145.844 115.569 145.622C115.036 145.145 114.99 144.325 115.467 143.791C127.886 129.908 139.279 119.506 150.298 111.99C158.273 106.59 161.904 105.784 163.358 105.784C164.033 105.784 164.53 105.953 164.878 106.299C166.437 107.857 164.311 113.3 159.194 120.859C156.079 125.433 150.803 131.902 144.337 139.077C143.858 139.609 143.038 139.652 142.506 139.172C141.974 138.693 141.931 137.873 142.411 137.341C148.801 130.25 153.999 123.879 157.048 119.402C161.39 112.988 162.462 109.76 162.721 108.452C161.426 108.702 158.216 109.761 151.756 114.135C140.917 121.529 129.678 131.796 117.401 145.521C117.145 145.807 116.79 145.953 116.434 145.953ZM104.512 163.231C104.317 163.231 104.119 163.187 103.933 163.094C103.879 163.067 103.805 163.042 103.731 163.026C103.031 162.874 102.588 162.183 102.74 161.483C102.892 160.783 103.584 160.34 104.282 160.491C104.57 160.554 104.842 160.649 105.092 160.773C105.733 161.093 105.993 161.872 105.673 162.513C105.446 162.968 104.988 163.231 104.512 163.231Z" fill="white"/>
<path d="M105.467 163.699C105.256 163.699 105.043 163.648 104.845 163.54C104.658 163.438 104.465 163.332 104.291 163.253C103.638 162.959 103.348 162.191 103.643 161.538C103.938 160.885 104.705 160.594 105.359 160.889C105.624 161.009 105.872 161.144 106.091 161.264C106.719 161.608 106.949 162.397 106.606 163.025C106.37 163.455 105.925 163.699 105.467 163.699Z" fill="white"/>
<path d="M106.304 164.264C106.022 164.264 105.739 164.173 105.501 163.985C105.273 163.805 105.026 163.647 104.788 163.494C104.184 163.108 104.008 162.306 104.394 161.703C104.78 161.1 105.582 160.923 106.185 161.31C106.464 161.487 106.779 161.689 107.108 161.949C107.67 162.393 107.766 163.208 107.322 163.771C107.067 164.094 106.687 164.264 106.304 164.264Z" fill="white"/>
<path d="M109.207 169.055C108.985 169.055 108.763 168.998 108.563 168.884C108.213 168.683 107.979 168.334 107.923 167.94C107.742 167.279 108.106 166.578 108.764 166.36C108.885 166.32 109.009 166.298 109.131 166.294C113.356 163.735 118.866 159.601 124.805 154.534C123.72 152.904 122.467 151.374 121.069 149.975C119.766 148.673 118.291 147.462 116.675 146.364C111.854 152 107.79 157.378 105.109 161.672C105.115 161.921 105.049 162.176 104.903 162.402C104.542 162.964 103.82 163.154 103.235 162.862C103.227 162.859 103.22 162.857 103.219 162.857C102.841 162.735 102.54 162.447 102.401 162.075C102.262 161.703 102.302 161.288 102.508 160.949C105.379 156.226 109.976 150.138 115.453 143.808C115.873 143.323 116.584 143.217 117.126 143.559C119.272 144.914 121.216 146.456 122.902 148.141C124.707 149.947 126.291 151.955 127.61 154.108C127.942 154.65 127.832 155.352 127.351 155.767C120.696 161.506 114.485 166.162 109.864 168.877C109.662 168.996 109.435 169.055 109.207 169.055Z" fill="white"/>
<path d="M89.4359 182.67C89.101 182.67 88.7739 182.54 88.5281 182.299C88.1971 181.974 88.0645 181.498 88.1799 181.049C88.8355 178.504 92.255 165.658 95.2015 162.712C96.9157 160.997 99.1781 160.053 101.572 160.053C102.302 160.053 102.984 160.138 103.6 160.304L103.61 160.307C103.792 160.348 103.998 160.394 104.224 160.47L104.282 160.487C104.302 160.493 104.323 160.499 104.343 160.505C104.594 160.565 104.804 160.646 104.98 160.723C105.141 160.778 105.283 160.841 105.417 160.916C105.595 160.996 105.802 161.093 106.023 161.222C106.06 161.238 106.095 161.256 106.129 161.275C106.427 161.445 106.739 161.659 107.083 161.929C107.428 162.176 107.729 162.439 108 162.73C109.234 163.97 110.1 165.588 110.441 167.289C110.45 167.336 110.457 167.383 110.462 167.431C111.028 170.362 110.106 173.368 107.983 175.493C106.577 176.918 102.716 178.646 96.512 180.623C95.2456 181.011 90.9008 182.31 89.7841 182.622C89.6694 182.654 89.552 182.67 89.4359 182.67ZM101.572 162.647C99.8706 162.647 98.2595 163.321 97.0353 164.546C95.6412 165.94 93.3473 171.934 91.2794 179.484C92.9394 178.992 94.9707 178.383 95.7374 178.147C103.612 175.637 105.638 174.176 106.142 173.665C107.678 172.128 108.333 169.954 107.899 167.845C107.889 167.799 107.882 167.752 107.878 167.705C107.622 166.526 107.011 165.408 106.148 164.546C106.136 164.534 106.124 164.522 106.113 164.509C105.953 164.337 105.77 164.178 105.554 164.025C105.536 164.012 105.518 163.999 105.501 163.985C105.291 163.819 105.106 163.687 104.94 163.585C104.881 163.56 104.825 163.53 104.772 163.497C104.639 163.412 104.495 163.345 104.291 163.253C104.244 163.232 104.197 163.207 104.152 163.18C104.147 163.178 104.132 163.174 104.115 163.169C104.071 163.154 104.028 163.138 103.985 163.119C103.868 163.067 103.795 163.04 103.731 163.027C103.69 163.018 103.649 163.007 103.609 162.994L103.552 162.976C103.499 162.961 103.447 162.945 103.403 162.93C103.3 162.896 103.179 162.869 103.039 162.837L102.999 162.828C102.98 162.824 102.96 162.819 102.94 162.813C102.541 162.703 102.081 162.647 101.572 162.647ZM174.228 174.391C173.512 174.391 172.931 173.811 172.931 173.094V166.707C172.931 165.99 173.512 165.41 174.228 165.41C174.944 165.41 175.525 165.99 175.525 166.707V173.094C175.525 173.811 174.944 174.391 174.228 174.391ZM163.027 203.649C159.712 203.649 156.607 202.572 154.284 200.617C151.854 198.609 150.511 195.909 150.511 193.022V186.885C150.511 185.942 149.455 185.145 148.205 185.145C147.567 185.145 146.944 185.365 146.495 185.748C146.206 185.989 145.879 186.369 145.879 186.885C145.879 189.783 144.549 192.477 142.135 194.471C139.771 196.421 136.662 197.494 133.381 197.494C130.098 197.494 126.989 196.42 124.627 194.471C122.212 192.457 120.884 189.764 120.884 186.885C120.884 186.46 120.688 186.082 120.301 185.761C119.832 185.359 119.218 185.145 118.558 185.145C117.92 185.145 117.297 185.364 116.851 185.747C116.435 186.092 116.233 186.47 116.233 186.885C116.233 189.773 114.912 192.465 112.514 194.467C110.121 196.422 107.014 197.494 103.754 197.494C100.393 197.494 97.2655 195.864 94.4587 192.648C92.9151 190.885 91.8611 189.06 91.7009 188.7C91.4088 188.046 91.7022 187.279 92.3562 186.987C93.0043 186.698 93.763 186.983 94.0609 187.625C94.1893 187.881 95.0751 189.415 96.4115 190.941C98.7053 193.569 101.175 194.901 103.754 194.901C106.418 194.901 108.942 194.037 110.862 192.467C112.649 190.976 113.639 188.99 113.639 186.886C113.639 185.694 114.186 184.586 115.18 183.764C116.085 182.987 117.291 182.551 118.558 182.551C119.838 182.551 121.051 182.987 121.974 183.779C122.938 184.578 123.478 185.687 123.478 186.886C123.478 188.982 124.475 190.967 126.284 192.475C128.177 194.038 130.7 194.9 133.382 194.9C136.062 194.9 138.585 194.038 140.485 192.471C142.29 190.979 143.285 188.995 143.285 186.885C143.285 185.697 143.832 184.588 144.825 183.765C145.735 182.987 146.94 182.551 148.206 182.551C150.907 182.551 153.105 184.495 153.105 186.885V193.022C153.105 195.122 154.114 197.111 155.947 198.625C157.811 200.195 160.323 201.056 163.028 201.056C168.489 201.056 172.932 197.452 172.932 193.022V177.224C172.932 176.508 173.513 175.927 174.229 175.927C174.945 175.927 175.526 176.508 175.526 177.224V193.022C175.525 198.882 169.918 203.649 163.027 203.649Z" fill="white"/>
</svg>
