<svg width="270" height="253" viewBox="0 0 270 253" fill="none" xmlns="http://www.w3.org/2000/svg">
<rect width="270" height="253" rx="41" fill="#06C69A"/>
<path d="M185.875 80.75H176.625V76.125C176.558 75.5307 176.394 74.9271 175.947 74.4901L159.76 58.3026C159.321 57.8586 158.719 57.6921 158.125 57.625H88.75C81.1812 57.6944 76.4105 64.2156 77.1875 71.5H74.875C74.2617 71.5 73.6735 71.7436 73.2398 72.1773C72.8061 72.611 72.5625 73.1992 72.5625 73.8125C72.5625 74.4258 72.8061 75.014 73.2398 75.4477C73.6735 75.8814 74.2617 76.125 74.875 76.125H77.1875V85.375H74.875C74.2617 85.375 73.6735 85.6186 73.2398 86.0523C72.8061 86.486 72.5625 87.0742 72.5625 87.6875C72.5625 88.3008 72.8061 88.889 73.2398 89.3227C73.6735 89.7564 74.2617 90 74.875 90H77.1875V99.25H74.875C74.2617 99.25 73.6735 99.4936 73.2398 99.9273C72.8061 100.361 72.5625 100.949 72.5625 101.562C72.5625 102.176 72.8061 102.764 73.2398 103.198C73.6735 103.631 74.2617 103.875 74.875 103.875H77.1875V113.125H74.875C74.2617 113.125 73.6735 113.369 73.2398 113.802C72.8061 114.236 72.5625 114.824 72.5625 115.438C72.5625 116.051 72.8061 116.639 73.2398 117.073C73.6735 117.506 74.2617 117.75 74.875 117.75H77.1875V127H74.875C74.2617 127 73.6735 127.244 73.2398 127.677C72.8061 128.111 72.5625 128.699 72.5625 129.312C72.5625 129.926 72.8061 130.514 73.2398 130.948C73.6735 131.381 74.2617 131.625 74.875 131.625H77.1875V140.875H74.875C74.2617 140.875 73.6735 141.119 73.2398 141.552C72.8061 141.986 72.5625 142.574 72.5625 143.188C72.5625 143.801 72.8061 144.389 73.2398 144.823C73.6735 145.256 74.2617 145.5 74.875 145.5H77.1875V154.75H74.875C74.2617 154.75 73.6735 154.994 73.2398 155.427C72.8061 155.861 72.5625 156.449 72.5625 157.062C72.5625 157.676 72.8061 158.264 73.2398 158.698C73.6735 159.131 74.2617 159.375 74.875 159.375H77.1875C76.4244 166.664 81.1558 173.174 88.75 173.25H98V175.562H95.6875C95.0742 175.562 94.486 175.806 94.0523 176.24C93.6186 176.673 93.375 177.262 93.375 177.875C93.375 178.488 93.6186 179.077 94.0523 179.51C94.486 179.944 95.0742 180.188 95.6875 180.188H98V184.812C98 191.188 103.187 196.375 109.562 196.375H185.875C192.251 196.375 197.438 191.188 197.438 184.812V92.3125C197.438 85.9369 192.251 80.75 185.875 80.75ZM160.438 65.5199L168.73 73.8125H165.062C162.512 73.8125 160.438 71.7382 160.438 69.1875V65.5199ZM98 92.3125H95.6875C95.0742 92.3125 94.486 92.5561 94.0523 92.9898C93.6186 93.4235 93.375 94.0117 93.375 94.625C93.375 95.2383 93.6186 95.8265 94.0523 96.2602C94.486 96.6939 95.0742 96.9375 95.6875 96.9375H98V106.188H95.6875C95.0742 106.188 94.486 106.431 94.0523 106.865C93.6186 107.298 93.375 107.887 93.375 108.5C93.375 109.113 93.6186 109.702 94.0523 110.135C94.486 110.569 95.0742 110.812 95.6875 110.812H98V120.062H95.6875C95.0742 120.062 94.486 120.306 94.0523 120.74C93.6186 121.173 93.375 121.762 93.375 122.375C93.375 122.988 93.6186 123.577 94.0523 124.01C94.486 124.444 95.0742 124.688 95.6875 124.688H98V133.938H95.6875C95.0742 133.938 94.486 134.181 94.0523 134.615C93.6186 135.048 93.375 135.637 93.375 136.25C93.375 136.863 93.6186 137.452 94.0523 137.885C94.486 138.319 95.0742 138.562 95.6875 138.562H98V147.812H95.6875C95.0742 147.812 94.486 148.056 94.0523 148.49C93.6186 148.923 93.375 149.512 93.375 150.125C93.375 150.738 93.6186 151.327 94.0523 151.76C94.486 152.194 95.0742 152.438 95.6875 152.438H98V161.688H95.6875C95.0742 161.688 94.486 161.931 94.0523 162.365C93.6186 162.798 93.375 163.387 93.375 164C93.375 164.613 93.6186 165.202 94.0523 165.635C94.486 166.069 95.0742 166.312 95.6875 166.312H98V168.625H88.75C84.9251 168.625 81.8125 165.512 81.8125 161.688V159.375H84.125C84.7383 159.375 85.3265 159.131 85.7602 158.698C86.1939 158.264 86.4375 157.676 86.4375 157.062C86.4375 156.449 86.1939 155.861 85.7602 155.427C85.3265 154.994 84.7383 154.75 84.125 154.75H81.8125V145.5H84.125C84.7383 145.5 85.3265 145.256 85.7602 144.823C86.1939 144.389 86.4375 143.801 86.4375 143.188C86.4375 142.574 86.1939 141.986 85.7602 141.552C85.3265 141.119 84.7383 140.875 84.125 140.875H81.8125V131.625H84.125C84.7383 131.625 85.3265 131.381 85.7602 130.948C86.1939 130.514 86.4375 129.926 86.4375 129.312C86.4375 128.699 86.1939 128.111 85.7602 127.677C85.3265 127.244 84.7383 127 84.125 127H81.8125V117.75H84.125C84.7383 117.75 85.3265 117.506 85.7602 117.073C86.1939 116.639 86.4375 116.051 86.4375 115.438C86.4375 114.824 86.1939 114.236 85.7602 113.802C85.3265 113.369 84.7383 113.125 84.125 113.125H81.8125V103.875H84.125C84.7383 103.875 85.3265 103.631 85.7602 103.198C86.1939 102.764 86.4375 102.176 86.4375 101.562C86.4375 100.949 86.1939 100.361 85.7602 99.9273C85.3265 99.4936 84.7383 99.25 84.125 99.25H81.8125V90H84.125C84.7383 90 85.3265 89.7564 85.7602 89.3227C86.1939 88.889 86.4375 88.3008 86.4375 87.6875C86.4375 87.0742 86.1939 86.486 85.7602 86.0523C85.3265 85.6186 84.7383 85.375 84.125 85.375H81.8125V76.125H84.125C84.7383 76.125 85.3265 75.8814 85.7602 75.4477C86.1939 75.014 86.4375 74.4258 86.4375 73.8125C86.4375 73.1992 86.1939 72.611 85.7602 72.1773C85.3265 71.7436 84.7383 71.5 84.125 71.5H81.8125V69.1875C81.8125 65.3626 84.9251 62.25 88.75 62.25H155.812V69.1875C155.812 74.2889 159.961 78.4375 165.062 78.4375H172V80.75H109.562C103.187 80.75 98 85.9369 98 92.3125ZM192.812 184.812C192.812 188.637 189.7 191.75 185.875 191.75H109.562C105.738 191.75 102.625 188.637 102.625 184.812V180.188H104.938C105.551 180.188 106.139 179.944 106.573 179.51C107.006 179.077 107.25 178.488 107.25 177.875C107.25 177.262 107.006 176.673 106.573 176.24C106.139 175.806 105.551 175.562 104.938 175.562H102.625V166.312H104.938C105.551 166.312 106.139 166.069 106.573 165.635C107.006 165.202 107.25 164.613 107.25 164C107.25 163.387 107.006 162.798 106.573 162.365C106.139 161.931 105.551 161.688 104.938 161.688H102.625V152.438H104.938C105.551 152.438 106.139 152.194 106.573 151.76C107.006 151.327 107.25 150.738 107.25 150.125C107.25 149.512 107.006 148.923 106.573 148.49C106.139 148.056 105.551 147.812 104.938 147.812H102.625V138.562H104.938C105.551 138.562 106.139 138.319 106.573 137.885C107.006 137.452 107.25 136.863 107.25 136.25C107.25 135.637 107.006 135.048 106.573 134.615C106.139 134.181 105.551 133.938 104.938 133.938H102.625V124.688H104.938C105.551 124.688 106.139 124.444 106.573 124.01C107.006 123.577 107.25 122.988 107.25 122.375C107.25 121.762 107.006 121.173 106.573 120.74C106.139 120.306 105.551 120.062 104.938 120.062H102.625V110.812H104.938C105.551 110.812 106.139 110.569 106.573 110.135C107.006 109.702 107.25 109.113 107.25 108.5C107.25 107.887 107.006 107.298 106.573 106.865C106.139 106.431 105.551 106.188 104.938 106.188H102.625V96.9375H104.938C105.551 96.9375 106.139 96.6939 106.573 96.2602C107.006 95.8265 107.25 95.2383 107.25 94.625C107.25 94.0117 107.006 93.4235 106.573 92.9898C106.139 92.5561 105.551 92.3125 104.938 92.3125H102.625C102.625 88.4876 105.738 85.375 109.562 85.375H185.875C189.7 85.375 192.812 88.4876 192.812 92.3125V184.812Z" fill="white"/>
<path d="M174.312 96.9375H121.125C117.3 96.9375 114.188 100.05 114.188 103.875V173.25C114.188 177.075 117.3 180.188 121.125 180.188H174.312C178.137 180.188 181.25 177.075 181.25 173.25V103.875C181.25 100.05 178.137 96.9375 174.312 96.9375ZM176.625 173.25C176.625 173.863 176.381 174.452 175.948 174.885C175.514 175.319 174.926 175.562 174.312 175.562H121.125C120.512 175.562 119.923 175.319 119.49 174.885C119.056 174.452 118.812 173.863 118.812 173.25V103.875C118.812 102.601 119.849 101.562 121.125 101.562H174.312C175.589 101.562 176.625 102.601 176.625 103.875V173.25Z" fill="white"/>
<path d="M171.727 121.339C171.535 120.961 171.244 120.643 170.884 120.418C170.525 120.193 170.111 120.07 169.687 120.062H158.125C155.091 120.111 155.082 124.637 158.125 124.688H164.496L149.037 141.862L143.787 134.863C143.426 134.378 142.889 134.055 142.291 133.963C141.694 133.871 141.085 134.017 140.594 134.37L124.406 145.932C121.962 147.736 124.596 151.422 127.094 149.693L141.443 139.446L147.025 146.887C147.23 147.161 147.493 147.385 147.795 147.545C148.096 147.704 148.43 147.795 148.771 147.81C149.113 147.834 149.456 147.778 149.773 147.645C150.089 147.512 150.37 147.308 150.593 147.047L167.375 128.401V133.938C167.424 136.974 171.949 136.978 172 133.938C171.896 133.436 172.275 121.404 171.727 121.339ZM132.687 110.812H165.062C168.092 110.766 168.11 106.238 165.062 106.188H132.687C129.658 106.234 129.64 110.762 132.687 110.812ZM169.687 164H153.5C150.464 164.049 150.457 168.574 153.5 168.625H169.687C172.724 168.576 172.731 164.051 169.687 164ZM169.687 154.75H160.437C157.401 154.799 157.397 159.324 160.437 159.375H169.687C172.724 159.326 172.728 154.801 169.687 154.75Z" fill="white"/>
</svg>
