<svg width="34" height="41" viewBox="0 0 34 41" fill="none" xmlns="http://www.w3.org/2000/svg">
<path d="M28.05 21.15C28.02 19.6095 28.4205 18.0913 29.2068 16.7663C29.993 15.4413 31.1335 14.3619 32.5 13.65C31.6395 12.4536 30.5158 11.4708 29.2155 10.7772C27.915 10.0837 26.473 9.69808 25 9.65C21.825 9.4 18.375 11.5 17.1 11.5C15.825 11.5 12.675 9.75 10.275 9.75C5.275 9.75 0 13.725 0 21.65C0.0241 24.1203 0.454874 26.5698 1.275 28.9C2.375 32.1 6.5 40.125 10.8 40C13.05 40 14.65 38.4 17.575 38.4C20.5 38.4 21.875 40 24.4 40C28.725 40 32.475 32.625 33.55 29.35C31.9223 28.6843 30.5298 27.5488 29.5503 26.0883C28.5705 24.6278 28.0483 22.9085 28.05 21.15ZM23.05 6.475C23.8268 5.59913 24.4125 4.57098 24.7698 3.45613C25.127 2.34128 25.248 1.16423 25.125 0C22.7908 0.255975 20.6348 1.36963 19.075 3.125C18.2685 3.97478 17.6458 4.98165 17.2458 6.0828C16.8458 7.18395 16.677 8.35573 16.75 9.525C17.9605 9.55903 19.1615 9.29935 20.2498 8.7682C21.3383 8.23705 22.2818 7.45023 23 6.475H23.05Z" fill="#1E214E"/>
</svg>
