<svg width="40" height="41" viewBox="0 0 40 41" fill="none" xmlns="http://www.w3.org/2000/svg">
<path d="M39.0219 16.9253L38.7969 16.0503H20.1969V23.9503H31.3219C30.7011 26.3611 29.2899 28.4938 27.3136 30.0076C25.3376 31.5213 22.9109 32.3286 20.4219 32.3003C17.1739 32.2736 14.0532 31.0341 11.6718 28.8253C10.5012 27.6716 9.56966 26.2981 8.93046 24.7838C8.29128 23.2696 7.95703 21.6441 7.94686 20.0003C7.98463 16.6991 9.29166 13.5389 11.5969 11.1754C13.9446 8.95126 17.0629 7.72361 20.2969 7.75036C23.0666 7.77168 25.7334 8.80283 27.7969 10.6504L33.2969 5.00036C29.6719 1.76626 24.9799 -0.0144409 20.1219 0.000359079C17.4494 -0.0155159 14.8001 0.495134 12.325 1.50318C9.84998 2.51121 7.59771 3.99688 5.69686 5.87536C2.08108 9.63106 0.0425323 14.6299 0.000657278 19.8431C-0.0411927 25.0563 1.91686 30.0871 5.47186 33.9003C7.44146 35.8626 9.78241 37.4128 12.3579 38.4601C14.9334 39.5076 17.6916 40.0311 20.4719 40.0003C22.9929 40.0191 25.4916 39.5258 27.8166 38.5503C30.1414 37.5748 32.2439 36.1376 33.9969 34.3253C37.4366 30.5431 39.2974 25.5871 39.1969 20.4753C39.2239 19.2893 39.1654 18.1031 39.0219 16.9253Z" fill="#1E214E"/>
</svg>
