<svg width="40" height="40" viewBox="0 0 40 40" fill="none" xmlns="http://www.w3.org/2000/svg">
<path d="M39.9985 19.7541C39.9517 15.9428 38.8167 12.2243 36.7272 9.03643C34.6377 5.84858 31.681 3.32416 28.205 1.76048C24.7287 0.196806 20.8782 -0.340994 17.1067 0.210381C13.3353 0.761781 9.7999 2.37938 6.91698 4.87275C4.03403 7.3661 1.9236 10.6314 0.83423 14.2839C-0.25512 17.9366 -0.278071 21.8243 0.768129 25.4896C1.81433 29.1548 3.88608 32.4446 6.7394 34.9718C9.5927 37.4991 13.1088 39.1583 16.8735 39.7541V25.5791H11.8735V19.7541H16.8735V15.3291C16.7577 14.3002 16.8692 13.2584 17.2002 12.2773C17.5312 11.2962 18.0735 10.3997 18.7887 9.6511C19.504 8.90245 20.3747 8.31993 21.3397 7.94466C22.3047 7.56936 23.3405 7.41043 24.3735 7.47913C25.873 7.49966 27.369 7.63338 28.8485 7.87913V12.8791H26.3485C25.9175 12.8248 25.4795 12.868 25.0675 13.0055C24.6552 13.1431 24.2792 13.3715 23.9672 13.6739C23.6552 13.9763 23.4152 14.345 23.265 14.7526C23.1145 15.1603 23.0577 15.5966 23.0985 16.0291V19.8041H28.6485L27.7485 25.6291H23.1235V39.6291C27.8482 38.8818 32.1487 36.4658 35.2447 32.8193C38.3407 29.1728 40.0272 24.5376 39.9985 19.7541Z" fill="#1E214E"/>
</svg>
